font.ufo
<glyph name="exclam" format="1">
  <advance width="242"/>
  <unicode hex="0021"/>
  <outline>
    <contour>
      <point x="86" y="209" type="line"/>
      <point x="109" y="203"/>
      <point x="135" y="203"/>
      <point x="155" y="209" type="curve"/>
      <point x="182" y="702" type="line"/>
      <point x="149" y="709"/>
      <point x="100" y="708"/>
      <point x="70" y="696" type="curve"/>
    </contour>
    <contour>
      <point x="121" y="-15" type="curve" smooth="yes"/>
      <point x="160" y="-15"/>
      <point x="190" y="16"/>
      <point x="190" y="54" type="curve" smooth="yes"/>
      <point x="190" y="93"/>
      <point x="160" y="124"/>
      <point x="121" y="124" type="curve" smooth="yes"/>
      <point x="82" y="124"/>
      <point x="52" y="93"/>
      <point x="52" y="54" type="curve" smooth="yes"/>
      <point x="52" y="16"/>
      <point x="82" y="-15"/>
    </contour>
  </outline>
</glyph>
<glyph name="numbersign" format="1">
  <advance width="701"/>
  <unicode hex="0023"/>
  <outline>
    <contour>
      <point x="394" y="260" type="line"/>
      <point x="247" y="260" type="line"/>
      <point x="288" y="431" type="line"/>
      <point x="435" y="431" type="line"/>
    </contour>
    <contour>
      <point x="472" y="260" type="line"/>
      <point x="513" y="431" type="line"/>
      <point x="655" y="431" type="line"/>
      <point x="653" y="461"/>
      <point x="645" y="483"/>
      <point x="628" y="500" type="curve"/>
      <point x="528" y="500" type="line"/>
      <point x="567" y="665" type="line"/>
      <point x="489" y="665" type="line"/>
      <point x="450" y="500" type="line"/>
      <point x="303" y="500" type="line"/>
      <point x="342" y="665" type="line"/>
      <point x="263" y="665" type="line"/>
      <point x="224" y="500" type="line"/>
      <point x="84" y="500" type="line"/>
      <point x="86" y="470"/>
      <point x="94" y="449"/>
      <point x="111" y="431" type="curve"/>
      <point x="209" y="431" type="line"/>
      <point x="168" y="260" type="line"/>
      <point x="46" y="260" type="line"/>
      <point x="48" y="230"/>
      <point x="56" y="209"/>
      <point x="73" y="191" type="curve"/>
      <point x="153" y="191" type="line"/>
      <point x="112" y="17" type="line"/>
      <point x="191" y="17" type="line"/>
      <point x="232" y="191" type="line"/>
      <point x="379" y="191" type="line"/>
      <point x="338" y="17" type="line"/>
      <point x="416" y="17" type="line"/>
      <point x="457" y="191" type="line"/>
      <point x="617" y="191" type="line"/>
      <point x="615" y="221"/>
      <point x="607" y="242"/>
      <point x="590" y="260" type="curve"/>
    </contour>
  </outline>
</glyph>
<glyph name="dollar" format="1">
  <advance width="489"/>
  <unicode hex="0024"/>
  <outline>
    <contour>
      <point x="228" y="-16" type="curve" smooth="yes"/>
      <point x="144" y="-16"/>
      <point x="44" y="20"/>
      <point x="44" y="95" type="curve" smooth="yes"/>
      <point x="44" y="133"/>
      <point x="67" y="163"/>
      <point x="121" y="163" type="curve"/>
      <point x="126" y="82"/>
      <point x="167" y="49"/>
      <point x="242" y="49" type="curve" smooth="yes"/>
      <point x="310" y="49"/>
      <point x="360" y="78"/>
      <point x="360" y="142" type="curve" smooth="yes"/>
      <point x="360" y="217"/>
      <point x="299" y="246"/>
      <point x="234" y="273" type="curve" smooth="yes"/>
      <point x="145" y="310"/>
      <point x="61" y="349"/>
      <point x="61" y="443" type="curve" smooth="yes"/>
      <point x="61" y="561"/>
      <point x="160" y="619"/>
      <point x="264" y="619" type="curve" smooth="yes"/>
      <point x="326" y="619"/>
      <point x="420" y="597"/>
      <point x="420" y="513" type="curve" smooth="yes"/>
      <point x="420" y="470"/>
      <point x="389" y="444"/>
      <point x="348" y="450" type="curve"/>
      <point x="348" y="519"/>
      <point x="318" y="556"/>
      <point x="244" y="556" type="curve" smooth="yes"/>
      <point x="185" y="556"/>
      <point x="146" y="524"/>
      <point x="146" y="476" type="curve" smooth="yes"/>
      <point x="146" y="414"/>
      <point x="205" y="389"/>
      <point x="285" y="356" type="curve" smooth="yes"/>
      <point x="388" y="310"/>
      <point x="445" y="276"/>
      <point x="445" y="184" type="curve" smooth="yes"/>
      <point x="445" y="70"/>
      <point x="360" y="-16"/>
    </contour>
    <contour>
      <point x="266" y="10" type="line"/>
      <point x="276" y="-110" type="line"/>
      <point x="257" y="-119"/>
      <point x="212" y="-119"/>
      <point x="195" y="-110" type="curve"/>
      <point x="205" y="8" type="line"/>
    </contour>
    <contour>
      <point x="206" y="585" type="line"/>
      <point x="195" y="713" type="line"/>
      <point x="212" y="722"/>
      <point x="257" y="722"/>
      <point x="276" y="713" type="curve"/>
      <point x="265" y="588" type="line"/>
    </contour>
  </outline>
</glyph>
<glyph name="percent" format="1">
  <advance width="787"/>
  <unicode hex="0025"/>
  <outline>
    <contour>
      <point x="618" y="627" type="line"/>
      <point x="529" y="627" type="line"/>
      <point x="173" y="0" type="line"/>
      <point x="263" y="0" type="line"/>
    </contour>
    <contour>
      <point x="184" y="576" type="curve" smooth="yes"/>
      <point x="226" y="576"/>
      <point x="248" y="533"/>
      <point x="248" y="453" type="curve" smooth="yes"/>
      <point x="248" y="368"/>
      <point x="224" y="328"/>
      <point x="183" y="328" type="curve" smooth="yes"/>
      <point x="143" y="328"/>
      <point x="117" y="365"/>
      <point x="117" y="450" type="curve" smooth="yes"/>
      <point x="117" y="531"/>
      <point x="139" y="576"/>
    </contour>
    <contour>
      <point x="186" y="628" type="curve" smooth="yes"/>
      <point x="95" y="628"/>
      <point x="45" y="568"/>
      <point x="45" y="451" type="curve" smooth="yes"/>
      <point x="45" y="332"/>
      <point x="97" y="276"/>
      <point x="184" y="276" type="curve" smooth="yes"/>
      <point x="271" y="276"/>
      <point x="322" y="334"/>
      <point x="322" y="454" type="curve" smooth="yes"/>
      <point x="322" y="572"/>
      <point x="274" y="628"/>
    </contour>
    <contour>
      <point x="604" y="285" type="curve" smooth="yes"/>
      <point x="646" y="285"/>
      <point x="668" y="242"/>
      <point x="668" y="162" type="curve" smooth="yes"/>
      <point x="668" y="77"/>
      <point x="644" y="37"/>
      <point x="603" y="37" type="curve" smooth="yes"/>
      <point x="563" y="37"/>
      <point x="537" y="75"/>
      <point x="537" y="159" type="curve" smooth="yes"/>
      <point x="537" y="241"/>
      <point x="559" y="285"/>
    </contour>
    <contour>
      <point x="606" y="337" type="curve" smooth="yes"/>
      <point x="516" y="337"/>
      <point x="465" y="278"/>
      <point x="465" y="160" type="curve" smooth="yes"/>
      <point x="465" y="41"/>
      <point x="517" y="-15"/>
      <point x="604" y="-15" type="curve" smooth="yes"/>
      <point x="691" y="-15"/>
      <point x="742" y="43"/>
      <point x="742" y="164" type="curve" smooth="yes"/>
      <point x="742" y="281"/>
      <point x="694" y="337"/>
    </contour>
  </outline>
</glyph>
<glyph name="ampersand" format="1">
  <advance width="737"/>
  <unicode hex="0026"/>
  <outline>
    <contour>
      <point x="269" y="675" type="curve" smooth="yes"/>
      <point x="156" y="675"/>
      <point x="91" y="604"/>
      <point x="91" y="514" type="curve" smooth="yes"/>
      <point x="91" y="449"/>
      <point x="129" y="379"/>
      <point x="234" y="263" type="curve" smooth="yes"/>
      <point x="366" y="117"/>
      <point x="519" y="-17"/>
      <point x="634" y="-17" type="curve" smooth="yes"/>
      <point x="698" y="-17"/>
      <point x="724" y="25"/>
      <point x="724" y="59" type="curve" smooth="yes"/>
      <point x="724" y="74"/>
      <point x="719" y="88"/>
      <point x="710" y="96" type="curve"/>
      <point x="698" y="79"/>
      <point x="666" y="68"/>
      <point x="643" y="68" type="curve" smooth="yes"/>
      <point x="566" y="68"/>
      <point x="421" y="186"/>
      <point x="298" y="329" type="curve" smooth="yes"/>
      <point x="218" y="421"/>
      <point x="184" y="484"/>
      <point x="184" y="532" type="curve" smooth="yes"/>
      <point x="184" y="583"/>
      <point x="218" y="620"/>
      <point x="267" y="620" type="curve" smooth="yes"/>
      <point x="297" y="620"/>
      <point x="338" y="598"/>
      <point x="338" y="534" type="curve" smooth="yes"/>
      <point x="338" y="474"/>
      <point x="309" y="408"/>
      <point x="237" y="379" type="curve"/>
      <point x="263" y="339" type="line"/>
      <point x="343" y="361"/>
      <point x="428" y="430"/>
      <point x="428" y="533" type="curve" smooth="yes"/>
      <point x="428" y="624"/>
      <point x="357" y="675"/>
    </contour>
    <contour>
      <point x="229" y="374" type="line"/>
      <point x="82" y="323"/>
      <point x="37" y="232"/>
      <point x="37" y="156" type="curve" smooth="yes"/>
      <point x="37" y="58"/>
      <point x="107" y="-18"/>
      <point x="251" y="-18" type="curve" smooth="yes"/>
      <point x="412" y="-18"/>
      <point x="549" y="81"/>
      <point x="594" y="308" type="curve"/>
      <point x="525" y="302" type="line"/>
      <point x="489" y="124"/>
      <point x="379" y="54"/>
      <point x="275" y="54" type="curve" smooth="yes"/>
      <point x="183" y="54"/>
      <point x="135" y="106"/>
      <point x="135" y="174" type="curve" smooth="yes"/>
      <point x="135" y="237"/>
      <point x="179" y="306"/>
      <point x="262" y="335" type="curve"/>
    </contour>
    <contour>
      <point x="491" y="334" type="line"/>
      <point x="450" y="334"/>
      <point x="454" y="289"/>
      <point x="455" y="279" type="curve"/>
      <point x="524" y="273" type="line"/>
      <point x="575" y="275" type="line"/>
      <point x="619" y="278" type="line" smooth="yes"/>
      <point x="660" y="281"/>
      <point x="653" y="324"/>
      <point x="654" y="334" type="curve"/>
    </contour>
  </outline>
</glyph>
<glyph name="quotesingle" format="1">
  <advance width="205"/>
  <unicode hex="0027"/>
  <outline>
    <contour>
      <point x="70" y="484" type="line"/>
      <point x="93" y="478"/>
      <point x="108" y="478"/>
      <point x="129" y="484" type="curve"/>
      <point x="155" y="692" type="line"/>
      <point x="116" y="699"/>
      <point x="81" y="696"/>
      <point x="50" y="686" type="curve"/>
    </contour>
  </outline>
</glyph>
<glyph name="parenleft" format="1">
  <advance width="297"/>
  <unicode hex="0028"/>
  <outline>
    <contour>
      <point x="234" y="729" type="line"/>
      <point x="137" y="638"/>
      <point x="53" y="462"/>
      <point x="53" y="269" type="curve" smooth="yes"/>
      <point x="53" y="75"/>
      <point x="134" y="-91"/>
      <point x="231" y="-184" type="curve"/>
      <point x="271" y="-145" type="line"/>
      <point x="212" y="-62"/>
      <point x="151" y="93"/>
      <point x="151" y="269" type="curve" smooth="yes"/>
      <point x="151" y="441"/>
      <point x="211" y="599"/>
      <point x="272" y="693" type="curve"/>
    </contour>
  </outline>
</glyph>
<glyph name="asterisk" format="1">
  <advance width="510"/>
  <unicode hex="002A"/>
  <outline>
    <contour>
      <point x="264" y="565" type="line"/>
      <point x="293" y="718" type="line"/>
      <point x="267" y="727"/>
      <point x="213" y="730"/>
      <point x="187" y="719" type="curve"/>
      <point x="219" y="564" type="line"/>
      <point x="81" y="639" type="line"/>
      <point x="63" y="618"/>
      <point x="51" y="566"/>
      <point x="51" y="536" type="curve"/>
      <point x="208" y="522" type="line"/>
      <point x="94" y="417" type="line"/>
      <point x="108" y="393"/>
      <point x="153" y="362"/>
      <point x="181" y="355" type="curve"/>
      <point x="241" y="494" type="line"/>
      <point x="303" y="354" type="line"/>
      <point x="332" y="361"/>
      <point x="375" y="392"/>
      <point x="390" y="416" type="curve"/>
      <point x="274" y="522" type="line"/>
      <point x="432" y="536" type="line"/>
      <point x="432" y="564"/>
      <point x="419" y="616"/>
      <point x="402" y="638" type="curve"/>
    </contour>
  </outline>
</glyph>
<glyph name="plus" format="1">
  <advance width="497"/>
  <unicode hex="002B"/>
  <outline>
    <contour>
      <point x="50" y="310" type="line"/>
      <point x="50" y="239" type="line"/>
      <point x="447" y="239" type="line"/>
      <point x="447" y="310" type="line"/>
    </contour>
    <contour>
      <point x="286" y="473" type="line"/>
      <point x="213" y="473" type="line"/>
      <point x="213" y="76" type="line"/>
      <point x="286" y="76" type="line"/>
    </contour>
  </outline>
</glyph>
<glyph name="hyphen" format="1">
  <advance width="398"/>
  <unicode hex="002D"/>
  <outline>
    <contour>
      <point x="43" y="299" type="line"/>
      <point x="43" y="221" type="line"/>
      <point x="355" y="221" type="line"/>
      <point x="355" y="299" type="line"/>
    </contour>
  </outline>
</glyph>
<glyph name="period" format="1">
  <advance width="232"/>
  <unicode hex="002E"/>
  <outline>
    <contour>
      <point x="116" y="-15" type="curve" smooth="yes"/>
      <point x="155" y="-15"/>
      <point x="185" y="16"/>
      <point x="185" y="54" type="curve" smooth="yes"/>
      <point x="185" y="93"/>
      <point x="155" y="124"/>
      <point x="116" y="124" type="curve" smooth="yes"/>
      <point x="77" y="124"/>
      <point x="47" y="93"/>
      <point x="47" y="54" type="curve" smooth="yes"/>
      <point x="47" y="16"/>
      <point x="77" y="-15"/>
    </contour>
  </outline>
</glyph>
<glyph name="slash" format="1">
  <advance width="385"/>
  <unicode hex="002F"/>
  <outline>
    <contour>
      <point x="107" y="-106" type="line"/>
      <point x="365" y="697" type="line"/>
      <point x="278" y="697" type="line"/>
      <point x="20" y="-106" type="line"/>
    </contour>
  </outline>
</glyph>
<glyph name="zero" format="1">
  <advance width="526"/>
  <unicode hex="0030"/>
  <outline>
    <contour>
      <point x="266" y="627" type="curve" smooth="yes"/>
      <point x="113" y="623"/>
      <point x="35" y="509"/>
      <point x="35" y="301" type="curve" smooth="yes"/>
      <point x="35" y="97"/>
      <point x="113" y="-15"/>
      <point x="265" y="-15" type="curve" smooth="yes"/>
      <point x="414" y="-15"/>
      <point x="491" y="92"/>
      <point x="491" y="308" type="curve" smooth="yes"/>
      <point x="491" y="511"/>
      <point x="425" y="631"/>
    </contour>
    <contour>
      <point x="267" y="558" type="curve" smooth="yes"/>
      <point x="353" y="558"/>
      <point x="392" y="478"/>
      <point x="392" y="296" type="curve" smooth="yes"/>
      <point x="392" y="135"/>
      <point x="359" y="54"/>
      <point x="265" y="54" type="curve" smooth="yes"/>
      <point x="181" y="54"/>
      <point x="134" y="119"/>
      <point x="134" y="296" type="curve" smooth="yes"/>
      <point x="134" y="450"/>
      <point x="168" y="558"/>
    </contour>
  </outline>
</glyph>
<glyph name="one" format="1">
  <advance width="388"/>
  <unicode hex="0031"/>
  <outline>
    <contour>
      <point x="256" y="582" type="line"/>
      <point x="256" y="613"/>
      <point x="243" y="627"/>
      <point x="220" y="627" type="curve" smooth="yes"/>
      <point x="208" y="627"/>
      <point x="191" y="625"/>
      <point x="175" y="616" type="curve" smooth="yes"/>
      <point x="35" y="537" type="line"/>
      <point x="34" y="524"/>
      <point x="55" y="480"/>
      <point x="90" y="491" type="curve" smooth="yes"/>
      <point x="155" y="512" type="line"/>
      <point x="155" y="0" type="line"/>
      <point x="256" y="0" type="line"/>
    </contour>
    <contour>
      <point x="256" y="63" type="line"/>
      <point x="155" y="61" type="line"/>
      <point x="92" y="59" type="line" smooth="yes"/>
      <point x="48" y="57"/>
      <point x="54" y="10"/>
      <point x="53" y="0" type="curve"/>
      <point x="314" y="0" type="line" smooth="yes"/>
      <point x="358" y="0"/>
      <point x="354" y="47"/>
      <point x="353" y="57" type="curve"/>
    </contour>
  </outline>
</glyph>
<glyph name="two" format="1">
  <advance width="496"/>
  <unicode hex="0032"/>
  <outline>
    <contour>
      <point x="247" y="627" type="curve" smooth="yes"/>
      <point x="134" y="627"/>
      <point x="51" y="565"/>
      <point x="51" y="487" type="curve" smooth="yes"/>
      <point x="51" y="429"/>
      <point x="97" y="415"/>
      <point x="134" y="417" type="curve"/>
      <point x="134" y="498"/>
      <point x="158" y="559"/>
      <point x="235" y="559" type="curve" smooth="yes"/>
      <point x="300" y="559"/>
      <point x="330" y="516"/>
      <point x="330" y="456" type="curve" smooth="yes"/>
      <point x="330" y="308"/>
      <point x="144" y="151"/>
      <point x="37" y="54" type="curve"/>
      <point x="35" y="41"/>
      <point x="45" y="10"/>
      <point x="48" y="1" type="curve"/>
      <point x="462" y="1" type="line"/>
      <point x="462" y="167" type="line"/>
      <point x="442" y="174"/>
      <point x="407" y="167"/>
      <point x="403" y="132" type="curve" smooth="yes"/>
      <point x="396" y="73" type="line"/>
      <point x="166" y="73" type="line"/>
      <point x="242" y="136"/>
      <point x="437" y="293"/>
      <point x="437" y="457" type="curve" smooth="yes"/>
      <point x="437" y="557"/>
      <point x="366" y="627"/>
    </contour>
  </outline>
</glyph>
<glyph name="three" format="1">
  <advance width="458"/>
  <unicode hex="0033"/>
  <outline>
    <contour>
      <point x="225" y="627" type="curve" smooth="yes"/>
      <point x="128" y="627"/>
      <point x="63" y="583"/>
      <point x="61" y="526" type="curve" smooth="yes"/>
      <point x="60" y="492"/>
      <point x="82" y="467"/>
      <point x="133" y="466" type="curve"/>
      <point x="135" y="515"/>
      <point x="159" y="563"/>
      <point x="222" y="563" type="curve" smooth="yes"/>
      <point x="272" y="563"/>
      <point x="299" y="534"/>
      <point x="299" y="485" type="curve" smooth="yes"/>
      <point x="299" y="380"/>
      <point x="185" y="353"/>
      <point x="134" y="353" type="curve"/>
      <point x="135" y="279" type="line"/>
      <point x="224" y="285"/>
      <point x="325" y="267"/>
      <point x="327" y="168" type="curve" smooth="yes"/>
      <point x="329" y="95"/>
      <point x="276" y="53"/>
      <point x="206" y="53" type="curve" smooth="yes"/>
      <point x="139" y="53"/>
      <point x="102" y="93"/>
      <point x="98" y="149" type="curve"/>
      <point x="53" y="147"/>
      <point x="35" y="116"/>
      <point x="35" y="87" type="curve" smooth="yes"/>
      <point x="35" y="29"/>
      <point x="96" y="-15"/>
      <point x="198" y="-15" type="curve" smooth="yes"/>
      <point x="343" y="-15"/>
      <point x="435" y="72"/>
      <point x="435" y="175" type="curve" smooth="yes"/>
      <point x="435" y="288"/>
      <point x="327" y="356"/>
      <point x="180" y="331" type="curve"/>
      <point x="187" y="315" type="line"/>
      <point x="357" y="335"/>
      <point x="403" y="419"/>
      <point x="403" y="487" type="curve" smooth="yes"/>
      <point x="403" y="574"/>
      <point x="330" y="627"/>
    </contour>
  </outline>
</glyph>
<glyph name="four" format="1">
  <advance width="485"/>
  <unicode hex="0034"/>
  <outline>
    <contour>
      <point x="381" y="623" type="line"/>
      <point x="356" y="627"/>
      <point x="330" y="625"/>
      <point x="301" y="618" type="curve"/>
      <point x="17" y="188" type="line"/>
      <point x="20" y="165"/>
      <point x="30" y="146"/>
      <point x="43" y="128" type="curve"/>
      <point x="470" y="128" type="line"/>
      <point x="470" y="197" type="line"/>
      <point x="51" y="197" type="line"/>
      <point x="86" y="178" type="line"/>
      <point x="355" y="589" type="line"/>
      <point x="281" y="550" type="line"/>
      <point x="281" y="-10" type="line"/>
      <point x="381" y="0" type="line"/>
    </contour>
  </outline>
</glyph>
<glyph name="five" format="1">
  <advance width="454"/>
  <unicode hex="0035"/>
  <outline>
    <contour>
      <point x="102" y="617" type="line"/>
      <point x="88" y="286" type="line"/>
      <point x="101" y="279" type="line"/>
      <point x="132" y="290"/>
      <point x="161" y="300"/>
      <point x="201" y="300" type="curve" smooth="yes"/>
      <point x="267" y="300"/>
      <point x="327" y="272"/>
      <point x="327" y="186" type="curve" smooth="yes"/>
      <point x="327" y="105"/>
      <point x="276" y="50"/>
      <point x="200" y="50" type="curve" smooth="yes"/>
      <point x="133" y="50"/>
      <point x="103" y="86"/>
      <point x="95" y="139" type="curve"/>
      <point x="66" y="139"/>
      <point x="38" y="121"/>
      <point x="38" y="83" type="curve" smooth="yes"/>
      <point x="38" y="24"/>
      <point x="102" y="-15"/>
      <point x="198" y="-15" type="curve" smooth="yes"/>
      <point x="331" y="-15"/>
      <point x="430" y="70"/>
      <point x="430" y="204" type="curve" smooth="yes"/>
      <point x="430" y="331"/>
      <point x="338" y="383"/>
      <point x="233" y="383" type="curve" smooth="yes"/>
      <point x="184" y="383"/>
      <point x="141" y="372"/>
      <point x="102" y="359" type="curve"/>
      <point x="156" y="362" type="line"/>
      <point x="166" y="595" type="line"/>
      <point x="122" y="536" type="line"/>
      <point x="381" y="536" type="line"/>
      <point x="389" y="617" type="line"/>
    </contour>
  </outline>
</glyph>
<glyph name="six" format="1">
  <advance width="483"/>
  <unicode hex="0036"/>
  <outline>
    <contour>
      <point x="248" y="-15" type="curve" smooth="yes"/>
      <point x="379" y="-15"/>
      <point x="456" y="75"/>
      <point x="456" y="190" type="curve" smooth="yes"/>
      <point x="456" y="305"/>
      <point x="383" y="365"/>
      <point x="286" y="365" type="curve" smooth="yes"/>
      <point x="222" y="365"/>
      <point x="158" y="340"/>
      <point x="106" y="294" type="curve"/>
      <point x="114" y="234" type="line"/>
      <point x="146" y="273"/>
      <point x="192" y="295"/>
      <point x="247" y="295" type="curve" smooth="yes"/>
      <point x="308" y="295"/>
      <point x="353" y="264"/>
      <point x="353" y="174" type="curve" smooth="yes"/>
      <point x="353" y="95"/>
      <point x="319" y="50"/>
      <point x="256" y="50" type="curve" smooth="yes"/>
      <point x="188" y="50"/>
      <point x="147" y="103"/>
      <point x="147" y="265" type="curve" smooth="yes"/>
      <point x="147" y="473"/>
      <point x="204" y="564"/>
      <point x="292" y="564" type="curve" smooth="yes"/>
      <point x="340" y="564"/>
      <point x="363" y="536"/>
      <point x="363" y="496" type="curve"/>
      <point x="414" y="495"/>
      <point x="427" y="529"/>
      <point x="427" y="553" type="curve" smooth="yes"/>
      <point x="427" y="593"/>
      <point x="386" y="627"/>
      <point x="302" y="627" type="curve" smooth="yes"/>
      <point x="142" y="627"/>
      <point x="41" y="500"/>
      <point x="41" y="262" type="curve" smooth="yes"/>
      <point x="41" y="86"/>
      <point x="104" y="-15"/>
    </contour>
  </outline>
</glyph>
<glyph name="seven" format="1">
  <advance width="408"/>
  <unicode hex="0037"/>
  <outline>
    <contour>
      <point x="26" y="617" type="line"/>
      <point x="26" y="456" type="line"/>
      <point x="33" y="449"/>
      <point x="80" y="455"/>
      <point x="84" y="482" type="curve" smooth="yes"/>
      <point x="90" y="532" type="line"/>
      <point x="307" y="533" type="line"/>
      <point x="52" y="21" type="line"/>
      <point x="152" y="-13" type="line"/>
      <point x="399" y="567" type="line"/>
      <point x="399" y="584"/>
      <point x="395" y="604"/>
      <point x="388" y="617" type="curve"/>
    </contour>
  </outline>
</glyph>
<glyph name="eight" format="1">
  <advance width="469"/>
  <unicode hex="0038"/>
  <outline>
    <contour>
      <point x="324" y="479" type="curve" smooth="yes"/>
      <point x="324" y="393"/>
      <point x="254" y="347"/>
      <point x="220" y="330" type="curve"/>
      <point x="254" y="303" type="line"/>
      <point x="320" y="328"/>
      <point x="415" y="388"/>
      <point x="415" y="490" type="curve" smooth="yes"/>
      <point x="415" y="574"/>
      <point x="349" y="627"/>
      <point x="252" y="627" type="curve" smooth="yes"/>
      <point x="132" y="627"/>
      <point x="69" y="547"/>
      <point x="69" y="460" type="curve" smooth="yes"/>
      <point x="69" y="346"/>
      <point x="176" y="300"/>
      <point x="245" y="262" type="curve" smooth="yes"/>
      <point x="309" y="227"/>
      <point x="347" y="190"/>
      <point x="347" y="140" type="curve" smooth="yes"/>
      <point x="347" y="89"/>
      <point x="309" y="47"/>
      <point x="239" y="47" type="curve" smooth="yes"/>
      <point x="167" y="47"/>
      <point x="134" y="92"/>
      <point x="134" y="150" type="curve" smooth="yes"/>
      <point x="134" y="215"/>
      <point x="176" y="277"/>
      <point x="243" y="309" type="curve"/>
      <point x="224" y="349" type="line"/>
      <point x="130" y="318"/>
      <point x="34" y="244"/>
      <point x="35" y="141" type="curve" smooth="yes"/>
      <point x="36" y="50"/>
      <point x="114" y="-15"/>
      <point x="225" y="-15" type="curve" smooth="yes"/>
      <point x="366" y="-15"/>
      <point x="439" y="87"/>
      <point x="439" y="177" type="curve" smooth="yes"/>
      <point x="439" y="280"/>
      <point x="342" y="324"/>
      <point x="272" y="365" type="curve" smooth="yes"/>
      <point x="194" y="409"/>
      <point x="162" y="439"/>
      <point x="162" y="485" type="curve" smooth="yes"/>
      <point x="162" y="540"/>
      <point x="203" y="566"/>
      <point x="245" y="566" type="curve" smooth="yes"/>
      <point x="288" y="566"/>
      <point x="324" y="539"/>
    </contour>
  </outline>
</glyph>
<glyph name="nine" format="1">
  <advance width="463"/>
  <unicode hex="0039"/>
  <outline>
    <contour>
      <point x="221" y="627" type="curve" smooth="yes"/>
      <point x="91" y="627"/>
      <point x="14" y="537"/>
      <point x="14" y="421" type="curve" smooth="yes"/>
      <point x="14" y="308"/>
      <point x="87" y="248"/>
      <point x="185" y="248" type="curve" smooth="yes"/>
      <point x="249" y="248"/>
      <point x="312" y="272"/>
      <point x="364" y="318" type="curve"/>
      <point x="357" y="378" type="line"/>
      <point x="324" y="339"/>
      <point x="279" y="317"/>
      <point x="221" y="317" type="curve" smooth="yes"/>
      <point x="162" y="317"/>
      <point x="117" y="348"/>
      <point x="117" y="440" type="curve" smooth="yes"/>
      <point x="117" y="517"/>
      <point x="151" y="562"/>
      <point x="215" y="562" type="curve" smooth="yes"/>
      <point x="283" y="562"/>
      <point x="323" y="509"/>
      <point x="323" y="347" type="curve" smooth="yes"/>
      <point x="323" y="139"/>
      <point x="266" y="48"/>
      <point x="178" y="48" type="curve" smooth="yes"/>
      <point x="130" y="48"/>
      <point x="107" y="76"/>
      <point x="107" y="116" type="curve"/>
      <point x="56" y="118"/>
      <point x="43" y="82"/>
      <point x="43" y="61" type="curve" smooth="yes"/>
      <point x="43" y="17"/>
      <point x="88" y="-15"/>
      <point x="165" y="-15" type="curve" smooth="yes"/>
      <point x="328" y="-15"/>
      <point x="429" y="112"/>
      <point x="429" y="346" type="curve" smooth="yes"/>
      <point x="429" y="526"/>
      <point x="368" y="627"/>
    </contour>
  </outline>
</glyph>
<glyph name="colon" format="1">
  <advance width="238"/>
  <unicode hex="003A"/>
  <outline>
    <contour>
      <point x="119" y="-16" type="curve" smooth="yes"/>
      <point x="160" y="-16"/>
      <point x="191" y="16"/>
      <point x="191" y="57" type="curve" smooth="yes"/>
      <point x="191" y="97"/>
      <point x="160" y="129"/>
      <point x="119" y="129" type="curve" smooth="yes"/>
      <point x="79" y="129"/>
      <point x="47" y="97"/>
      <point x="47" y="57" type="curve" smooth="yes"/>
      <point x="47" y="16"/>
      <point x="79" y="-16"/>
    </contour>
    <contour>
      <point x="119" y="309" type="curve" smooth="yes"/>
      <point x="160" y="309"/>
      <point x="191" y="340"/>
      <point x="191" y="381" type="curve" smooth="yes"/>
      <point x="191" y="422"/>
      <point x="160" y="454"/>
      <point x="119" y="454" type="curve" smooth="yes"/>
      <point x="79" y="454"/>
      <point x="47" y="422"/>
      <point x="47" y="381" type="curve" smooth="yes"/>
      <point x="47" y="340"/>
      <point x="79" y="309"/>
    </contour>
  </outline>
</glyph>
<glyph name="semicolon" format="1">
  <advance width="238"/>
  <unicode hex="003B"/>
  <outline>
    <contour>
      <point x="116" y="330" type="curve" smooth="yes"/>
      <point x="155" y="330"/>
      <point x="185" y="361"/>
      <point x="185" y="400" type="curve" smooth="yes"/>
      <point x="185" y="439"/>
      <point x="155" y="469"/>
      <point x="116" y="469" type="curve" smooth="yes"/>
      <point x="77" y="469"/>
      <point x="47" y="439"/>
      <point x="47" y="400" type="curve" smooth="yes"/>
      <point x="47" y="361"/>
      <point x="77" y="330"/>
    </contour>
    <component base="comma" xOffset="7" yOffset="-13"/>
  </outline>
</glyph>
<glyph name="less" format="1">
  <advance width="487"/>
  <unicode hex="003C"/>
  <outline>
    <contour>
      <point x="33" y="305" type="line"/>
      <point x="33" y="256" type="line"/>
      <point x="394" y="69" type="line"/>
      <point x="430" y="138" type="line"/>
      <point x="95" y="309" type="line"/>
      <point x="95" y="251" type="line"/>
      <point x="434" y="426" type="line"/>
      <point x="397" y="494" type="line"/>
    </contour>
  </outline>
</glyph>
<glyph name="equal" format="1">
  <advance width="497"/>
  <unicode hex="003D"/>
  <outline>
    <contour>
      <point x="50" y="386" type="line"/>
      <point x="50" y="315" type="line"/>
      <point x="447" y="315" type="line"/>
      <point x="447" y="386" type="line"/>
    </contour>
    <contour>
      <point x="50" y="237" type="line"/>
      <point x="50" y="166" type="line"/>
      <point x="447" y="166" type="line"/>
      <point x="447" y="237" type="line"/>
    </contour>
  </outline>
</glyph>
<glyph name="greater" format="1">
  <advance width="481"/>
  <unicode hex="003E"/>
  <outline>
    <contour>
      <point x="448" y="305" type="line"/>
      <point x="448" y="256" type="line"/>
      <point x="86" y="69" type="line"/>
      <point x="50" y="138" type="line"/>
      <point x="386" y="309" type="line"/>
      <point x="386" y="251" type="line"/>
      <point x="47" y="426" type="line"/>
      <point x="83" y="494" type="line"/>
    </contour>
  </outline>
</glyph>
<glyph name="question" format="1">
  <advance width="497"/>
  <unicode hex="003F"/>
  <outline>
    <contour>
      <point x="247" y="713" type="curve" smooth="yes"/>
      <point x="108" y="713"/>
      <point x="43" y="635"/>
      <point x="43" y="574" type="curve" smooth="yes"/>
      <point x="43" y="531"/>
      <point x="79" y="515"/>
      <point x="119" y="515" type="curve"/>
      <point x="119" y="559"/>
      <point x="150" y="648"/>
      <point x="242" y="648" type="curve" smooth="yes"/>
      <point x="311" y="648"/>
      <point x="347" y="595"/>
      <point x="347" y="537" type="curve" smooth="yes"/>
      <point x="347" y="443"/>
      <point x="258" y="395"/>
      <point x="166" y="371" type="curve"/>
      <point x="172" y="206" type="line"/>
      <point x="199" y="202"/>
      <point x="224" y="202"/>
      <point x="240" y="206" type="curve"/>
      <point x="246" y="322" type="line"/>
      <point x="357" y="343"/>
      <point x="454" y="426"/>
      <point x="454" y="541" type="curve" smooth="yes"/>
      <point x="454" y="645"/>
      <point x="374" y="713"/>
    </contour>
    <contour>
      <point x="206" y="124" type="curve" smooth="yes"/>
      <point x="167" y="124"/>
      <point x="137" y="93"/>
      <point x="137" y="54" type="curve" smooth="yes"/>
      <point x="137" y="16"/>
      <point x="167" y="-15"/>
      <point x="206" y="-15" type="curve" smooth="yes"/>
      <point x="245" y="-15"/>
      <point x="275" y="16"/>
      <point x="275" y="54" type="curve" smooth="yes"/>
      <point x="275" y="93"/>
      <point x="245" y="124"/>
    </contour>
  </outline>
</glyph>
<glyph name="at" format="1">
  <advance width="1013"/>
  <unicode hex="0040"/>
  <outline>
    <contour>
      <point x="534" y="684" type="curve" smooth="yes"/>
      <point x="258" y="684"/>
      <point x="75" y="510"/>
      <point x="75" y="248" type="curve" smooth="yes"/>
      <point x="75" y="0"/>
      <point x="255" y="-165"/>
      <point x="527" y="-165" type="curve" smooth="yes"/>
      <point x="627" y="-165"/>
      <point x="707" y="-141"/>
      <point x="774" y="-105" type="curve"/>
      <point x="762" y="-49" type="line"/>
      <point x="701" y="-89"/>
      <point x="614" y="-104"/>
      <point x="539" y="-104" type="curve" smooth="yes"/>
      <point x="302" y="-104"/>
      <point x="144" y="38"/>
      <point x="144" y="250" type="curve" smooth="yes"/>
      <point x="144" y="474"/>
      <point x="300" y="623"/>
      <point x="534" y="623" type="curve" smooth="yes"/>
      <point x="737" y="623"/>
      <point x="872" y="514"/>
      <point x="872" y="350" type="curve" smooth="yes"/>
      <point x="872" y="207"/>
      <point x="788" y="113"/>
      <point x="662" y="115" type="curve"/>
      <point x="713" y="480" type="line"/>
      <point x="613" y="473" type="line"/>
      <point x="563" y="113" type="line"/>
      <point x="559" y="64"/>
      <point x="586" y="53"/>
      <point x="639" y="53" type="curve" smooth="yes"/>
      <point x="819" y="53"/>
      <point x="939" y="177"/>
      <point x="939" y="362" type="curve" smooth="yes"/>
      <point x="939" y="555"/>
      <point x="776" y="684"/>
    </contour>
    <contour>
      <point x="516" y="489" type="curve" smooth="yes"/>
      <point x="377" y="489"/>
      <point x="299" y="388"/>
      <point x="283" y="252" type="curve" smooth="yes"/>
      <point x="266" y="102"/>
      <point x="342" y="49"/>
      <point x="430" y="49" type="curve" smooth="yes"/>
      <point x="510" y="49"/>
      <point x="559" y="93"/>
      <point x="605" y="138" type="curve"/>
      <point x="603" y="193" type="line"/>
      <point x="550" y="148"/>
      <point x="517" y="122"/>
      <point x="469" y="122" type="curve" smooth="yes"/>
      <point x="395" y="122"/>
      <point x="372" y="183"/>
      <point x="385" y="269" type="curve" smooth="yes"/>
      <point x="395" y="336"/>
      <point x="429" y="425"/>
      <point x="514" y="425" type="curve" smooth="yes"/>
      <point x="567" y="425"/>
      <point x="605" y="392"/>
      <point x="615" y="373" type="curve"/>
      <point x="660" y="439" type="line"/>
      <point x="613" y="471"/>
      <point x="575" y="489"/>
    </contour>
  </outline>
</glyph>
<glyph name="B" format="1">
  <advance width="574"/>
  <unicode hex="0042"/>
  <outline>
    <contour>
      <point x="221" y="647" type="line"/>
      <point x="116" y="647" type="line"/>
      <point x="116" y="0" type="line"/>
      <point x="221" y="0" type="line"/>
    </contour>
    <contour>
      <point x="302" y="0" type="line"/>
      <point x="460" y="0"/>
      <point x="550" y="77"/>
      <point x="549" y="205" type="curve" smooth="yes"/>
      <point x="549" y="313"/>
      <point x="456" y="363"/>
      <point x="357" y="363" type="curve"/>
      <point x="357" y="348" type="line"/>
      <point x="459" y="370"/>
      <point x="518" y="431"/>
      <point x="518" y="521" type="curve" smooth="yes"/>
      <point x="518" y="601"/>
      <point x="460" y="683"/>
      <point x="297" y="683" type="curve" smooth="yes"/>
      <point x="77" y="683" type="line" smooth="yes"/>
      <point x="43" y="683"/>
      <point x="42" y="636"/>
      <point x="43" y="626" type="curve"/>
      <point x="117" y="620" type="line"/>
      <point x="223" y="625" type="line"/>
      <point x="265" y="627" type="line" smooth="yes"/>
      <point x="348" y="633"/>
      <point x="409" y="600"/>
      <point x="409" y="508" type="curve" smooth="yes"/>
      <point x="409" y="428"/>
      <point x="367" y="379"/>
      <point x="250" y="379" type="curve" smooth="yes"/>
      <point x="184" y="379" type="line"/>
      <point x="182" y="324" type="line"/>
      <point x="262" y="325" type="line" smooth="yes"/>
      <point x="380" y="326"/>
      <point x="441" y="290"/>
      <point x="441" y="193" type="curve" smooth="yes"/>
      <point x="441" y="113"/>
      <point x="396" y="61"/>
      <point x="277" y="62" type="curve" smooth="yes"/>
      <point x="201" y="63" type="line"/>
      <point x="117" y="62" type="line"/>
      <point x="78" y="58" type="line" smooth="yes"/>
      <point x="50" y="56"/>
      <point x="43" y="35"/>
      <point x="42" y="0" type="curve"/>
    </contour>
  </outline>
</glyph>
<glyph name="C" format="1">
  <advance width="586"/>
  <unicode hex="0043"/>
  <outline>
    <contour>
      <point x="340" y="682" type="move" name="top"/>
    </contour>
    <contour>
      <point x="335" y="0" type="move" name="bottom"/>
    </contour>
    <contour>
      <point x="357" y="697" type="curve" smooth="yes"/>
      <point x="144" y="697"/>
      <point x="35" y="540"/>
      <point x="37" y="328" type="curve" smooth="yes"/>
      <point x="38" y="117"/>
      <point x="136" y="-15"/>
      <point x="330" y="-15" type="curve" smooth="yes"/>
      <point x="461" y="-15"/>
      <point x="557" y="51"/>
      <point x="557" y="96" type="curve" smooth="yes"/>
      <point x="557" y="106"/>
      <point x="551" y="119"/>
      <point x="542" y="125" type="curve"/>
      <point x="507" y="97"/>
      <point x="445" y="64"/>
      <point x="360" y="64" type="curve" smooth="yes"/>
      <point x="204" y="64"/>
      <point x="146" y="169"/>
      <point x="146" y="343" type="curve" smooth="yes"/>
      <point x="146" y="504"/>
      <point x="214" y="623"/>
      <point x="346" y="623" type="curve" smooth="yes"/>
      <point x="424" y="623"/>
      <point x="465" y="576"/>
      <point x="465" y="493" type="curve"/>
      <point x="518" y="493"/>
      <point x="550" y="519"/>
      <point x="550" y="567" type="curve" smooth="yes"/>
      <point x="550" y="638"/>
      <point x="472" y="697"/>
    </contour>
  </outline>
</glyph>
<glyph name="D" format="1">
  <advance width="694"/>
  <unicode hex="0044"/>
  <outline>
    <contour>
      <point x="309" y="683" type="move" name="top"/>
    </contour>
    <contour>
      <point x="219" y="653" type="line"/>
      <point x="114" y="655" type="line"/>
      <point x="114" y="0" type="line"/>
      <point x="219" y="0" type="line"/>
    </contour>
    <contour>
      <point x="219" y="64" type="line"/>
      <point x="114" y="62" type="line"/>
      <point x="74" y="58" type="line" smooth="yes"/>
      <point x="43" y="56"/>
      <point x="40" y="23"/>
      <point x="41" y="0" type="curve"/>
      <point x="314" y="0" type="line" smooth="yes"/>
      <point x="532" y="0"/>
      <point x="658" y="119"/>
      <point x="658" y="346" type="curve" smooth="yes"/>
      <point x="658" y="574"/>
      <point x="545" y="683"/>
      <point x="311" y="683" type="curve" smooth="yes"/>
      <point x="86" y="683" type="line" smooth="yes"/>
      <point x="48" y="683"/>
      <point x="42" y="659"/>
      <point x="43" y="625" type="curve"/>
      <point x="114" y="619" type="line"/>
      <point x="220" y="620" type="line"/>
      <point x="274" y="622" type="line" smooth="yes"/>
      <point x="462" y="629"/>
      <point x="548" y="549"/>
      <point x="548" y="338" type="curve" smooth="yes"/>
      <point x="548" y="141"/>
      <point x="465" y="53"/>
      <point x="287" y="61" type="curve" smooth="yes"/>
    </contour>
  </outline>
</glyph>
<glyph name="F" format="1">
  <advance width="523"/>
  <unicode hex="0046"/>
  <outline>
    <contour>
      <point x="507" y="682" type="line"/>
      <point x="82" y="682" type="line" smooth="yes"/>
      <point x="38" y="682"/>
      <point x="42" y="635"/>
      <point x="43" y="625" type="curve"/>
      <point x="115" y="619" type="line"/>
      <point x="115" y="61" type="line"/>
      <point x="80" y="59" type="line" smooth="yes"/>
      <point x="36" y="56"/>
      <point x="42" y="10"/>
      <point x="41" y="0" type="curve"/>
      <point x="272" y="0" type="line" smooth="yes"/>
      <point x="316" y="0"/>
      <point x="312" y="47"/>
      <point x="311" y="57" type="curve"/>
      <point x="221" y="63" type="line"/>
      <point x="221" y="312" type="line"/>
      <point x="405" y="302" type="line"/>
      <point x="411" y="330"/>
      <point x="410" y="366"/>
      <point x="404" y="391" type="curve"/>
      <point x="221" y="373" type="line"/>
      <point x="221" y="620" type="line"/>
      <point x="441" y="615" type="line"/>
      <point x="450" y="503" type="line"/>
      <point x="460" y="502"/>
      <point x="507" y="498"/>
      <point x="507" y="538" type="curve" smooth="yes"/>
    </contour>
  </outline>
</glyph>
<glyph name="G" format="1">
  <advance width="662"/>
  <unicode hex="0047"/>
  <outline>
    <contour>
      <point x="347" y="682" type="move" name="top"/>
    </contour>
    <contour>
      <point x="321" y="0" type="move" name="bottom"/>
    </contour>
    <contour>
      <point x="361" y="698" type="curve" smooth="yes"/>
      <point x="144" y="698"/>
      <point x="35" y="542"/>
      <point x="37" y="328" type="curve" smooth="yes"/>
      <point x="38" y="113"/>
      <point x="138" y="-15"/>
      <point x="327" y="-15" type="curve" smooth="yes"/>
      <point x="436" y="-15"/>
      <point x="537" y="25"/>
      <point x="576" y="84" type="curve"/>
      <point x="576" y="272" type="line"/>
      <point x="490" y="275" type="line"/>
      <point x="490" y="103" type="line"/>
      <point x="463" y="78"/>
      <point x="411" y="61"/>
      <point x="357" y="61" type="curve" smooth="yes"/>
      <point x="204" y="61"/>
      <point x="146" y="168"/>
      <point x="146" y="342" type="curve" smooth="yes"/>
      <point x="146" y="514"/>
      <point x="204" y="633"/>
      <point x="349" y="633" type="curve" smooth="yes"/>
      <point x="456" y="633"/>
      <point x="499" y="589"/>
      <point x="499" y="493" type="curve"/>
      <point x="555" y="493"/>
      <point x="585" y="523"/>
      <point x="585" y="568" type="curve" smooth="yes"/>
      <point x="585" y="635"/>
      <point x="516" y="698"/>
    </contour>
    <contour>
      <point x="397" y="312" type="line"/>
      <point x="354" y="312"/>
      <point x="358" y="265"/>
      <point x="359" y="255" type="curve"/>
      <point x="490" y="249" type="line"/>
      <point x="580" y="251" type="line"/>
      <point x="607" y="253" type="line" smooth="yes"/>
      <point x="651" y="257"/>
      <point x="645" y="302"/>
      <point x="646" y="312" type="curve"/>
    </contour>
  </outline>
</glyph>
<glyph name="H" format="1">
  <advance width="746"/>
  <unicode hex="0048"/>
  <outline>
    <contour>
      <point x="374" y="682" type="move" name="top"/>
    </contour>
    <contour>
      <point x="220" y="63" type="line"/>
      <point x="220" y="621" type="line"/>
      <point x="256" y="623" type="line" smooth="yes"/>
      <point x="300" y="626"/>
      <point x="294" y="672"/>
      <point x="295" y="682" type="curve"/>
      <point x="81" y="682" type="line" smooth="yes"/>
      <point x="38" y="682"/>
      <point x="42" y="635"/>
      <point x="43" y="625" type="curve"/>
      <point x="115" y="619" type="line"/>
      <point x="115" y="61" type="line"/>
      <point x="80" y="59" type="line" smooth="yes"/>
      <point x="36" y="56"/>
      <point x="42" y="10"/>
      <point x="41" y="0" type="curve"/>
      <point x="254" y="0" type="line" smooth="yes"/>
      <point x="298" y="0"/>
      <point x="294" y="47"/>
      <point x="293" y="57" type="curve"/>
    </contour>
    <contour>
      <point x="526" y="619" type="line"/>
      <point x="526" y="61" type="line"/>
      <point x="491" y="59" type="line" smooth="yes"/>
      <point x="446" y="56"/>
      <point x="452" y="10"/>
      <point x="451" y="0" type="curve"/>
      <point x="665" y="0" type="line" smooth="yes"/>
      <point x="708" y="0"/>
      <point x="704" y="47"/>
      <point x="703" y="57" type="curve"/>
      <point x="631" y="63" type="line"/>
      <point x="631" y="621" type="line"/>
      <point x="666" y="623" type="line" smooth="yes"/>
      <point x="710" y="626"/>
      <point x="704" y="672"/>
      <point x="705" y="682" type="curve"/>
      <point x="492" y="682" type="line" smooth="yes"/>
      <point x="449" y="682"/>
      <point x="453" y="635"/>
      <point x="454" y="625" type="curve"/>
    </contour>
    <contour>
      <point x="540" y="308" type="line"/>
      <point x="540" y="369" type="line"/>
      <point x="206" y="369" type="line"/>
      <point x="206" y="308" type="line"/>
    </contour>
  </outline>
</glyph>
<glyph name="I" format="1">
  <advance width="335"/>
  <unicode hex="0049"/>
  <outline>
    <contour>
      <point x="169" y="682" type="move" name="top"/>
    </contour>
    <contour>
      <point x="236" y="-9" type="move" name="ogonek"/>
    </contour>
    <contour>
      <point x="220" y="652" type="line"/>
      <point x="115" y="654" type="line"/>
      <point x="115" y="0" type="line"/>
      <point x="220" y="0" type="line"/>
    </contour>
    <contour>
      <point x="221" y="63" type="line"/>
      <point x="115" y="61" type="line"/>
      <point x="80" y="59" type="line" smooth="yes"/>
      <point x="36" y="56"/>
      <point x="42" y="10"/>
      <point x="41" y="0" type="curve"/>
      <point x="254" y="0" type="line" smooth="yes"/>
      <point x="298" y="0"/>
      <point x="294" y="47"/>
      <point x="293" y="57" type="curve"/>
    </contour>
    <contour>
      <point x="115" y="619" type="line"/>
      <point x="220" y="621" type="line"/>
      <point x="256" y="623" type="line" smooth="yes"/>
      <point x="300" y="626"/>
      <point x="294" y="672"/>
      <point x="295" y="682" type="curve"/>
      <point x="81" y="682" type="line" smooth="yes"/>
      <point x="38" y="682"/>
      <point x="42" y="635"/>
      <point x="43" y="625" type="curve"/>
    </contour>
  </outline>
</glyph>
<glyph name="J" format="1">
  <advance width="379"/>
  <unicode hex="004A"/>
  <outline>
    <contour>
      <point x="227" y="682" type="move" name="top"/>
    </contour>
    <contour>
      <point x="281" y="653" type="line"/>
      <point x="176" y="655" type="line"/>
      <point x="176" y="128" type="line" smooth="yes"/>
      <point x="176" y="34"/>
      <point x="159" y="10"/>
      <point x="131" y="10" type="curve" smooth="yes"/>
      <point x="96" y="10"/>
      <point x="82" y="37"/>
      <point x="81" y="78" type="curve"/>
      <point x="29" y="79"/>
      <point x="10" y="48"/>
      <point x="10" y="12" type="curve" smooth="yes"/>
      <point x="10" y="-28"/>
      <point x="49" y="-63"/>
      <point x="107" y="-63" type="curve" smooth="yes"/>
      <point x="215" y="-63"/>
      <point x="281" y="22"/>
      <point x="281" y="136" type="curve" smooth="yes"/>
    </contour>
    <contour>
      <point x="137" y="682" type="line"/>
      <point x="94" y="682"/>
      <point x="98" y="635"/>
      <point x="99" y="625" type="curve"/>
      <point x="175" y="619" type="line"/>
      <point x="281" y="621" type="line"/>
      <point x="314" y="623" type="line" smooth="yes"/>
      <point x="359" y="626"/>
      <point x="353" y="672"/>
      <point x="354" y="682" type="curve"/>
    </contour>
  </outline>
</glyph>
<glyph name="K" format="1">
  <advance width="626"/>
  <unicode hex="004B"/>
  <outline>
    <contour>
      <point x="336" y="682" type="move" name="top"/>
    </contour>
    <contour>
      <point x="325" y="0" type="move" name="bottom"/>
    </contour>
    <contour>
      <point x="415" y="682" type="line"/>
      <point x="371" y="682"/>
      <point x="375" y="635"/>
      <point x="376" y="625" type="curve"/>
      <point x="441" y="620" type="line"/>
      <point x="220" y="339" type="line"/>
      <point x="220" y="621" type="line"/>
      <point x="256" y="623" type="line" smooth="yes"/>
      <point x="300" y="626"/>
      <point x="294" y="672"/>
      <point x="295" y="682" type="curve"/>
      <point x="81" y="682" type="line" smooth="yes"/>
      <point x="38" y="682"/>
      <point x="42" y="635"/>
      <point x="43" y="625" type="curve"/>
      <point x="115" y="619" type="line"/>
      <point x="115" y="61" type="line"/>
      <point x="80" y="59" type="line" smooth="yes"/>
      <point x="36" y="56"/>
      <point x="42" y="10"/>
      <point x="41" y="0" type="curve"/>
      <point x="261" y="0" type="line" smooth="yes"/>
      <point x="305" y="0"/>
      <point x="301" y="47"/>
      <point x="300" y="57" type="curve"/>
      <point x="220" y="63" type="line"/>
      <point x="220" y="245" type="line"/>
      <point x="257" y="290" type="line"/>
      <point x="460" y="0" type="line"/>
      <point x="569" y="0" type="line" smooth="yes"/>
      <point x="607" y="0"/>
      <point x="614" y="44"/>
      <point x="608" y="56" type="curve"/>
      <point x="545" y="62" type="line"/>
      <point x="325" y="375" type="line"/>
      <point x="523" y="621" type="line"/>
      <point x="563" y="623" type="line" smooth="yes"/>
      <point x="605" y="625"/>
      <point x="601" y="672"/>
      <point x="602" y="682" type="curve"/>
    </contour>
  </outline>
</glyph>
<glyph name="M" format="1">
  <advance width="859"/>
  <unicode hex="004D"/>
  <outline>
    <contour>
      <point x="604" y="683" type="line"/>
      <point x="420" y="216" type="line"/>
      <point x="459" y="217" type="line"/>
      <point x="252" y="683" type="line"/>
      <point x="101" y="683" type="line" smooth="yes"/>
      <point x="58" y="683"/>
      <point x="62" y="635"/>
      <point x="63" y="625" type="curve"/>
      <point x="132" y="619" type="line"/>
      <point x="93" y="61" type="line"/>
      <point x="51" y="59" type="line" smooth="yes"/>
      <point x="7" y="56"/>
      <point x="13" y="10"/>
      <point x="12" y="0" type="curve"/>
      <point x="207" y="0" type="line" smooth="yes"/>
      <point x="250" y="0"/>
      <point x="246" y="47"/>
      <point x="245" y="57" type="curve"/>
      <point x="167" y="63" type="line"/>
      <point x="203" y="590" type="line"/>
      <point x="180" y="586" type="line"/>
      <point x="394" y="110" type="line"/>
      <point x="411" y="106"/>
      <point x="433" y="109"/>
      <point x="450" y="114" type="curve"/>
      <point x="648" y="598" type="line"/>
      <point x="630" y="601" type="line"/>
      <point x="669" y="61" type="line"/>
      <point x="636" y="59" type="line" smooth="yes"/>
      <point x="592" y="56"/>
      <point x="598" y="10"/>
      <point x="597" y="0" type="curve"/>
      <point x="808" y="0" type="line" smooth="yes"/>
      <point x="851" y="0"/>
      <point x="847" y="47"/>
      <point x="846" y="57" type="curve"/>
      <point x="776" y="64" type="line"/>
      <point x="734" y="619" type="line"/>
      <point x="804" y="625" type="line"/>
      <point x="805" y="635"/>
      <point x="809" y="683"/>
      <point x="765" y="683" type="curve" smooth="yes"/>
    </contour>
  </outline>
</glyph>
<glyph name="N" format="1">
  <advance width="690"/>
  <unicode hex="004E"/>
  <outline>
    <contour>
      <point x="348" y="682" type="move" name="top"/>
    </contour>
    <contour>
      <point x="353" y="0" type="move" name="bottom"/>
    </contour>
    <contour>
      <point x="496" y="682" type="line"/>
      <point x="452" y="682"/>
      <point x="456" y="635"/>
      <point x="457" y="625" type="curve"/>
      <point x="529" y="619" type="line"/>
      <point x="529" y="149" type="line"/>
      <point x="551" y="156" type="line"/>
      <point x="203" y="682" type="line"/>
      <point x="81" y="682" type="line" smooth="yes"/>
      <point x="38" y="682"/>
      <point x="42" y="635"/>
      <point x="43" y="625" type="curve"/>
      <point x="115" y="619" type="line"/>
      <point x="115" y="61" type="line"/>
      <point x="80" y="59" type="line" smooth="yes"/>
      <point x="36" y="56"/>
      <point x="42" y="10"/>
      <point x="41" y="0" type="curve"/>
      <point x="217" y="0" type="line" smooth="yes"/>
      <point x="260" y="0"/>
      <point x="256" y="47"/>
      <point x="255" y="57" type="curve"/>
      <point x="183" y="63" type="line"/>
      <point x="183" y="568" type="line"/>
      <point x="158" y="560" type="line"/>
      <point x="529" y="-1" type="line"/>
      <point x="555" y="-1"/>
      <point x="578" y="4"/>
      <point x="596" y="12" type="curve"/>
      <point x="596" y="621" type="line"/>
      <point x="632" y="623" type="line" smooth="yes"/>
      <point x="676" y="626"/>
      <point x="670" y="672"/>
      <point x="671" y="682" type="curve"/>
    </contour>
  </outline>
</glyph>
<glyph name="P" format="1">
  <advance width="576"/>
  <unicode hex="0050"/>
  <outline>
    <contour>
      <point x="76" y="683" type="line"/>
      <point x="48" y="683"/>
      <point x="41" y="651"/>
      <point x="42" y="627" type="curve"/>
      <point x="115" y="621" type="line"/>
      <point x="115" y="61" type="line"/>
      <point x="80" y="59" type="line" smooth="yes"/>
      <point x="36" y="56"/>
      <point x="42" y="10"/>
      <point x="41" y="0" type="curve"/>
      <point x="263" y="0" type="line" smooth="yes"/>
      <point x="307" y="0"/>
      <point x="303" y="47"/>
      <point x="302" y="57" type="curve"/>
      <point x="220" y="63" type="line"/>
      <point x="220" y="626" type="line"/>
      <point x="282" y="628" type="line" smooth="yes"/>
      <point x="390" y="633"/>
      <point x="446" y="580"/>
      <point x="446" y="481" type="curve" smooth="yes"/>
      <point x="446" y="376"/>
      <point x="381" y="318"/>
      <point x="262" y="318" type="curve" smooth="yes"/>
      <point x="246" y="318"/>
      <point x="223" y="318"/>
      <point x="206" y="319" type="curve"/>
      <point x="207" y="263" type="line"/>
      <point x="226" y="262"/>
      <point x="253" y="262"/>
      <point x="273" y="262" type="curve" smooth="yes"/>
      <point x="445" y="262"/>
      <point x="556" y="338"/>
      <point x="556" y="490" type="curve" smooth="yes"/>
      <point x="556" y="606"/>
      <point x="468" y="683"/>
      <point x="301" y="683" type="curve" smooth="yes"/>
    </contour>
  </outline>
</glyph>
<glyph name="Q" format="1">
  <advance width="676"/>
  <unicode hex="0051"/>
  <outline>
    <contour>
      <point x="247" y="-2" type="line"/>
      <point x="327" y="-49"/>
      <point x="468" y="-141"/>
      <point x="558" y="-141" type="curve" smooth="yes"/>
      <point x="603" y="-141"/>
      <point x="638" y="-114"/>
      <point x="638" y="-79" type="curve" smooth="yes"/>
      <point x="638" y="-61"/>
      <point x="635" y="-52"/>
      <point x="630" y="-46" type="curve"/>
      <point x="613" y="-57"/>
      <point x="591" y="-62"/>
      <point x="579" y="-62" type="curve" smooth="yes"/>
      <point x="527" y="-62"/>
      <point x="395" y="-22"/>
      <point x="302" y="28" type="curve"/>
    </contour>
    <component base="O"/>
  </outline>
</glyph>
<glyph name="T" format="1">
  <advance width="623"/>
  <unicode hex="0054"/>
  <outline>
    <contour>
      <point x="317" y="682" type="move" name="top"/>
    </contour>
    <contour>
      <point x="314" y="0" type="move" name="bottom"/>
    </contour>
    <contour>
      <point x="349" y="64" type="line"/>
      <point x="275" y="62" type="line"/>
      <point x="217" y="59" type="line" smooth="yes"/>
      <point x="173" y="56"/>
      <point x="179" y="10"/>
      <point x="178" y="0" type="curve"/>
      <point x="406" y="0" type="line" smooth="yes"/>
      <point x="449" y="0"/>
      <point x="445" y="47"/>
      <point x="444" y="57" type="curve"/>
    </contour>
    <contour>
      <point x="85" y="616" type="line"/>
      <point x="538" y="616" type="line"/>
      <point x="547" y="511" type="line"/>
      <point x="565" y="511"/>
      <point x="603" y="509"/>
      <point x="603" y="549" type="curve" smooth="yes"/>
      <point x="603" y="682" type="line"/>
      <point x="20" y="682" type="line"/>
      <point x="20" y="549" type="line" smooth="yes"/>
      <point x="20" y="509"/>
      <point x="58" y="511"/>
      <point x="77" y="511" type="curve"/>
    </contour>
    <contour>
      <point x="260" y="45" type="line"/>
      <point x="364" y="47" type="line"/>
      <point x="364" y="632" type="line"/>
      <point x="260" y="632" type="line"/>
    </contour>
  </outline>
</glyph>
<glyph name="U" format="1">
  <advance width="660"/>
  <unicode hex="0055"/>
  <outline>
    <contour>
      <point x="335" y="682" type="move" name="top"/>
    </contour>
    <contour>
      <point x="543" y="5" type="move" name="ogonek"/>
    </contour>
    <contour>
      <point x="468" y="682" type="line"/>
      <point x="425" y="682"/>
      <point x="429" y="635"/>
      <point x="430" y="625" type="curve"/>
      <point x="501" y="619" type="line"/>
      <point x="502" y="255" type="line" smooth="yes"/>
      <point x="502" y="113"/>
      <point x="439" y="55"/>
      <point x="338" y="55" type="curve" smooth="yes"/>
      <point x="235" y="55"/>
      <point x="192" y="119"/>
      <point x="192" y="264" type="curve" smooth="yes"/>
      <point x="193" y="621" type="line"/>
      <point x="228" y="623" type="line" smooth="yes"/>
      <point x="272" y="626"/>
      <point x="266" y="672"/>
      <point x="267" y="682" type="curve"/>
      <point x="54" y="682" type="line" smooth="yes"/>
      <point x="11" y="682"/>
      <point x="15" y="635"/>
      <point x="16" y="625" type="curve"/>
      <point x="88" y="619" type="line"/>
      <point x="88" y="272" type="line" smooth="yes"/>
      <point x="88" y="67"/>
      <point x="172" y="-15"/>
      <point x="323" y="-15" type="curve" smooth="yes"/>
      <point x="492" y="-15"/>
      <point x="572" y="82"/>
      <point x="572" y="276" type="curve" smooth="yes"/>
      <point x="572" y="621" type="line"/>
      <point x="607" y="623" type="line" smooth="yes"/>
      <point x="651" y="626"/>
      <point x="645" y="672"/>
      <point x="646" y="682" type="curve"/>
    </contour>
  </outline>
</glyph>
<glyph name="V" format="1">
  <advance width="634"/>
  <unicode hex="0056"/>
  <outline>
    <contour>
      <point x="46" y="670" type="line"/>
      <point x="269" y="0" type="line"/>
      <point x="352" y="0" type="line"/>
      <point x="586" y="670" type="line"/>
      <point x="508" y="664" type="line"/>
      <point x="296" y="30" type="line"/>
      <point x="343" y="89" type="line"/>
      <point x="164" y="670" type="line"/>
    </contour>
    <contour>
      <point x="496" y="619" type="line"/>
      <point x="568" y="621" type="line"/>
      <point x="592" y="623" type="line" smooth="yes"/>
      <point x="637" y="627"/>
      <point x="631" y="672"/>
      <point x="632" y="682" type="curve"/>
      <point x="455" y="682" type="line" smooth="yes"/>
      <point x="413" y="682"/>
      <point x="416" y="635"/>
      <point x="417" y="625" type="curve"/>
    </contour>
    <contour>
      <point x="64" y="619" type="line"/>
      <point x="178" y="621" type="line"/>
      <point x="215" y="623" type="line" smooth="yes"/>
      <point x="258" y="626"/>
      <point x="253" y="672"/>
      <point x="254" y="682" type="curve"/>
      <point x="41" y="682" type="line" smooth="yes"/>
      <point x="-3" y="682"/>
      <point x="2" y="635"/>
      <point x="3" y="625" type="curve"/>
    </contour>
  </outline>
</glyph>
<glyph name="W" format="1">
  <advance width="961"/>
  <unicode hex="0057"/>
  <outline>
    <contour>
      <point x="507" y="682" type="move" name="top"/>
    </contour>
    <contour>
      <point x="793" y="682" type="line"/>
      <point x="750" y="682"/>
      <point x="754" y="635"/>
      <point x="755" y="625" type="curve"/>
      <point x="826" y="619" type="line"/>
      <point x="668" y="88" type="line"/>
      <point x="692" y="88" type="line"/>
      <point x="538" y="616" type="line"/>
      <point x="464" y="616" type="line"/>
      <point x="290" y="85" type="line"/>
      <point x="317" y="85" type="line"/>
      <point x="175" y="621" type="line"/>
      <point x="209" y="623" type="line" smooth="yes"/>
      <point x="253" y="627"/>
      <point x="247" y="672"/>
      <point x="248" y="682" type="curve"/>
      <point x="40" y="682" type="line" smooth="yes"/>
      <point x="-3" y="682"/>
      <point x="2" y="635"/>
      <point x="3" y="625" type="curve"/>
      <point x="59" y="619" type="line"/>
      <point x="243" y="0" type="line"/>
      <point x="333" y="0" type="line"/>
      <point x="498" y="483" type="line"/>
      <point x="464" y="484" type="line"/>
      <point x="619" y="0" type="line"/>
      <point x="708" y="0" type="line"/>
      <point x="905" y="621" type="line"/>
      <point x="923" y="623" type="line" smooth="yes"/>
      <point x="967" y="628"/>
      <point x="958" y="672"/>
      <point x="959" y="682" type="curve"/>
    </contour>
  </outline>
</glyph>
<glyph name="X" format="1">
  <advance width="664"/>
  <unicode hex="0058"/>
  <outline>
    <contour>
      <point x="300" y="363" type="line"/>
      <point x="71" y="32" type="line"/>
      <point x="157" y="27" type="line"/>
      <point x="354" y="334" type="line"/>
    </contour>
    <contour>
      <point x="182" y="655" type="line"/>
      <point x="60" y="648" type="line"/>
      <point x="477" y="33" type="line"/>
      <point x="599" y="40" type="line"/>
    </contour>
    <contour>
      <point x="496" y="637" type="line"/>
      <point x="303" y="335" type="line"/>
      <point x="358" y="306" type="line"/>
      <point x="586" y="638" type="line"/>
    </contour>
    <contour>
      <point x="218" y="0" type="line"/>
      <point x="261" y="0"/>
      <point x="257" y="47"/>
      <point x="256" y="57" type="curve"/>
      <point x="181" y="63" type="line"/>
      <point x="91" y="61" type="line"/>
      <point x="56" y="59" type="line" smooth="yes"/>
      <point x="11" y="56"/>
      <point x="17" y="10"/>
      <point x="16" y="0" type="curve"/>
    </contour>
    <contour>
      <point x="487" y="619" type="line"/>
      <point x="577" y="622" type="line"/>
      <point x="608" y="624" type="line" smooth="yes"/>
      <point x="652" y="627"/>
      <point x="646" y="673"/>
      <point x="647" y="683" type="curve"/>
      <point x="449" y="683" type="line" smooth="yes"/>
      <point x="405" y="683"/>
      <point x="409" y="635"/>
      <point x="410" y="625" type="curve"/>
    </contour>
    <contour>
      <point x="583" y="63" type="line"/>
      <point x="456" y="61" type="line"/>
      <point x="425" y="59" type="line" smooth="yes"/>
      <point x="382" y="56"/>
      <point x="387" y="10"/>
      <point x="386" y="0" type="curve"/>
      <point x="613" y="0" type="line" smooth="yes"/>
      <point x="657" y="0"/>
      <point x="653" y="47"/>
      <point x="652" y="57" type="curve"/>
    </contour>
    <contour>
      <point x="81" y="619" type="line"/>
      <point x="205" y="621" type="line"/>
      <point x="238" y="624" type="line" smooth="yes"/>
      <point x="282" y="627"/>
      <point x="276" y="673"/>
      <point x="277" y="683" type="curve"/>
      <point x="51" y="683" type="line" smooth="yes"/>
      <point x="8" y="683"/>
      <point x="12" y="635"/>
      <point x="13" y="625" type="curve"/>
    </contour>
  </outline>
</glyph>
<glyph name="Y" format="1">
  <advance width="619"/>
  <unicode hex="0059"/>
  <outline>
    <contour>
      <point x="324" y="682" type="move" name="top"/>
    </contour>
    <contour>
      <point x="363" y="321" type="line"/>
      <point x="258" y="323" type="line"/>
      <point x="258" y="0" type="line"/>
      <point x="363" y="0" type="line"/>
    </contour>
    <contour>
      <point x="364" y="63" type="line"/>
      <point x="258" y="61" type="line"/>
      <point x="222" y="59" type="line" smooth="yes"/>
      <point x="178" y="56"/>
      <point x="184" y="10"/>
      <point x="183" y="0" type="curve"/>
      <point x="397" y="0" type="line" smooth="yes"/>
      <point x="441" y="0"/>
      <point x="437" y="47"/>
      <point x="436" y="57" type="curve"/>
    </contour>
    <contour>
      <point x="41" y="660" type="line"/>
      <point x="270" y="259" type="line"/>
      <point x="350" y="259" type="line"/>
      <point x="582" y="671" type="line"/>
      <point x="500" y="665" type="line"/>
      <point x="296" y="290" type="line"/>
      <point x="350" y="324" type="line"/>
      <point x="160" y="666" type="line"/>
    </contour>
    <contour>
      <point x="480" y="619" type="line"/>
      <point x="553" y="621" type="line"/>
      <point x="577" y="624" type="line" smooth="yes"/>
      <point x="621" y="628"/>
      <point x="615" y="673"/>
      <point x="616" y="683" type="curve"/>
      <point x="439" y="683" type="line" smooth="yes"/>
      <point x="396" y="683"/>
      <point x="400" y="635"/>
      <point x="401" y="625" type="curve"/>
    </contour>
    <contour>
      <point x="64" y="619" type="line"/>
      <point x="186" y="621" type="line"/>
      <point x="223" y="624" type="line" smooth="yes"/>
      <point x="267" y="626"/>
      <point x="261" y="673"/>
      <point x="262" y="683" type="curve"/>
      <point x="41" y="683" type="line" smooth="yes"/>
      <point x="-3" y="683"/>
      <point x="2" y="635"/>
      <point x="3" y="625" type="curve"/>
    </contour>
  </outline>
</glyph>
<glyph name="bracketleft" format="1">
  <advance width="261"/>
  <unicode hex="005B"/>
  <outline>
    <contour>
      <point x="157" y="662" type="line"/>
      <point x="237" y="662" type="line"/>
      <point x="237" y="719" type="line"/>
      <point x="74" y="719" type="line"/>
      <point x="74" y="-163" type="line"/>
      <point x="237" y="-163" type="line"/>
      <point x="237" y="-105" type="line"/>
      <point x="157" y="-105" type="line"/>
    </contour>
  </outline>
</glyph>
<glyph name="asciicircum" format="1">
  <advance width="506"/>
  <unicode hex="005E"/>
  <outline>
    <contour>
      <point x="284" y="653" type="line"/>
      <point x="232" y="653" type="line"/>
      <point x="57" y="204" type="line"/>
      <point x="148" y="204" type="line"/>
      <point x="276" y="539" type="line"/>
      <point x="237" y="539" type="line"/>
      <point x="359" y="204" type="line"/>
      <point x="449" y="204" type="line"/>
    </contour>
  </outline>
</glyph>
<glyph name="underscore" format="1">
  <advance width="394"/>
  <unicode hex="005F"/>
  <outline>
    <contour>
      <point x="-33" y="-76" type="line"/>
      <point x="-33" y="-143" type="line"/>
      <point x="427" y="-143" type="line"/>
      <point x="427" y="-76" type="line"/>
    </contour>
  </outline>
</glyph>
<glyph name="a" format="1">
  <advance width="514"/>
  <unicode hex="0061"/>
  <outline>
    <contour>
      <point x="242" y="499" type="move" name="top"/>
    </contour>
    <contour>
      <point x="426" y="-18" type="move" name="ogonek"/>
    </contour>
    <contour>
      <point x="237" y="514" type="curve" smooth="yes"/>
      <point x="135" y="514"/>
      <point x="66" y="468"/>
      <point x="66" y="408" type="curve" smooth="yes"/>
      <point x="66" y="364"/>
      <point x="103" y="346"/>
      <point x="145" y="350" type="curve"/>
      <point x="147" y="403"/>
      <point x="179" y="445"/>
      <point x="234" y="445" type="curve" smooth="yes"/>
      <point x="300" y="445"/>
      <point x="333" y="405"/>
      <point x="333" y="318" type="curve" smooth="yes"/>
      <point x="333" y="81" type="line" smooth="yes"/>
      <point x="333" y="29"/>
      <point x="354" y="-15"/>
      <point x="426" y="-15" type="curve" smooth="yes"/>
      <point x="481" y="-15"/>
      <point x="501" y="10"/>
      <point x="501" y="40" type="curve"/>
      <point x="435" y="48" type="line"/>
      <point x="435" y="324" type="line" smooth="yes"/>
      <point x="435" y="470"/>
      <point x="340" y="514"/>
    </contour>
    <contour>
      <point x="241" y="270" type="curve" smooth="yes"/>
      <point x="86" y="270"/>
      <point x="36" y="197"/>
      <point x="36" y="122" type="curve" smooth="yes"/>
      <point x="36" y="36"/>
      <point x="98" y="-15"/>
      <point x="190" y="-15" type="curve" smooth="yes"/>
      <point x="275" y="-15"/>
      <point x="340" y="29"/>
      <point x="382" y="87" type="curve"/>
      <point x="377" y="133" type="line"/>
      <point x="335" y="89"/>
      <point x="289" y="56"/>
      <point x="225" y="56" type="curve" smooth="yes"/>
      <point x="173" y="56"/>
      <point x="144" y="84"/>
      <point x="144" y="131" type="curve" smooth="yes"/>
      <point x="144" y="183"/>
      <point x="185" y="209"/>
      <point x="243" y="209" type="curve" smooth="yes"/>
      <point x="311" y="209"/>
      <point x="370" y="183"/>
      <point x="401" y="143" type="curve"/>
      <point x="397" y="240" type="line"/>
      <point x="361" y="260"/>
      <point x="303" y="270"/>
    </contour>
  </outline>
</glyph>
<glyph name="b" format="1">
  <advance width="574"/>
  <unicode hex="0062"/>
  <outline>
    <contour>
      <point x="338" y="514" type="curve" smooth="yes"/>
      <point x="244" y="514"/>
      <point x="191" y="460"/>
      <point x="145" y="409" type="curve"/>
      <point x="155" y="351" type="line"/>
      <point x="211" y="407"/>
      <point x="246" y="438"/>
      <point x="303" y="438" type="curve" smooth="yes"/>
      <point x="392" y="438"/>
      <point x="430" y="360"/>
      <point x="430" y="250" type="curve" smooth="yes"/>
      <point x="430" y="154"/>
      <point x="404" y="56"/>
      <point x="304" y="56" type="curve" smooth="yes"/>
      <point x="240" y="56"/>
      <point x="189" y="96"/>
      <point x="174" y="117" type="curve"/>
      <point x="147" y="29" type="line"/>
      <point x="191" y="3"/>
      <point x="228" y="-15"/>
      <point x="293" y="-15" type="curve" smooth="yes"/>
      <point x="457" y="-15"/>
      <point x="540" y="106"/>
      <point x="537" y="272" type="curve" smooth="yes"/>
      <point x="534" y="449"/>
      <point x="435" y="514"/>
    </contour>
    <contour>
      <point x="190" y="709" type="line"/>
      <point x="13" y="688" type="line"/>
      <point x="12" y="675"/>
      <point x="12" y="637"/>
      <point x="44" y="633" type="curve" smooth="yes"/>
      <point x="89" y="629" type="line"/>
      <point x="89" y="39" type="line"/>
      <point x="190" y="6" type="line"/>
    </contour>
  </outline>
</glyph>
<glyph name="c" format="1">
  <advance width="465"/>
  <unicode hex="0063"/>
  <outline>
    <contour>
      <point x="269" y="499" type="move" name="top"/>
    </contour>
    <contour>
      <point x="280" y="514" type="curve" smooth="yes"/>
      <point x="130" y="514"/>
      <point x="36" y="402"/>
      <point x="37" y="234" type="curve" smooth="yes"/>
      <point x="37" y="84"/>
      <point x="116" y="-15"/>
      <point x="253" y="-15" type="curve" smooth="yes"/>
      <point x="354" y="-15"/>
      <point x="441" y="41"/>
      <point x="441" y="80" type="curve" smooth="yes"/>
      <point x="441" y="90"/>
      <point x="434" y="109"/>
      <point x="423" y="116" type="curve"/>
      <point x="384" y="84"/>
      <point x="342" y="63"/>
      <point x="291" y="63" type="curve" smooth="yes"/>
      <point x="176" y="63"/>
      <point x="143" y="153"/>
      <point x="143" y="254" type="curve" smooth="yes"/>
      <point x="143" y="365"/>
      <point x="185" y="443"/>
      <point x="266" y="443" type="curve" smooth="yes"/>
      <point x="333" y="443"/>
      <point x="358" y="387"/>
      <point x="359" y="341" type="curve"/>
      <point x="391" y="338"/>
      <point x="434" y="353"/>
      <point x="434" y="408" type="curve" smooth="yes"/>
      <point x="434" y="473"/>
      <point x="371" y="514"/>
    </contour>
  </outline>
</glyph>
<glyph name="d" format="1">
  <advance width="564"/>
  <unicode hex="0064"/>
  <outline>
    <contour>
      <point x="486" y="709" type="line"/>
      <point x="308" y="688" type="line"/>
      <point x="307" y="675"/>
      <point x="307" y="637"/>
      <point x="340" y="633" type="curve" smooth="yes"/>
      <point x="384" y="629" type="line"/>
      <point x="384" y="68" type="line" smooth="yes"/>
      <point x="384" y="24"/>
      <point x="407" y="-16"/>
      <point x="476" y="-16" type="curve" smooth="yes"/>
      <point x="534" y="-16"/>
      <point x="551" y="11"/>
      <point x="551" y="42" type="curve"/>
      <point x="486" y="49" type="line"/>
    </contour>
    <contour>
      <point x="427" y="470" type="line"/>
      <point x="384" y="496"/>
      <point x="346" y="514"/>
      <point x="281" y="514" type="curve" smooth="yes"/>
      <point x="117" y="514"/>
      <point x="34" y="393"/>
      <point x="37" y="228" type="curve" smooth="yes"/>
      <point x="40" y="51"/>
      <point x="139" y="-15"/>
      <point x="237" y="-15" type="curve" smooth="yes"/>
      <point x="331" y="-15"/>
      <point x="383" y="39"/>
      <point x="429" y="90" type="curve"/>
      <point x="420" y="148" type="line"/>
      <point x="364" y="93"/>
      <point x="328" y="62"/>
      <point x="272" y="62" type="curve" smooth="yes"/>
      <point x="183" y="62"/>
      <point x="143" y="139"/>
      <point x="143" y="249" type="curve" smooth="yes"/>
      <point x="143" y="345"/>
      <point x="171" y="443"/>
      <point x="270" y="443" type="curve" smooth="yes"/>
      <point x="334" y="443"/>
      <point x="385" y="403"/>
      <point x="401" y="382" type="curve"/>
    </contour>
  </outline>
</glyph>
<glyph name="f" format="1">
  <advance width="366"/>
  <unicode hex="0066"/>
  <outline>
    <contour>
      <point x="284" y="724" type="curve" smooth="yes"/>
      <point x="176" y="722"/>
      <point x="109" y="643"/>
      <point x="109" y="530" type="curve" smooth="yes"/>
      <point x="109" y="0" type="line"/>
      <point x="211" y="0" type="line"/>
      <point x="211" y="541" type="line" smooth="yes"/>
      <point x="211" y="634"/>
      <point x="234" y="663"/>
      <point x="269" y="663" type="curve" smooth="yes"/>
      <point x="295" y="663"/>
      <point x="318" y="645"/>
      <point x="318" y="603" type="curve"/>
      <point x="355" y="603"/>
      <point x="385" y="620"/>
      <point x="385" y="661" type="curve" smooth="yes"/>
      <point x="385" y="707"/>
      <point x="342" y="724"/>
    </contour>
    <contour>
      <point x="210" y="62" type="line"/>
      <point x="109" y="60" type="line"/>
      <point x="75" y="58" type="line" smooth="yes"/>
      <point x="31" y="55"/>
      <point x="37" y="10"/>
      <point x="36" y="0" type="curve"/>
      <point x="273" y="0" type="line" smooth="yes"/>
      <point x="316" y="0"/>
      <point x="312" y="45"/>
      <point x="311" y="56" type="curve"/>
    </contour>
    <contour>
      <point x="79" y="499" type="line"/>
      <point x="41" y="499"/>
      <point x="38" y="465"/>
      <point x="38" y="438" type="curve"/>
      <point x="297" y="438" type="line" smooth="yes"/>
      <point x="340" y="438"/>
      <point x="338" y="486"/>
      <point x="337" y="499" type="curve"/>
    </contour>
  </outline>
</glyph>
<glyph name="g" format="1">
  <advance width="476"/>
  <unicode hex="0067"/>
  <outline>
    <contour>
      <point x="231" y="499" type="move" name="top"/>
    </contour>
    <contour>
      <point x="407" y="335" type="curve" smooth="yes"/>
      <point x="412" y="463"/>
      <point x="321" y="514"/>
      <point x="228" y="514" type="curve" smooth="yes"/>
      <point x="107" y="514"/>
      <point x="35" y="426"/>
      <point x="37" y="320" type="curve" smooth="yes"/>
      <point x="39" y="218"/>
      <point x="109" y="149"/>
      <point x="218" y="149" type="curve" smooth="yes"/>
      <point x="332" y="149"/>
      <point x="402" y="226"/>
    </contour>
    <contour>
      <point x="220" y="212" type="curve" smooth="yes"/>
      <point x="166" y="211"/>
      <point x="134" y="256"/>
      <point x="134" y="329" type="curve" smooth="yes"/>
      <point x="134" y="399"/>
      <point x="164" y="448"/>
      <point x="221" y="449" type="curve" smooth="yes"/>
      <point x="280" y="450"/>
      <point x="309" y="399"/>
      <point x="309" y="331" type="curve" smooth="yes"/>
      <point x="309" y="260"/>
      <point x="276" y="212"/>
    </contour>
    <contour>
      <point x="141" y="200" type="line"/>
      <point x="99" y="160"/>
      <point x="66" y="117"/>
      <point x="66" y="73" type="curve" smooth="yes"/>
      <point x="66" y="3"/>
      <point x="136" y="0"/>
      <point x="227" y="-3" type="curve" smooth="yes"/>
      <point x="326" y="-7"/>
      <point x="391" y="-11"/>
      <point x="391" y="-58" type="curve" smooth="yes"/>
      <point x="391" y="-109"/>
      <point x="330" y="-152"/>
      <point x="232" y="-152" type="curve" smooth="yes"/>
      <point x="145" y="-152"/>
      <point x="96" y="-121"/>
      <point x="96" y="-72" type="curve" smooth="yes"/>
      <point x="96" y="-19"/>
      <point x="155" y="34"/>
      <point x="209" y="64" type="curve"/>
      <point x="182" y="80" type="line"/>
      <point x="113" y="61"/>
      <point x="19" y="-7"/>
      <point x="19" y="-96" type="curve" smooth="yes"/>
      <point x="19" y="-171"/>
      <point x="86" y="-230"/>
      <point x="217" y="-230" type="curve" smooth="yes"/>
      <point x="362" y="-230"/>
      <point x="464" y="-152"/>
      <point x="464" y="-31" type="curve" smooth="yes"/>
      <point x="464" y="63"/>
      <point x="396" y="90"/>
      <point x="257" y="95" type="curve" smooth="yes"/>
      <point x="185" y="97"/>
      <point x="151" y="98"/>
      <point x="150" y="113" type="curve" smooth="yes"/>
      <point x="149" y="124"/>
      <point x="163" y="154"/>
      <point x="192" y="183" type="curve"/>
    </contour>
    <contour>
      <point x="318" y="485" type="line"/>
      <point x="340" y="446" type="line"/>
      <point x="347" y="448"/>
      <point x="438" y="439"/>
      <point x="460" y="451" type="curve"/>
      <point x="476" y="463"/>
      <point x="471" y="509"/>
      <point x="460" y="523" type="curve"/>
    </contour>
  </outline>
</glyph>
<glyph name="h" format="1">
  <advance width="638"/>
  <unicode hex="0068"/>
  <outline>
    <contour>
      <point x="323" y="499" type="move" name="top"/>
    </contour>
    <contour>
      <point x="365" y="514" type="curve" smooth="yes"/>
      <point x="282" y="514"/>
      <point x="237" y="470"/>
      <point x="199" y="434" type="curve"/>
      <point x="206" y="368" type="line"/>
      <point x="247" y="405"/>
      <point x="280" y="428"/>
      <point x="337" y="428" type="curve" smooth="yes"/>
      <point x="403" y="428"/>
      <point x="442" y="396"/>
      <point x="442" y="308" type="curve" smooth="yes"/>
      <point x="442" y="0" type="line"/>
      <point x="544" y="0" type="line"/>
      <point x="543" y="307" type="line" smooth="yes"/>
      <point x="543" y="460"/>
      <point x="451" y="514"/>
    </contour>
    <contour>
      <point x="213" y="62" type="line"/>
      <point x="112" y="60" type="line"/>
      <point x="77" y="58" type="line" smooth="yes"/>
      <point x="33" y="55"/>
      <point x="39" y="10"/>
      <point x="38" y="0" type="curve"/>
      <point x="249" y="0" type="line" smooth="yes"/>
      <point x="292" y="0"/>
      <point x="288" y="46"/>
      <point x="287" y="56" type="curve"/>
    </contour>
    <contour>
      <point x="214" y="708" type="line"/>
      <point x="36" y="687" type="line"/>
      <point x="36" y="674"/>
      <point x="35" y="636"/>
      <point x="68" y="632" type="curve" smooth="yes"/>
      <point x="112" y="628" type="line"/>
      <point x="112" y="0" type="line"/>
      <point x="214" y="0" type="line"/>
    </contour>
    <contour>
      <point x="543" y="62" type="line"/>
      <point x="442" y="60" type="line"/>
      <point x="408" y="58" type="line" smooth="yes"/>
      <point x="364" y="55"/>
      <point x="370" y="10"/>
      <point x="369" y="0" type="curve"/>
      <point x="578" y="0" type="line" smooth="yes"/>
      <point x="622" y="0"/>
      <point x="618" y="46"/>
      <point x="617" y="56" type="curve"/>
    </contour>
  </outline>
</glyph>
<glyph name="j" format="1">
  <advance width="276"/>
  <unicode hex="006A"/>
  <outline>
    <contour>
      <point x="195" y="514" type="line"/>
      <point x="16" y="495" type="line"/>
      <point x="16" y="482"/>
      <point x="16" y="443"/>
      <point x="46" y="441" type="curve" smooth="yes"/>
      <point x="93" y="436" type="line"/>
      <point x="93" y="-29" type="line" smooth="yes"/>
      <point x="93" y="-144"/>
      <point x="66" y="-161"/>
      <point x="30" y="-161" type="curve" smooth="yes"/>
      <point x="1" y="-161"/>
      <point x="-11" y="-138"/>
      <point x="-12" y="-110" type="curve"/>
      <point x="-47" y="-109"/>
      <point x="-75" y="-127"/>
      <point x="-75" y="-164" type="curve" smooth="yes"/>
      <point x="-75" y="-220"/>
      <point x="-17" y="-230"/>
      <point x="6" y="-230" type="curve" smooth="yes"/>
      <point x="120" y="-231"/>
      <point x="195" y="-139"/>
      <point x="195" y="50" type="curve" smooth="yes"/>
    </contour>
    <contour>
      <point x="137" y="701" type="curve" smooth="yes"/>
      <point x="100" y="701"/>
      <point x="72" y="673"/>
      <point x="72" y="637" type="curve" smooth="yes"/>
      <point x="72" y="600"/>
      <point x="100" y="572"/>
      <point x="137" y="572" type="curve" smooth="yes"/>
      <point x="174" y="572"/>
      <point x="202" y="600"/>
      <point x="202" y="637" type="curve" smooth="yes"/>
      <point x="202" y="673"/>
      <point x="174" y="701"/>
    </contour>
  </outline>
</glyph>
<glyph name="k" format="1">
  <advance width="567"/>
  <unicode hex="006B"/>
  <outline>
    <contour>
      <point x="294" y="0" type="move" name="bottom"/>
    </contour>
    <contour>
      <point x="214" y="709" type="line"/>
      <point x="36" y="688" type="line"/>
      <point x="36" y="675"/>
      <point x="35" y="637"/>
      <point x="68" y="633" type="curve" smooth="yes"/>
      <point x="112" y="629" type="line"/>
      <point x="112" y="60" type="line"/>
      <point x="78" y="58" type="line" smooth="yes"/>
      <point x="34" y="55"/>
      <point x="40" y="10"/>
      <point x="39" y="0" type="curve"/>
      <point x="249" y="0" type="line" smooth="yes"/>
      <point x="293" y="0"/>
      <point x="289" y="46"/>
      <point x="288" y="56" type="curve"/>
      <point x="214" y="62" type="line"/>
      <point x="214" y="166" type="line"/>
      <point x="266" y="223" type="line"/>
      <point x="425" y="0" type="line"/>
      <point x="523" y="0" type="line" smooth="yes"/>
      <point x="566" y="0"/>
      <point x="566" y="45"/>
      <point x="565" y="56" type="curve"/>
      <point x="498" y="62" type="line"/>
      <point x="330" y="295" type="line"/>
      <point x="460" y="440" type="line"/>
      <point x="484" y="441" type="line" smooth="yes"/>
      <point x="529" y="444"/>
      <point x="523" y="489"/>
      <point x="524" y="499" type="curve"/>
      <point x="353" y="499" type="line" smooth="yes"/>
      <point x="309" y="499"/>
      <point x="313" y="453"/>
      <point x="314" y="443" type="curve"/>
      <point x="372" y="437" type="line"/>
      <point x="214" y="254" type="line"/>
    </contour>
  </outline>
</glyph>
<glyph name="l" format="1">
  <advance width="306"/>
  <unicode hex="006C"/>
  <outline>
    <contour>
      <point x="163" y="499" type="move" name="top"/>
    </contour>
    <contour>
      <point x="165" y="0" type="move" name="bottom"/>
    </contour>
    <contour>
      <point x="214" y="708" type="line"/>
      <point x="36" y="688" type="line"/>
      <point x="36" y="675"/>
      <point x="35" y="637"/>
      <point x="68" y="633" type="curve" smooth="yes"/>
      <point x="112" y="629" type="line"/>
      <point x="112" y="0" type="line"/>
      <point x="214" y="0" type="line"/>
    </contour>
    <contour>
      <point x="214" y="62" type="line"/>
      <point x="112" y="60" type="line"/>
      <point x="77" y="58" type="line" smooth="yes"/>
      <point x="32" y="55"/>
      <point x="38" y="10"/>
      <point x="37" y="0" type="curve"/>
      <point x="247" y="0" type="line" smooth="yes"/>
      <point x="290" y="0"/>
      <point x="286" y="46"/>
      <point x="285" y="56" type="curve"/>
    </contour>
  </outline>
</glyph>
<glyph name="m" format="1">
  <advance width="950"/>
  <unicode hex="006D"/>
  <outline>
    <contour>
      <point x="856" y="62" type="line"/>
      <point x="856" y="307" type="line" smooth="yes"/>
      <point x="856" y="460"/>
      <point x="763" y="514"/>
      <point x="677" y="514" type="curve" smooth="yes"/>
      <point x="601" y="514"/>
      <point x="548" y="472"/>
      <point x="507" y="430" type="curve"/>
      <point x="473" y="491"/>
      <point x="413" y="514"/>
      <point x="362" y="514" type="curve" smooth="yes"/>
      <point x="286" y="514"/>
      <point x="247" y="480"/>
      <point x="209" y="446" type="curve"/>
      <point x="206" y="446" type="line"/>
      <point x="198" y="510" type="line"/>
      <point x="36" y="490" type="line"/>
      <point x="36" y="477"/>
      <point x="35" y="438"/>
      <point x="71" y="435" type="curve" smooth="yes"/>
      <point x="112" y="432" type="line"/>
      <point x="112" y="60" type="line"/>
      <point x="77" y="58" type="line" smooth="yes"/>
      <point x="33" y="55"/>
      <point x="39" y="10"/>
      <point x="38" y="0" type="curve"/>
      <point x="249" y="0" type="line" smooth="yes"/>
      <point x="292" y="0"/>
      <point x="288" y="46"/>
      <point x="287" y="56" type="curve"/>
      <point x="214" y="62" type="line"/>
      <point x="214" y="376" type="line"/>
      <point x="250" y="407"/>
      <point x="282" y="428"/>
      <point x="331" y="428" type="curve" smooth="yes"/>
      <point x="393" y="428"/>
      <point x="434" y="395"/>
      <point x="434" y="308" type="curve" smooth="yes"/>
      <point x="434" y="60" type="line"/>
      <point x="399" y="58" type="line" smooth="yes"/>
      <point x="355" y="55"/>
      <point x="361" y="10"/>
      <point x="360" y="0" type="curve"/>
      <point x="570" y="0" type="line" smooth="yes"/>
      <point x="614" y="0"/>
      <point x="610" y="46"/>
      <point x="609" y="56" type="curve"/>
      <point x="536" y="62" type="line"/>
      <point x="536" y="307" type="line" smooth="yes"/>
      <point x="536" y="334"/>
      <point x="534" y="351"/>
      <point x="528" y="373" type="curve"/>
      <point x="563" y="405"/>
      <point x="599" y="428"/>
      <point x="649" y="428" type="curve" smooth="yes"/>
      <point x="716" y="428"/>
      <point x="754" y="395"/>
      <point x="754" y="308" type="curve" smooth="yes"/>
      <point x="754" y="60" type="line"/>
      <point x="721" y="58" type="line" smooth="yes"/>
      <point x="677" y="55"/>
      <point x="683" y="10"/>
      <point x="682" y="0" type="curve"/>
      <point x="891" y="0" type="line" smooth="yes"/>
      <point x="934" y="0"/>
      <point x="930" y="46"/>
      <point x="929" y="56" type="curve"/>
    </contour>
  </outline>
</glyph>
<glyph name="n" format="1">
  <advance width="636"/>
  <unicode hex="006E"/>
  <outline>
    <contour>
      <point x="334" y="499" type="move" name="top"/>
    </contour>
    <contour>
      <point x="322" y="0" type="move" name="bottom"/>
    </contour>
    <contour>
      <point x="544" y="62" type="line"/>
      <point x="544" y="311" type="line" smooth="yes"/>
      <point x="544" y="460"/>
      <point x="454" y="514"/>
      <point x="368" y="514" type="curve" smooth="yes"/>
      <point x="297" y="514"/>
      <point x="248" y="478"/>
      <point x="210" y="443" type="curve"/>
      <point x="207" y="443" type="line"/>
      <point x="198" y="510" type="line"/>
      <point x="36" y="490" type="line"/>
      <point x="36" y="477"/>
      <point x="35" y="439"/>
      <point x="68" y="436" type="curve" smooth="yes"/>
      <point x="112" y="431" type="line"/>
      <point x="112" y="60" type="line"/>
      <point x="77" y="58" type="line" smooth="yes"/>
      <point x="32" y="55"/>
      <point x="38" y="10"/>
      <point x="37" y="0" type="curve"/>
      <point x="247" y="0" type="line" smooth="yes"/>
      <point x="290" y="0"/>
      <point x="286" y="46"/>
      <point x="285" y="56" type="curve"/>
      <point x="214" y="62" type="line"/>
      <point x="214" y="375" type="line"/>
      <point x="255" y="410"/>
      <point x="288" y="429"/>
      <point x="345" y="429" type="curve" smooth="yes"/>
      <point x="407" y="429"/>
      <point x="442" y="395"/>
      <point x="442" y="311" type="curve" smooth="yes"/>
      <point x="442" y="60" type="line"/>
      <point x="407" y="58" type="line" smooth="yes"/>
      <point x="363" y="55"/>
      <point x="369" y="10"/>
      <point x="368" y="0" type="curve"/>
      <point x="576" y="0" type="line" smooth="yes"/>
      <point x="619" y="0"/>
      <point x="615" y="46"/>
      <point x="614" y="56" type="curve"/>
    </contour>
  </outline>
</glyph>
<glyph name="o" format="1">
  <advance width="529"/>
  <unicode hex="006F"/>
  <outline>
    <contour>
      <point x="268" y="499" type="move" name="top"/>
    </contour>
    <contour>
      <point x="274" y="514" type="curve" smooth="yes"/>
      <point x="123" y="514"/>
      <point x="36" y="408"/>
      <point x="37" y="234" type="curve" smooth="yes"/>
      <point x="37" y="77"/>
      <point x="113" y="-15"/>
      <point x="254" y="-15" type="curve" smooth="yes"/>
      <point x="408" y="-15"/>
      <point x="493" y="90"/>
      <point x="493" y="257" type="curve" smooth="yes"/>
      <point x="492" y="432"/>
      <point x="397" y="514"/>
    </contour>
    <contour>
      <point x="265" y="447" type="curve" smooth="yes"/>
      <point x="346" y="447"/>
      <point x="386" y="361"/>
      <point x="386" y="243" type="curve" smooth="yes"/>
      <point x="386" y="128"/>
      <point x="343" y="52"/>
      <point x="264" y="52" type="curve" smooth="yes"/>
      <point x="184" y="51"/>
      <point x="143" y="129"/>
      <point x="143" y="248" type="curve" smooth="yes"/>
      <point x="143" y="364"/>
      <point x="186" y="446"/>
    </contour>
  </outline>
</glyph>
<glyph name="q" format="1">
  <advance width="547"/>
  <unicode hex="0071"/>
  <outline>
    <contour>
      <point x="280" y="514" type="curve" smooth="yes"/>
      <point x="116" y="514"/>
      <point x="34" y="393"/>
      <point x="37" y="228" type="curve" smooth="yes"/>
      <point x="40" y="51"/>
      <point x="140" y="-15"/>
      <point x="236" y="-15" type="curve" smooth="yes"/>
      <point x="332" y="-15"/>
      <point x="384" y="36"/>
      <point x="430" y="87" type="curve"/>
      <point x="420" y="146" type="line"/>
      <point x="365" y="91"/>
      <point x="329" y="62"/>
      <point x="272" y="62" type="curve" smooth="yes"/>
      <point x="183" y="62"/>
      <point x="143" y="139"/>
      <point x="143" y="249" type="curve" smooth="yes"/>
      <point x="143" y="346"/>
      <point x="171" y="443"/>
      <point x="269" y="443" type="curve" smooth="yes"/>
      <point x="334" y="443"/>
      <point x="384" y="404"/>
      <point x="400" y="382" type="curve"/>
      <point x="427" y="470" type="line"/>
      <point x="383" y="496"/>
      <point x="346" y="514"/>
    </contour>
    <contour>
      <point x="485" y="-155" type="line"/>
      <point x="383" y="-157" type="line"/>
      <point x="348" y="-159" type="line" smooth="yes"/>
      <point x="304" y="-162"/>
      <point x="310" y="-207"/>
      <point x="309" y="-217" type="curve"/>
      <point x="515" y="-217" type="line" smooth="yes"/>
      <point x="558" y="-217"/>
      <point x="554" y="-171"/>
      <point x="553" y="-161" type="curve"/>
    </contour>
    <contour>
      <point x="485" y="499" type="line"/>
      <point x="383" y="482" type="line"/>
      <point x="383" y="-217" type="line"/>
      <point x="485" y="-217" type="line"/>
    </contour>
  </outline>
</glyph>
<glyph name="r" format="1">
  <advance width="431"/>
  <unicode hex="0072"/>
  <outline>
    <contour>
      <point x="238" y="499" type="move" name="top"/>
    </contour>
    <contour>
      <point x="179" y="0" type="move" name="bottom"/>
    </contour>
    <contour>
      <point x="360" y="514" type="curve" smooth="yes"/>
      <point x="311" y="514"/>
      <point x="243" y="468"/>
      <point x="210" y="429" type="curve"/>
      <point x="207" y="429" type="line"/>
      <point x="199" y="509" type="line"/>
      <point x="36" y="488" type="line"/>
      <point x="36" y="475"/>
      <point x="35" y="439"/>
      <point x="63" y="436" type="curve" smooth="yes"/>
      <point x="111" y="431" type="line"/>
      <point x="111" y="60" type="line"/>
      <point x="77" y="58" type="line" smooth="yes"/>
      <point x="33" y="55"/>
      <point x="39" y="10"/>
      <point x="38" y="0" type="curve"/>
      <point x="257" y="0" type="line" smooth="yes"/>
      <point x="301" y="0"/>
      <point x="297" y="46"/>
      <point x="296" y="56" type="curve"/>
      <point x="213" y="62" type="line"/>
      <point x="213" y="361" type="line"/>
      <point x="243" y="399"/>
      <point x="279" y="427"/>
      <point x="313" y="427" type="curve" smooth="yes"/>
      <point x="337" y="427"/>
      <point x="351" y="414"/>
      <point x="351" y="353" type="curve"/>
      <point x="372" y="351"/>
      <point x="389" y="352"/>
      <point x="402" y="362" type="curve"/>
      <point x="415" y="374"/>
      <point x="429" y="406"/>
      <point x="429" y="441" type="curve" smooth="yes"/>
      <point x="429" y="494"/>
      <point x="393" y="514"/>
    </contour>
  </outline>
</glyph>
<glyph name="s" format="1">
  <advance width="419"/>
  <unicode hex="0073"/>
  <outline>
    <contour>
      <point x="216" y="499" type="move" name="top"/>
    </contour>
    <contour>
      <point x="219" y="0" type="move" name="bottom"/>
    </contour>
    <contour>
      <point x="229" y="514" type="curve" smooth="yes"/>
      <point x="133" y="514"/>
      <point x="40" y="464"/>
      <point x="40" y="367" type="curve" smooth="yes"/>
      <point x="39" y="275"/>
      <point x="123" y="237"/>
      <point x="202" y="207" type="curve" smooth="yes"/>
      <point x="265" y="182"/>
      <point x="308" y="165"/>
      <point x="308" y="118" type="curve" smooth="yes"/>
      <point x="308" y="71"/>
      <point x="263" y="51"/>
      <point x="214" y="52" type="curve" smooth="yes"/>
      <point x="144" y="52"/>
      <point x="105" y="91"/>
      <point x="96" y="150" type="curve"/>
      <point x="60" y="150"/>
      <point x="25" y="128"/>
      <point x="24" y="85" type="curve" smooth="yes"/>
      <point x="24" y="16"/>
      <point x="113" y="-14"/>
      <point x="192" y="-15" type="curve" smooth="yes"/>
      <point x="320" y="-16"/>
      <point x="394" y="61"/>
      <point x="395" y="151" type="curve" smooth="yes"/>
      <point x="395" y="239"/>
      <point x="326" y="270"/>
      <point x="245" y="303" type="curve" smooth="yes"/>
      <point x="172" y="332"/>
      <point x="123" y="353"/>
      <point x="123" y="392" type="curve" smooth="yes"/>
      <point x="123" y="425"/>
      <point x="157" y="449"/>
      <point x="203" y="449" type="curve" smooth="yes"/>
      <point x="260" y="448"/>
      <point x="299" y="411"/>
      <point x="298" y="364" type="curve"/>
      <point x="336" y="359"/>
      <point x="370" y="381"/>
      <point x="370" y="425" type="curve" smooth="yes"/>
      <point x="370" y="493"/>
      <point x="291" y="514"/>
    </contour>
  </outline>
</glyph>
<glyph name="t" format="1">
  <advance width="397"/>
  <unicode hex="0074"/>
  <outline>
    <contour>
      <point x="214" y="0" type="move" name="bottom"/>
    </contour>
    <contour>
      <point x="89" y="623" type="line"/>
      <point x="89" y="155" type="line" smooth="yes"/>
      <point x="89" y="64"/>
      <point x="109" y="-15"/>
      <point x="226" y="-15" type="curve" smooth="yes"/>
      <point x="292" y="-15"/>
      <point x="384" y="23"/>
      <point x="384" y="73" type="curve" smooth="yes"/>
      <point x="384" y="91"/>
      <point x="371" y="107"/>
      <point x="365" y="108" type="curve"/>
      <point x="322" y="74"/>
      <point x="295" y="64"/>
      <point x="247" y="64" type="curve" smooth="yes"/>
      <point x="209" y="64"/>
      <point x="191" y="93"/>
      <point x="191" y="154" type="curve" smooth="yes"/>
      <point x="191" y="638" type="line"/>
    </contour>
    <contour>
      <point x="51" y="499" type="line"/>
      <point x="13" y="499"/>
      <point x="10" y="463"/>
      <point x="10" y="438" type="curve"/>
      <point x="338" y="438" type="line"/>
      <point x="374" y="442"/>
      <point x="375" y="486"/>
      <point x="374" y="499" type="curve"/>
    </contour>
  </outline>
</glyph>
<glyph name="u" format="1">
  <advance width="590"/>
  <unicode hex="0075"/>
  <outline>
    <contour>
      <point x="289" y="499" type="move" name="top"/>
    </contour>
    <contour>
      <point x="497" y="-15" type="move" name="ogonek"/>
    </contour>
    <contour>
      <point x="504" y="63" type="line"/>
      <point x="504" y="499" type="line"/>
      <point x="362" y="499" type="line" smooth="yes"/>
      <point x="320" y="499"/>
      <point x="325" y="449"/>
      <point x="325" y="439" type="curve"/>
      <point x="402" y="437" type="line"/>
      <point x="402" y="106" type="line"/>
      <point x="370" y="80"/>
      <point x="339" y="64"/>
      <point x="293" y="64" type="curve" smooth="yes"/>
      <point x="227" y="64"/>
      <point x="188" y="101"/>
      <point x="188" y="192" type="curve" smooth="yes"/>
      <point x="188" y="499" type="line"/>
      <point x="50" y="499" type="line" smooth="yes"/>
      <point x="7" y="499"/>
      <point x="13" y="449"/>
      <point x="12" y="439" type="curve"/>
      <point x="86" y="437" type="line"/>
      <point x="86" y="192" type="line" smooth="yes"/>
      <point x="86" y="39"/>
      <point x="179" y="-15"/>
      <point x="266" y="-15" type="curve" smooth="yes"/>
      <point x="335" y="-15"/>
      <point x="378" y="16"/>
      <point x="414" y="48" type="curve"/>
      <point x="432" y="-7" type="line"/>
      <point x="566" y="6" type="line"/>
      <point x="566" y="19"/>
      <point x="567" y="60"/>
      <point x="536" y="61" type="curve" smooth="yes"/>
    </contour>
  </outline>
</glyph>
<glyph name="v" format="1">
  <advance width="505"/>
  <unicode hex="0076"/>
  <outline>
    <contour>
      <point x="136" y="496" type="line"/>
      <point x="31" y="473" type="line"/>
      <point x="219" y="0" type="line"/>
      <point x="278" y="0" type="line"/>
      <point x="480" y="493" type="line"/>
      <point x="395" y="487" type="line"/>
      <point x="218" y="29" type="line"/>
      <point x="289" y="87" type="line"/>
    </contour>
    <contour>
      <point x="38" y="499" type="line"/>
      <point x="7" y="499"/>
      <point x="1" y="466"/>
      <point x="2" y="443" type="curve"/>
      <point x="45" y="437" type="line"/>
      <point x="157" y="439" type="line"/>
      <point x="182" y="441" type="line" smooth="yes"/>
      <point x="226" y="446"/>
      <point x="221" y="489"/>
      <point x="222" y="499" type="curve"/>
    </contour>
    <contour>
      <point x="365" y="499" type="line"/>
      <point x="322" y="499"/>
      <point x="326" y="453"/>
      <point x="327" y="443" type="curve"/>
      <point x="382" y="437" type="line"/>
      <point x="454" y="440" type="line"/>
      <point x="470" y="441" type="line" smooth="yes"/>
      <point x="495" y="443"/>
      <point x="504" y="462"/>
      <point x="504" y="499" type="curve"/>
    </contour>
  </outline>
</glyph>
<glyph name="w" format="1">
  <advance width="721"/>
  <unicode hex="0077"/>
  <outline>
    <contour>
      <point x="378" y="499" type="move" name="top"/>
    </contour>
    <contour>
      <point x="141" y="496" type="line"/>
      <point x="30" y="482" type="line"/>
      <point x="189" y="0" type="line"/>
      <point x="246" y="0" type="line"/>
      <point x="374" y="339" type="line"/>
      <point x="333" y="340" type="line"/>
      <point x="448" y="0" type="line"/>
      <point x="506" y="0" type="line"/>
      <point x="694" y="493" type="line"/>
      <point x="606" y="487" type="line"/>
      <point x="468" y="80" type="line"/>
      <point x="523" y="80" type="line"/>
      <point x="408" y="453" type="line"/>
      <point x="345" y="452" type="line"/>
      <point x="215" y="81" type="line"/>
      <point x="260" y="89" type="line"/>
    </contour>
    <contour>
      <point x="38" y="499" type="line"/>
      <point x="7" y="499"/>
      <point x="1" y="466"/>
      <point x="2" y="443" type="curve"/>
      <point x="45" y="437" type="line"/>
      <point x="157" y="439" type="line"/>
      <point x="182" y="441" type="line" smooth="yes"/>
      <point x="226" y="446"/>
      <point x="221" y="489"/>
      <point x="222" y="499" type="curve"/>
    </contour>
    <contour>
      <point x="581" y="499" type="line"/>
      <point x="538" y="499"/>
      <point x="542" y="453"/>
      <point x="543" y="443" type="curve"/>
      <point x="597" y="437" type="line"/>
      <point x="671" y="440" type="line"/>
      <point x="686" y="441" type="line" smooth="yes"/>
      <point x="710" y="443"/>
      <point x="720" y="462"/>
      <point x="719" y="499" type="curve"/>
    </contour>
  </outline>
</glyph>
<glyph name="x" format="1">
  <advance width="510"/>
  <unicode hex="0078"/>
  <outline>
    <contour>
      <point x="153" y="479" type="line"/>
      <point x="36" y="473" type="line"/>
      <point x="364" y="18" type="line"/>
      <point x="477" y="30" type="line"/>
    </contour>
    <contour>
      <point x="152" y="62" type="line"/>
      <point x="75" y="60" type="line"/>
      <point x="47" y="58" type="line" smooth="yes"/>
      <point x="3" y="54"/>
      <point x="9" y="10"/>
      <point x="8" y="0" type="curve"/>
      <point x="168" y="0" type="line" smooth="yes"/>
      <point x="211" y="0"/>
      <point x="207" y="46"/>
      <point x="206" y="56" type="curve"/>
    </contour>
    <contour>
      <point x="219" y="269" type="line"/>
      <point x="55" y="31" type="line"/>
      <point x="130" y="28" type="line"/>
      <point x="269" y="245" type="line"/>
    </contour>
    <contour>
      <point x="454" y="62" type="line"/>
      <point x="332" y="60" type="line"/>
      <point x="313" y="58" type="line" smooth="yes"/>
      <point x="270" y="51"/>
      <point x="275" y="10"/>
      <point x="274" y="0" type="curve"/>
      <point x="466" y="0" type="line" smooth="yes"/>
      <point x="509" y="0"/>
      <point x="505" y="46"/>
      <point x="504" y="56" type="curve"/>
    </contour>
    <contour>
      <point x="48" y="499" type="line"/>
      <point x="7" y="499"/>
      <point x="9" y="453"/>
      <point x="10" y="443" type="curve"/>
      <point x="63" y="437" type="line"/>
      <point x="182" y="439" type="line"/>
      <point x="198" y="441" type="line" smooth="yes"/>
      <point x="242" y="451"/>
      <point x="236" y="489"/>
      <point x="237" y="499" type="curve"/>
    </contour>
    <contour>
      <point x="386" y="476" type="line"/>
      <point x="244" y="252" type="line"/>
      <point x="294" y="228" type="line"/>
      <point x="460" y="473" type="line"/>
    </contour>
    <contour>
      <point x="352" y="499" type="line"/>
      <point x="309" y="499"/>
      <point x="313" y="453"/>
      <point x="314" y="443" type="curve"/>
      <point x="360" y="437" type="line"/>
      <point x="437" y="440" type="line"/>
      <point x="459" y="441" type="line" smooth="yes"/>
      <point x="504" y="444"/>
      <point x="497" y="489"/>
      <point x="498" y="499" type="curve"/>
    </contour>
  </outline>
</glyph>
<glyph name="y" format="1">
  <advance width="520"/>
  <unicode hex="0079"/>
  <outline>
    <contour>
      <point x="282" y="499" type="move" name="top"/>
    </contour>
    <contour>
      <point x="150" y="496" type="line"/>
      <point x="33" y="494" type="line"/>
      <point x="245" y="11" type="line"/>
      <point x="298" y="11" type="line"/>
      <point x="495" y="493" type="line"/>
      <point x="412" y="487" type="line"/>
      <point x="240" y="41" type="line"/>
      <point x="307" y="102" type="line"/>
    </contour>
    <contour>
      <point x="237" y="43" type="line"/>
      <point x="218" y="-16"/>
      <point x="162" y="-153"/>
      <point x="119" y="-153" type="curve" smooth="yes"/>
      <point x="92" y="-153"/>
      <point x="92" y="-123"/>
      <point x="96" y="-105" type="curve"/>
      <point x="91" y="-103"/>
      <point x="81" y="-103"/>
      <point x="77" y="-103" type="curve" smooth="yes"/>
      <point x="44" y="-103"/>
      <point x="22" y="-128"/>
      <point x="22" y="-160" type="curve" smooth="yes"/>
      <point x="22" y="-198"/>
      <point x="52" y="-228"/>
      <point x="106" y="-228" type="curve" smooth="yes"/>
      <point x="207" y="-228"/>
      <point x="258" y="-85"/>
      <point x="307" y="31" type="curve"/>
    </contour>
    <contour>
      <point x="41" y="499" type="line"/>
      <point x="-3" y="499"/>
      <point x="2" y="453"/>
      <point x="3" y="443" type="curve"/>
      <point x="55" y="437" type="line"/>
      <point x="172" y="439" type="line"/>
      <point x="194" y="441" type="line" smooth="yes"/>
      <point x="238" y="448"/>
      <point x="232" y="489"/>
      <point x="233" y="499" type="curve"/>
    </contour>
    <contour>
      <point x="380" y="499" type="line"/>
      <point x="337" y="499"/>
      <point x="341" y="453"/>
      <point x="342" y="443" type="curve"/>
      <point x="397" y="437" type="line"/>
      <point x="461" y="439" type="line"/>
      <point x="480" y="441" type="line" smooth="yes"/>
      <point x="525" y="449"/>
      <point x="518" y="489"/>
      <point x="519" y="499" type="curve"/>
    </contour>
  </outline>
</glyph>
<glyph name="z" format="1">
  <advance width="429"/>
  <unicode hex="007A"/>
  <outline>
    <contour>
      <point x="229" y="499" type="move" name="top"/>
    </contour>
    <contour>
      <point x="49" y="499" type="line"/>
      <point x="49" y="348" type="line"/>
      <point x="72" y="341"/>
      <point x="108" y="348"/>
      <point x="112" y="384" type="curve" smooth="yes"/>
      <point x="118" y="438" type="line"/>
      <point x="288" y="444" type="line"/>
      <point x="15" y="45" type="line"/>
      <point x="16" y="30"/>
      <point x="24" y="11"/>
      <point x="30" y="0" type="curve"/>
      <point x="414" y="0" type="line"/>
      <point x="414" y="154" type="line"/>
      <point x="391" y="161"/>
      <point x="355" y="154"/>
      <point x="351" y="118" type="curve" smooth="yes"/>
      <point x="343" y="64" type="line"/>
      <point x="143" y="59" type="line"/>
      <point x="411" y="451" type="line"/>
      <point x="410" y="465"/>
      <point x="400" y="490"/>
      <point x="391" y="499" type="curve"/>
    </contour>
  </outline>
</glyph>
<glyph name="braceleft" format="1">
  <advance width="351"/>
  <unicode hex="007B"/>
  <outline>
    <contour>
      <point x="245" y="724" type="curve" smooth="yes"/>
      <point x="161" y="724"/>
      <point x="101" y="672"/>
      <point x="101" y="592" type="curve" smooth="yes"/>
      <point x="101" y="522"/>
      <point x="117" y="460"/>
      <point x="117" y="384" type="curve" smooth="yes"/>
      <point x="117" y="354"/>
      <point x="109" y="330"/>
      <point x="94" y="313" type="curve"/>
      <point x="87" y="304"/>
      <point x="74" y="295"/>
      <point x="50" y="285" type="curve"/>
      <point x="50" y="252" type="line"/>
      <point x="73" y="242"/>
      <point x="86" y="234"/>
      <point x="94" y="224" type="curve"/>
      <point x="109" y="207"/>
      <point x="117" y="184"/>
      <point x="117" y="155" type="curve" smooth="yes"/>
      <point x="117" y="74"/>
      <point x="101" y="12"/>
      <point x="101" y="-56" type="curve" smooth="yes"/>
      <point x="101" y="-136"/>
      <point x="158" y="-188"/>
      <point x="239" y="-188" type="curve" smooth="yes"/>
      <point x="273" y="-188"/>
      <point x="312" y="-183"/>
      <point x="334" y="-175" type="curve"/>
      <point x="330" y="-127" type="line"/>
      <point x="322" y="-128"/>
      <point x="311" y="-129"/>
      <point x="300" y="-129" type="curve" smooth="yes"/>
      <point x="232" y="-129"/>
      <point x="189" y="-103"/>
      <point x="189" y="-51" type="curve" smooth="yes"/>
      <point x="189" y="-1"/>
      <point x="206" y="79"/>
      <point x="206" y="140" type="curve" smooth="yes"/>
      <point x="206" y="210"/>
      <point x="183" y="254"/>
      <point x="152" y="264" type="curve"/>
      <point x="152" y="273" type="line"/>
      <point x="183" y="283"/>
      <point x="206" y="327"/>
      <point x="206" y="396" type="curve" smooth="yes"/>
      <point x="206" y="478"/>
      <point x="189" y="537"/>
      <point x="189" y="587" type="curve" smooth="yes"/>
      <point x="189" y="639"/>
      <point x="232" y="666"/>
      <point x="300" y="666" type="curve" smooth="yes"/>
      <point x="311" y="666"/>
      <point x="322" y="665"/>
      <point x="330" y="664" type="curve"/>
      <point x="334" y="711" type="line"/>
      <point x="320" y="719"/>
      <point x="285" y="724"/>
    </contour>
  </outline>
</glyph>
<glyph name="bar" format="1">
  <advance width="283"/>
  <unicode hex="007C"/>
  <outline>
    <contour>
      <point x="100" y="-194" type="line"/>
      <point x="183" y="-194" type="line"/>
      <point x="183" y="724" type="line"/>
      <point x="100" y="724" type="line"/>
    </contour>
  </outline>
</glyph>
<glyph name="asciitilde" format="1">
  <advance width="580"/>
  <unicode hex="007E"/>
  <outline>
    <contour>
      <point x="136" y="234" type="line"/>
      <point x="146" y="259"/>
      <point x="170" y="279"/>
      <point x="198" y="279" type="curve" smooth="yes"/>
      <point x="248" y="278"/>
      <point x="280" y="226"/>
      <point x="357" y="224" type="curve" smooth="yes"/>
      <point x="429" y="223"/>
      <point x="467" y="267"/>
      <point x="480" y="342" type="curve"/>
      <point x="446" y="352" type="line"/>
      <point x="437" y="323"/>
      <point x="411" y="301"/>
      <point x="374" y="302" type="curve" smooth="yes"/>
      <point x="313" y="303"/>
      <point x="287" y="360"/>
      <point x="219" y="362" type="curve" smooth="yes"/>
      <point x="159" y="363"/>
      <point x="114" y="317"/>
      <point x="100" y="247" type="curve"/>
    </contour>
  </outline>
</glyph>
<glyph name="cent" format="1">
  <advance width="506"/>
  <unicode hex="00A2"/>
  <outline>
    <contour>
      <point x="291" y="514" type="curve" smooth="yes"/>
      <point x="137" y="514"/>
      <point x="49" y="405"/>
      <point x="50" y="227" type="curve" smooth="yes"/>
      <point x="51" y="87"/>
      <point x="127" y="-16"/>
      <point x="263" y="-16" type="curve" smooth="yes"/>
      <point x="365" y="-16"/>
      <point x="456" y="35"/>
      <point x="456" y="78" type="curve" smooth="yes"/>
      <point x="456" y="86"/>
      <point x="449" y="105"/>
      <point x="437" y="113" type="curve"/>
      <point x="399" y="80"/>
      <point x="356" y="62"/>
      <point x="302" y="62" type="curve" smooth="yes"/>
      <point x="189" y="62"/>
      <point x="157" y="152"/>
      <point x="157" y="260" type="curve" smooth="yes"/>
      <point x="157" y="365"/>
      <point x="198" y="444"/>
      <point x="279" y="444" type="curve" smooth="yes"/>
      <point x="347" y="444"/>
      <point x="372" y="389"/>
      <point x="373" y="341" type="curve"/>
      <point x="404" y="338"/>
      <point x="448" y="353"/>
      <point x="448" y="408" type="curve" smooth="yes"/>
      <point x="448" y="473"/>
      <point x="386" y="514"/>
    </contour>
    <contour>
      <point x="310" y="21" type="line"/>
      <point x="252" y="17" type="line"/>
      <point x="241" y="-112" type="line"/>
      <point x="258" y="-121"/>
      <point x="303" y="-121"/>
      <point x="322" y="-112" type="curve"/>
    </contour>
    <contour>
      <point x="322" y="605" type="line"/>
      <point x="303" y="613"/>
      <point x="258" y="614"/>
      <point x="241" y="605" type="curve"/>
      <point x="250" y="488" type="line"/>
      <point x="312" y="492" type="line"/>
    </contour>
  </outline>
</glyph>
<glyph name="sterling" format="1">
  <advance width="531"/>
  <unicode hex="00A3"/>
  <outline>
    <contour>
      <point x="348" y="626" type="curve" smooth="yes"/>
      <point x="197" y="626"/>
      <point x="157" y="507"/>
      <point x="151" y="389" type="curve" smooth="yes"/>
      <point x="147" y="321"/>
      <point x="143" y="163"/>
      <point x="119" y="111" type="curve" smooth="yes"/>
      <point x="105" y="74"/>
      <point x="83" y="58"/>
      <point x="47" y="48" type="curve"/>
      <point x="46" y="29"/>
      <point x="48" y="12"/>
      <point x="53" y="0" type="curve"/>
      <point x="435" y="0" type="line" smooth="yes"/>
      <point x="478" y="0"/>
      <point x="486" y="30"/>
      <point x="484" y="67" type="curve"/>
      <point x="182" y="67" type="line"/>
      <point x="198" y="79"/>
      <point x="209" y="102"/>
      <point x="217" y="137" type="curve" smooth="yes"/>
      <point x="230" y="200"/>
      <point x="238" y="330"/>
      <point x="241" y="389" type="curve" smooth="yes"/>
      <point x="247" y="497"/>
      <point x="277" y="563"/>
      <point x="335" y="563" type="curve" smooth="yes"/>
      <point x="379" y="563"/>
      <point x="403" y="535"/>
      <point x="403" y="474" type="curve"/>
      <point x="442" y="471"/>
      <point x="477" y="488"/>
      <point x="477" y="535" type="curve" smooth="yes"/>
      <point x="477" y="597"/>
      <point x="416" y="626"/>
    </contour>
    <contour>
      <point x="398" y="326" type="line"/>
      <point x="59" y="326" type="line"/>
      <point x="59" y="265" type="line"/>
      <point x="398" y="265" type="line"/>
    </contour>
  </outline>
</glyph>
<glyph name="currency" format="1">
  <advance width="595"/>
  <unicode hex="00A4"/>
  <outline>
    <contour>
      <point x="490" y="283" type="curve" smooth="yes"/>
      <point x="490" y="330"/>
      <point x="477" y="370"/>
      <point x="455" y="402" type="curve"/>
      <point x="548" y="479" type="line"/>
      <point x="534" y="498"/>
      <point x="504" y="529"/>
      <point x="487" y="538" type="curve"/>
      <point x="407" y="447" type="line"/>
      <point x="378" y="466"/>
      <point x="340" y="476"/>
      <point x="298" y="476" type="curve" smooth="yes"/>
      <point x="255" y="476"/>
      <point x="218" y="466"/>
      <point x="187" y="447" type="curve"/>
      <point x="108" y="538" type="line"/>
      <point x="91" y="529"/>
      <point x="61" y="498"/>
      <point x="47" y="479" type="curve"/>
      <point x="140" y="402" type="line"/>
      <point x="117" y="370"/>
      <point x="104" y="330"/>
      <point x="104" y="283" type="curve" smooth="yes"/>
      <point x="104" y="237"/>
      <point x="116" y="196"/>
      <point x="139" y="166" type="curve"/>
      <point x="47" y="89" type="line"/>
      <point x="61" y="70"/>
      <point x="91" y="39"/>
      <point x="108" y="29" type="curve"/>
      <point x="188" y="121" type="line"/>
      <point x="218" y="101"/>
      <point x="255" y="91"/>
      <point x="298" y="91" type="curve" smooth="yes"/>
      <point x="340" y="91"/>
      <point x="378" y="101"/>
      <point x="408" y="121" type="curve"/>
      <point x="487" y="29" type="line"/>
      <point x="504" y="39"/>
      <point x="534" y="70"/>
      <point x="548" y="89" type="curve"/>
      <point x="456" y="166" type="line"/>
      <point x="478" y="197"/>
      <point x="490" y="237"/>
    </contour>
    <contour>
      <point x="297" y="169" type="curve" smooth="yes"/>
      <point x="231" y="169"/>
      <point x="186" y="215"/>
      <point x="186" y="283" type="curve" smooth="yes"/>
      <point x="186" y="352"/>
      <point x="231" y="398"/>
      <point x="297" y="398" type="curve" smooth="yes"/>
      <point x="363" y="398"/>
      <point x="408" y="352"/>
      <point x="408" y="283" type="curve" smooth="yes"/>
      <point x="408" y="215"/>
      <point x="363" y="169"/>
    </contour>
  </outline>
</glyph>
<glyph name="yen" format="1">
  <advance width="630"/>
  <unicode hex="00A5"/>
  <outline>
    <contour>
      <point x="372" y="321" type="line"/>
      <point x="271" y="323" type="line"/>
      <point x="271" y="0" type="line"/>
      <point x="372" y="0" type="line"/>
    </contour>
    <contour>
      <point x="373" y="63" type="line"/>
      <point x="271" y="61" type="line"/>
      <point x="236" y="59" type="line" smooth="yes"/>
      <point x="191" y="56"/>
      <point x="197" y="10"/>
      <point x="196" y="0" type="curve"/>
      <point x="407" y="0" type="line" smooth="yes"/>
      <point x="450" y="0"/>
      <point x="446" y="47"/>
      <point x="445" y="57" type="curve"/>
    </contour>
    <contour>
      <point x="50" y="595" type="line"/>
      <point x="284" y="259" type="line"/>
      <point x="357" y="259" type="line"/>
      <point x="576" y="605" type="line"/>
      <point x="487" y="599" type="line"/>
      <point x="300" y="290" type="line"/>
      <point x="348" y="324" type="line"/>
      <point x="170" y="601" type="line"/>
    </contour>
    <contour>
      <point x="466" y="554" type="line"/>
      <point x="547" y="556" type="line"/>
      <point x="578" y="558" type="line" smooth="yes"/>
      <point x="622" y="562"/>
      <point x="616" y="607"/>
      <point x="617" y="617" type="curve"/>
      <point x="425" y="617" type="line" smooth="yes"/>
      <point x="382" y="617"/>
      <point x="386" y="570"/>
      <point x="387" y="560" type="curve"/>
    </contour>
    <contour>
      <point x="83" y="554" type="line"/>
      <point x="187" y="556" type="line"/>
      <point x="227" y="558" type="line" smooth="yes"/>
      <point x="270" y="561"/>
      <point x="265" y="607"/>
      <point x="266" y="617" type="curve"/>
      <point x="53" y="617" type="line" smooth="yes"/>
      <point x="10" y="617"/>
      <point x="14" y="570"/>
      <point x="15" y="560" type="curve"/>
    </contour>
    <contour>
      <point x="486" y="325" type="line"/>
      <point x="148" y="325" type="line"/>
      <point x="148" y="265" type="line"/>
      <point x="486" y="265" type="line"/>
    </contour>
    <contour>
      <point x="486" y="214" type="line"/>
      <point x="148" y="214" type="line"/>
      <point x="148" y="154" type="line"/>
      <point x="486" y="154" type="line"/>
    </contour>
  </outline>
</glyph>
<glyph name="brokenbar" format="1">
  <advance width="283"/>
  <unicode hex="00A6"/>
  <outline>
    <contour>
      <point x="183" y="178" type="line"/>
      <point x="100" y="178" type="line"/>
      <point x="100" y="-194" type="line"/>
      <point x="183" y="-194" type="line"/>
    </contour>
    <contour>
      <point x="100" y="352" type="line"/>
      <point x="183" y="352" type="line"/>
      <point x="183" y="724" type="line"/>
      <point x="100" y="724" type="line"/>
    </contour>
  </outline>
</glyph>
<glyph name="section" format="1">
  <advance width="560"/>
  <unicode hex="00A7"/>
  <outline>
    <contour>
      <point x="163" y="392" type="line"/>
      <point x="112" y="362"/>
      <point x="76" y="312"/>
      <point x="76" y="241" type="curve" smooth="yes"/>
      <point x="76" y="127"/>
      <point x="170" y="86"/>
      <point x="272" y="42" type="curve" smooth="yes"/>
      <point x="360" y="4"/>
      <point x="422" y="-25"/>
      <point x="422" y="-98" type="curve" smooth="yes"/>
      <point x="422" y="-170"/>
      <point x="362" y="-216"/>
      <point x="273" y="-216" type="curve" smooth="yes"/>
      <point x="187" y="-216"/>
      <point x="141" y="-173"/>
      <point x="135" y="-83" type="curve"/>
      <point x="74" y="-83"/>
      <point x="47" y="-117"/>
      <point x="47" y="-159" type="curve" smooth="yes"/>
      <point x="47" y="-245"/>
      <point x="157" y="-284"/>
      <point x="257" y="-284" type="curve" smooth="yes"/>
      <point x="416" y="-284"/>
      <point x="513" y="-187"/>
      <point x="513" y="-61" type="curve" smooth="yes"/>
      <point x="513" y="43"/>
      <point x="447" y="83"/>
      <point x="328" y="134" type="curve" smooth="yes"/>
      <point x="244" y="171"/>
      <point x="167" y="198"/>
      <point x="167" y="269" type="curve" smooth="yes"/>
      <point x="167" y="303"/>
      <point x="185" y="330"/>
      <point x="214" y="344" type="curve"/>
    </contour>
    <contour>
      <point x="391" y="16" type="line"/>
      <point x="469" y="53"/>
      <point x="513" y="124"/>
      <point x="513" y="209" type="curve" smooth="yes"/>
      <point x="513" y="312"/>
      <point x="447" y="352"/>
      <point x="328" y="403" type="curve" smooth="yes"/>
      <point x="244" y="440"/>
      <point x="167" y="468"/>
      <point x="167" y="539" type="curve" smooth="yes"/>
      <point x="167" y="596"/>
      <point x="217" y="629"/>
      <point x="285" y="629" type="curve" smooth="yes"/>
      <point x="365" y="629"/>
      <point x="400" y="584"/>
      <point x="400" y="507" type="curve"/>
      <point x="446" y="501"/>
      <point x="482" y="527"/>
      <point x="482" y="580" type="curve" smooth="yes"/>
      <point x="482" y="669"/>
      <point x="378" y="698"/>
      <point x="301" y="697" type="curve" smooth="yes"/>
      <point x="190" y="697"/>
      <point x="76" y="636"/>
      <point x="76" y="510" type="curve" smooth="yes"/>
      <point x="76" y="396"/>
      <point x="170" y="355"/>
      <point x="272" y="311" type="curve" smooth="yes"/>
      <point x="360" y="273"/>
      <point x="422" y="245"/>
      <point x="422" y="171" type="curve" smooth="yes"/>
      <point x="422" y="127"/>
      <point x="398" y="91"/>
      <point x="356" y="72" type="curve"/>
    </contour>
  </outline>
</glyph>
<glyph name="dieresis" format="1">
  <advance width="600"/>
  <unicode hex="00A8"/>
  <outline>
    <contour>
      <point x="259" y="499" type="move" name="_top"/>
    </contour>
    <contour>
      <point x="165" y="570" type="curve" smooth="yes"/>
      <point x="200" y="570"/>
      <point x="228" y="598"/>
      <point x="228" y="633" type="curve" smooth="yes"/>
      <point x="228" y="667"/>
      <point x="200" y="696"/>
      <point x="165" y="696" type="curve" smooth="yes"/>
      <point x="130" y="696"/>
      <point x="101" y="667"/>
      <point x="101" y="633" type="curve" smooth="yes"/>
      <point x="101" y="598"/>
      <point x="130" y="570"/>
    </contour>
    <contour>
      <point x="345" y="570" type="curve" smooth="yes"/>
      <point x="381" y="570"/>
      <point x="409" y="598"/>
      <point x="409" y="633" type="curve" smooth="yes"/>
      <point x="409" y="667"/>
      <point x="381" y="696"/>
      <point x="345" y="696" type="curve" smooth="yes"/>
      <point x="311" y="696"/>
      <point x="282" y="667"/>
      <point x="282" y="633" type="curve" smooth="yes"/>
      <point x="282" y="598"/>
      <point x="311" y="570"/>
    </contour>
  </outline>
</glyph>
<glyph name="copyright" format="1">
  <advance width="693"/>
  <unicode hex="00A9"/>
  <outline>
    <contour>
      <point x="347" y="608" type="curve" smooth="yes"/>
      <point x="164" y="608"/>
      <point x="50" y="484"/>
      <point x="50" y="310" type="curve" smooth="yes"/>
      <point x="50" y="129"/>
      <point x="168" y="14"/>
      <point x="347" y="14" type="curve" smooth="yes"/>
      <point x="525" y="14"/>
      <point x="643" y="133"/>
      <point x="643" y="310" type="curve" smooth="yes"/>
      <point x="643" y="492"/>
      <point x="521" y="608"/>
    </contour>
    <contour>
      <point x="347" y="539" type="curve" smooth="yes"/>
      <point x="475" y="539"/>
      <point x="566" y="453"/>
      <point x="566" y="310" type="curve" smooth="yes"/>
      <point x="566" y="171"/>
      <point x="480" y="83"/>
      <point x="347" y="83" type="curve" smooth="yes"/>
      <point x="213" y="83"/>
      <point x="127" y="171"/>
      <point x="127" y="309" type="curve" smooth="yes"/>
      <point x="127" y="446"/>
      <point x="210" y="539"/>
    </contour>
    <contour>
      <point x="456" y="404" type="curve" smooth="yes"/>
      <point x="456" y="441"/>
      <point x="421" y="466"/>
      <point x="365" y="466" type="curve" smooth="yes"/>
      <point x="276" y="466"/>
      <point x="222" y="404"/>
      <point x="222" y="301" type="curve" smooth="yes"/>
      <point x="222" y="220"/>
      <point x="271" y="160"/>
      <point x="352" y="160" type="curve" smooth="yes"/>
      <point x="412" y="160"/>
      <point x="460" y="190"/>
      <point x="460" y="214" type="curve" smooth="yes"/>
      <point x="460" y="220"/>
      <point x="457" y="236"/>
      <point x="450" y="241" type="curve"/>
      <point x="427" y="222"/>
      <point x="403" y="213"/>
      <point x="374" y="213" type="curve" smooth="yes"/>
      <point x="311" y="213"/>
      <point x="294" y="261"/>
      <point x="294" y="321" type="curve" smooth="yes"/>
      <point x="294" y="376"/>
      <point x="318" y="416"/>
      <point x="358" y="416" type="curve" smooth="yes"/>
      <point x="395" y="416"/>
      <point x="411" y="389"/>
      <point x="411" y="366" type="curve"/>
      <point x="429" y="364"/>
      <point x="456" y="374"/>
    </contour>
  </outline>
</glyph>
<glyph name="ordfeminine" format="1">
  <advance width="358"/>
  <unicode hex="00AA"/>
  <outline>
    <contour>
      <point x="173" y="321" type="move" name="top"/>
    </contour>
    <contour>
      <point x="289" y="2" type="move" name="ogonek"/>
    </contour>
    <contour>
      <point x="174" y="629" type="curve" smooth="yes"/>
      <point x="100" y="629"/>
      <point x="58" y="600"/>
      <point x="58" y="562" type="curve" smooth="yes"/>
      <point x="58" y="533"/>
      <point x="83" y="519"/>
      <point x="113" y="522" type="curve"/>
      <point x="114" y="561"/>
      <point x="136" y="577"/>
      <point x="169" y="577" type="curve" smooth="yes"/>
      <point x="202" y="577"/>
      <point x="223" y="556"/>
      <point x="223" y="501" type="curve" smooth="yes"/>
      <point x="223" y="367" type="line" smooth="yes"/>
      <point x="223" y="337"/>
      <point x="238" y="308"/>
      <point x="290" y="308" type="curve" smooth="yes"/>
      <point x="330" y="308"/>
      <point x="340" y="330"/>
      <point x="340" y="347" type="curve"/>
      <point x="301" y="351" type="line"/>
      <point x="301" y="506" type="line" smooth="yes"/>
      <point x="301" y="587"/>
      <point x="258" y="629"/>
    </contour>
    <contour>
      <point x="172" y="483" type="curve" smooth="yes"/>
      <point x="72" y="483"/>
      <point x="36" y="442"/>
      <point x="36" y="392" type="curve" smooth="yes"/>
      <point x="36" y="339"/>
      <point x="76" y="308"/>
      <point x="137" y="308" type="curve" smooth="yes"/>
      <point x="189" y="308"/>
      <point x="230" y="332"/>
      <point x="262" y="376" type="curve"/>
      <point x="259" y="409" type="line"/>
      <point x="234" y="386"/>
      <point x="203" y="362"/>
      <point x="167" y="362" type="curve" smooth="yes"/>
      <point x="133" y="362"/>
      <point x="120" y="378"/>
      <point x="120" y="397" type="curve" smooth="yes"/>
      <point x="120" y="426"/>
      <point x="147" y="437"/>
      <point x="177" y="437" type="curve" smooth="yes"/>
      <point x="209" y="437"/>
      <point x="251" y="425"/>
      <point x="277" y="390" type="curve"/>
      <point x="274" y="464" type="line"/>
      <point x="248" y="477"/>
      <point x="208" y="483"/>
    </contour>
  </outline>
</glyph>
<glyph name="guillemotleft" format="1">
  <advance width="596"/>
  <unicode hex="00AB"/>
  <outline>
    <contour>
      <point x="568" y="440" type="line"/>
      <point x="521" y="482" type="line"/>
      <point x="277" y="275" type="line"/>
      <point x="273" y="257"/>
      <point x="273" y="239"/>
      <point x="277" y="222" type="curve"/>
      <point x="521" y="15" type="line"/>
      <point x="573" y="57" type="line"/>
      <point x="396" y="244" type="line"/>
      <point x="396" y="252" type="line"/>
    </contour>
    <contour>
      <point x="341" y="440" type="line"/>
      <point x="294" y="482" type="line"/>
      <point x="50" y="275" type="line"/>
      <point x="45" y="257"/>
      <point x="45" y="239"/>
      <point x="50" y="222" type="curve"/>
      <point x="294" y="15" type="line"/>
      <point x="345" y="57" type="line"/>
      <point x="168" y="244" type="line"/>
      <point x="168" y="252" type="line"/>
    </contour>
  </outline>
</glyph>
<glyph name="logicalnot" format="1">
  <advance width="497"/>
  <unicode hex="00AC"/>
  <outline>
    <contour>
      <point x="50" y="314" type="line"/>
      <point x="50" y="243" type="line"/>
      <point x="447" y="243" type="line"/>
      <point x="447" y="314" type="line"/>
    </contour>
    <contour>
      <point x="447" y="313" type="line"/>
      <point x="376" y="313" type="line"/>
      <point x="375" y="126" type="line"/>
      <point x="447" y="126" type="line"/>
    </contour>
  </outline>
</glyph>
<glyph name="registered" format="1">
  <advance width="617"/>
  <unicode hex="00AE"/>
  <outline>
    <contour>
      <point x="311" y="717" type="curve" smooth="yes"/>
      <point x="161" y="717"/>
      <point x="56" y="615"/>
      <point x="56" y="462" type="curve" smooth="yes"/>
      <point x="56" y="308"/>
      <point x="160" y="208"/>
      <point x="309" y="207" type="curve" smooth="yes"/>
      <point x="457" y="208"/>
      <point x="561" y="305"/>
      <point x="561" y="461" type="curve" smooth="yes"/>
      <point x="561" y="611"/>
      <point x="465" y="717"/>
    </contour>
    <contour>
      <point x="310" y="659" type="curve" smooth="yes"/>
      <point x="425" y="659"/>
      <point x="495" y="578"/>
      <point x="495" y="461" type="curve" smooth="yes"/>
      <point x="495" y="338"/>
      <point x="419" y="265"/>
      <point x="309" y="265" type="curve" smooth="yes"/>
      <point x="199" y="265"/>
      <point x="122" y="341"/>
      <point x="122" y="462" type="curve" smooth="yes"/>
      <point x="122" y="583"/>
      <point x="199" y="659"/>
    </contour>
    <contour>
      <point x="219" y="598" type="line"/>
      <point x="208" y="598"/>
      <point x="204" y="578"/>
      <point x="204" y="566" type="curve"/>
      <point x="234" y="564" type="line"/>
      <point x="285" y="566" type="line"/>
      <point x="307" y="566" type="line" smooth="yes"/>
      <point x="343" y="566"/>
      <point x="354" y="548"/>
      <point x="354" y="529" type="curve" smooth="yes"/>
      <point x="354" y="502"/>
      <point x="334" y="487"/>
      <point x="291" y="487" type="curve" smooth="yes"/>
      <point x="285" y="487"/>
      <point x="278" y="487"/>
      <point x="272" y="488" type="curve"/>
      <point x="264" y="456" type="line"/>
      <point x="277" y="455"/>
      <point x="287" y="455"/>
      <point x="298" y="455" type="curve" smooth="yes"/>
      <point x="371" y="455"/>
      <point x="408" y="487"/>
      <point x="408" y="533" type="curve" smooth="yes"/>
      <point x="408" y="577"/>
      <point x="374" y="598"/>
      <point x="310" y="598" type="curve" smooth="yes"/>
    </contour>
    <contour>
      <point x="283" y="379" type="line"/>
      <point x="233" y="379" type="line"/>
      <point x="222" y="378" type="line" smooth="yes"/>
      <point x="202" y="377"/>
      <point x="205" y="349"/>
      <point x="205" y="345" type="curve"/>
      <point x="300" y="345" type="line" smooth="yes"/>
      <point x="320" y="345"/>
      <point x="319" y="373"/>
      <point x="318" y="377" type="curve"/>
    </contour>
    <contour>
      <point x="285" y="583" type="line"/>
      <point x="233" y="583" type="line"/>
      <point x="233" y="345" type="line"/>
      <point x="285" y="345" type="line"/>
    </contour>
    <contour>
      <point x="290" y="468" type="line"/>
      <point x="305" y="421"/>
      <point x="349" y="340"/>
      <point x="399" y="340" type="curve" smooth="yes"/>
      <point x="419" y="340"/>
      <point x="435" y="353"/>
      <point x="438" y="374" type="curve"/>
      <point x="404" y="374"/>
      <point x="366" y="411"/>
      <point x="336" y="472" type="curve"/>
    </contour>
  </outline>
</glyph>
<glyph name="macron" format="1">
  <advance width="600"/>
  <unicode hex="00AF"/>
  <outline>
    <contour>
      <point x="258" y="499" type="move" name="_top"/>
    </contour>
    <contour>
      <point x="116" y="643" type="line"/>
      <point x="116" y="578" type="line"/>
      <point x="399" y="578" type="line"/>
      <point x="399" y="643" type="line"/>
    </contour>
  </outline>
</glyph>
<glyph name="degree" format="1">
  <advance width="365"/>
  <unicode hex="00B0"/>
  <outline>
    <contour>
      <point x="57" y="579" type="curve" smooth="yes"/>
      <point x="57" y="507"/>
      <point x="109" y="458"/>
      <point x="183" y="458" type="curve" smooth="yes"/>
      <point x="255" y="458"/>
      <point x="308" y="508"/>
      <point x="308" y="580" type="curve" smooth="yes"/>
      <point x="308" y="652"/>
      <point x="256" y="700"/>
      <point x="183" y="700" type="curve" smooth="yes"/>
      <point x="111" y="700"/>
      <point x="57" y="652"/>
    </contour>
    <contour>
      <point x="125" y="580" type="curve" smooth="yes"/>
      <point x="125" y="614"/>
      <point x="147" y="639"/>
      <point x="183" y="639" type="curve" smooth="yes"/>
      <point x="217" y="639"/>
      <point x="240" y="614"/>
      <point x="240" y="579" type="curve" smooth="yes"/>
      <point x="240" y="545"/>
      <point x="218" y="519"/>
      <point x="183" y="519" type="curve" smooth="yes"/>
      <point x="148" y="519"/>
      <point x="125" y="545"/>
    </contour>
  </outline>
</glyph>
<glyph name="plusminus" format="1">
  <advance width="497"/>
  <unicode hex="00B1"/>
  <outline>
    <contour>
      <point x="50" y="310" type="line"/>
      <point x="50" y="239" type="line"/>
      <point x="447" y="239" type="line"/>
      <point x="447" y="310" type="line"/>
    </contour>
    <contour>
      <point x="286" y="473" type="line"/>
      <point x="213" y="473" type="line"/>
      <point x="213" y="133" type="line"/>
      <point x="286" y="133" type="line"/>
    </contour>
    <contour>
      <point x="50" y="91" type="line"/>
      <point x="50" y="20" type="line"/>
      <point x="447" y="20" type="line"/>
      <point x="447" y="91" type="line"/>
    </contour>
  </outline>
</glyph>
<glyph name="twosuperior" format="1">
  <advance width="341"/>
  <unicode hex="00B2"/>
  <outline>
    <contour>
      <point x="167" y="628" type="curve" smooth="yes"/>
      <point x="99" y="628"/>
      <point x="46" y="594"/>
      <point x="46" y="547" type="curve" smooth="yes"/>
      <point x="46" y="510"/>
      <point x="77" y="502"/>
      <point x="107" y="503" type="curve"/>
      <point x="107" y="544"/>
      <point x="123" y="583"/>
      <point x="167" y="583" type="curve" smooth="yes"/>
      <point x="196" y="583"/>
      <point x="212" y="559"/>
      <point x="212" y="530" type="curve" smooth="yes"/>
      <point x="212" y="450"/>
      <point x="102" y="370"/>
      <point x="37" y="318" type="curve"/>
      <point x="35" y="311"/>
      <point x="45" y="283"/>
      <point x="47" y="278" type="curve"/>
      <point x="307" y="278" type="line"/>
      <point x="307" y="382" type="line"/>
      <point x="292" y="387"/>
      <point x="269" y="382"/>
      <point x="267" y="362" type="curve" smooth="yes"/>
      <point x="263" y="327" type="line"/>
      <point x="85" y="327" type="line"/>
      <point x="114" y="317" type="line"/>
      <point x="154" y="339"/>
      <point x="293" y="432"/>
      <point x="293" y="532" type="curve" smooth="yes"/>
      <point x="293" y="588"/>
      <point x="249" y="628"/>
    </contour>
  </outline>
</glyph>
<glyph name="threesuperior" format="1">
  <advance width="316"/>
  <unicode hex="00B3"/>
  <outline>
    <contour>
      <point x="161" y="628" type="curve" smooth="yes"/>
      <point x="90" y="628"/>
      <point x="55" y="599"/>
      <point x="54" y="566" type="curve" smooth="yes"/>
      <point x="54" y="546"/>
      <point x="66" y="531"/>
      <point x="101" y="530" type="curve"/>
      <point x="103" y="553"/>
      <point x="115" y="583"/>
      <point x="154" y="583" type="curve" smooth="yes"/>
      <point x="180" y="583"/>
      <point x="195" y="569"/>
      <point x="195" y="547" type="curve" smooth="yes"/>
      <point x="195" y="494"/>
      <point x="129" y="480"/>
      <point x="99" y="480" type="curve"/>
      <point x="99" y="431" type="line"/>
      <point x="154" y="435"/>
      <point x="209" y="426"/>
      <point x="210" y="374" type="curve" smooth="yes"/>
      <point x="210" y="340"/>
      <point x="183" y="317"/>
      <point x="144" y="317" type="curve" smooth="yes"/>
      <point x="106" y="317"/>
      <point x="81" y="340"/>
      <point x="80" y="368" type="curve"/>
      <point x="49" y="368"/>
      <point x="35" y="350"/>
      <point x="35" y="332" type="curve" smooth="yes"/>
      <point x="35" y="301"/>
      <point x="75" y="272"/>
      <point x="147" y="272" type="curve" smooth="yes"/>
      <point x="241" y="272"/>
      <point x="293" y="321"/>
      <point x="293" y="378" type="curve" smooth="yes"/>
      <point x="293" y="440"/>
      <point x="232" y="481"/>
      <point x="128" y="466" type="curve"/>
      <point x="134" y="457" type="line"/>
      <point x="257" y="468"/>
      <point x="278" y="518"/>
      <point x="278" y="550" type="curve" smooth="yes"/>
      <point x="278" y="599"/>
      <point x="232" y="628"/>
    </contour>
  </outline>
</glyph>
<glyph name="acute" format="1">
  <advance width="600"/>
  <unicode hex="00B4"/>
  <outline>
    <contour>
      <point x="248" y="499" type="move" name="_top"/>
    </contour>
    <contour>
      <point x="407" y="654" type="line"/>
      <point x="397" y="675"/>
      <point x="363" y="710"/>
      <point x="333" y="715" type="curve"/>
      <point x="166" y="582" type="line"/>
      <point x="172" y="569"/>
      <point x="183" y="555"/>
      <point x="204" y="545" type="curve"/>
    </contour>
  </outline>
</glyph>
<glyph name="mu.math" format="1">
  <advance width="577"/>
  <unicode hex="00B5"/>
  <outline>
    <contour>
      <point x="178" y="499" type="line"/>
      <point x="76" y="499" type="line"/>
      <point x="76" y="192" type="line" smooth="yes"/>
      <point x="76" y="39"/>
      <point x="169" y="-15"/>
      <point x="256" y="-15" type="curve" smooth="yes"/>
      <point x="324" y="-15"/>
      <point x="368" y="16"/>
      <point x="404" y="48" type="curve"/>
      <point x="392" y="106" type="line"/>
      <point x="360" y="80"/>
      <point x="329" y="64"/>
      <point x="283" y="64" type="curve" smooth="yes"/>
      <point x="216" y="64"/>
      <point x="178" y="101"/>
      <point x="178" y="192" type="curve" smooth="yes"/>
    </contour>
    <contour>
      <point x="78" y="177" type="line"/>
      <point x="72" y="-214" type="line"/>
      <point x="85" y="-225"/>
      <point x="159" y="-225"/>
      <point x="177" y="-214" type="curve"/>
      <point x="170" y="67" type="line"/>
    </contour>
    <contour>
      <point x="489" y="499" type="line"/>
      <point x="388" y="499" type="line"/>
      <point x="388" y="81" type="line" smooth="yes"/>
      <point x="388" y="29"/>
      <point x="408" y="-15"/>
      <point x="480" y="-15" type="curve" smooth="yes"/>
      <point x="535" y="-15"/>
      <point x="555" y="10"/>
      <point x="555" y="40" type="curve"/>
      <point x="489" y="48" type="line"/>
    </contour>
  </outline>
</glyph>
<glyph name="paragraph" format="1">
  <advance width="695"/>
  <unicode hex="00B6"/>
  <outline>
    <contour>
      <point x="253" y="683" type="line"/>
      <point x="123" y="683"/>
      <point x="47" y="599"/>
      <point x="47" y="487" type="curve" smooth="yes"/>
      <point x="47" y="348"/>
      <point x="150" y="283"/>
      <point x="272" y="283" type="curve"/>
      <point x="272" y="-90" type="line"/>
      <point x="376" y="-90" type="line"/>
      <point x="376" y="621" type="line"/>
      <point x="471" y="621" type="line"/>
      <point x="471" y="-90" type="line"/>
      <point x="575" y="-90" type="line"/>
      <point x="575" y="621" type="line"/>
      <point x="648" y="627" type="line"/>
      <point x="649" y="656"/>
      <point x="640" y="683"/>
      <point x="614" y="683" type="curve" smooth="yes"/>
    </contour>
  </outline>
</glyph>
<glyph name="periodcentered" format="1">
  <advance width="224"/>
  <unicode hex="00B7"/>
  <outline>
    <contour>
      <point x="112" y="200" type="curve" smooth="yes"/>
      <point x="153" y="200"/>
      <point x="184" y="231"/>
      <point x="184" y="272" type="curve" smooth="yes"/>
      <point x="184" y="312"/>
      <point x="153" y="344"/>
      <point x="112" y="344" type="curve" smooth="yes"/>
      <point x="72" y="344"/>
      <point x="40" y="312"/>
      <point x="40" y="272" type="curve" smooth="yes"/>
      <point x="40" y="231"/>
      <point x="72" y="200"/>
    </contour>
  </outline>
</glyph>
<glyph name="cedilla" format="1">
  <advance width="600"/>
  <unicode hex="00B8"/>
  <outline>
    <contour>
      <point x="288" y="0" type="move" name="_bottom"/>
    </contour>
    <contour>
      <point x="317" y="18" type="line"/>
      <point x="269" y="18" type="line"/>
      <point x="242" y="-83" type="line"/>
      <point x="303" y="-83"/>
      <point x="313" y="-98"/>
      <point x="313" y="-118" type="curve" smooth="yes"/>
      <point x="313" y="-142"/>
      <point x="296" y="-150"/>
      <point x="274" y="-150" type="curve" smooth="yes"/>
      <point x="253" y="-150"/>
      <point x="237" y="-144"/>
      <point x="225" y="-134" type="curve"/>
      <point x="219" y="-138"/>
      <point x="211" y="-157"/>
      <point x="213" y="-172" type="curve"/>
      <point x="227" y="-187"/>
      <point x="251" y="-200"/>
      <point x="286" y="-200" type="curve" smooth="yes"/>
      <point x="345" y="-200"/>
      <point x="384" y="-165"/>
      <point x="384" y="-117" type="curve" smooth="yes"/>
      <point x="384" y="-80"/>
      <point x="361" y="-45"/>
      <point x="302" y="-45" type="curve"/>
    </contour>
  </outline>
</glyph>
<glyph name="onesuperior" format="1">
  <advance width="286"/>
  <unicode hex="00B9"/>
  <outline>
    <contour>
      <point x="191" y="594" type="line"/>
      <point x="191" y="614"/>
      <point x="183" y="624"/>
      <point x="169" y="624" type="curve" smooth="yes"/>
      <point x="160" y="624"/>
      <point x="139" y="623"/>
      <point x="127" y="617" type="curve" smooth="yes"/>
      <point x="35" y="566" type="line"/>
      <point x="34" y="559"/>
      <point x="49" y="526"/>
      <point x="73" y="533" type="curve" smooth="yes"/>
      <point x="112" y="545" type="line"/>
      <point x="112" y="281" type="line"/>
      <point x="191" y="281" type="line"/>
    </contour>
    <contour>
      <point x="191" y="326" type="line"/>
      <point x="112" y="325" type="line"/>
      <point x="76" y="323" type="line" smooth="yes"/>
      <point x="46" y="321"/>
      <point x="50" y="287"/>
      <point x="49" y="281" type="curve"/>
      <point x="224" y="281" type="line" smooth="yes"/>
      <point x="254" y="281"/>
      <point x="251" y="316"/>
      <point x="251" y="322" type="curve"/>
    </contour>
  </outline>
</glyph>
<glyph name="ordmasculine" format="1">
  <advance width="387"/>
  <unicode hex="00BA"/>
  <outline>
    <contour>
      <point x="197" y="316" type="move" name="top"/>
    </contour>
    <contour>
      <point x="196" y="629" type="curve" smooth="yes"/>
      <point x="95" y="629"/>
      <point x="42" y="566"/>
      <point x="43" y="460" type="curve" smooth="yes"/>
      <point x="43" y="363"/>
      <point x="89" y="306"/>
      <point x="181" y="306" type="curve" smooth="yes"/>
      <point x="280" y="306"/>
      <point x="334" y="365"/>
      <point x="334" y="467" type="curve" smooth="yes"/>
      <point x="334" y="562"/>
      <point x="284" y="629"/>
    </contour>
    <contour>
      <point x="189" y="576" type="curve" smooth="yes"/>
      <point x="230" y="576"/>
      <point x="252" y="535"/>
      <point x="252" y="462" type="curve" smooth="yes"/>
      <point x="252" y="398"/>
      <point x="229" y="359"/>
      <point x="189" y="359" type="curve" smooth="yes"/>
      <point x="148" y="359"/>
      <point x="124" y="397"/>
      <point x="124" y="467" type="curve" smooth="yes"/>
      <point x="124" y="533"/>
      <point x="148" y="576"/>
    </contour>
  </outline>
</glyph>
<glyph name="guillemotright" format="1">
  <advance width="596"/>
  <unicode hex="00BB"/>
  <outline>
    <contour>
      <point x="28" y="440" type="line"/>
      <point x="75" y="482" type="line"/>
      <point x="319" y="275" type="line"/>
      <point x="324" y="257"/>
      <point x="324" y="239"/>
      <point x="319" y="222" type="curve"/>
      <point x="75" y="15" type="line"/>
      <point x="24" y="57" type="line"/>
      <point x="201" y="244" type="line"/>
      <point x="201" y="252" type="line"/>
    </contour>
    <contour>
      <point x="256" y="440" type="line"/>
      <point x="303" y="482" type="line"/>
      <point x="547" y="275" type="line"/>
      <point x="551" y="257"/>
      <point x="551" y="239"/>
      <point x="547" y="222" type="curve"/>
      <point x="303" y="15" type="line"/>
      <point x="251" y="57" type="line"/>
      <point x="428" y="244" type="line"/>
      <point x="428" y="252" type="line"/>
    </contour>
  </outline>
</glyph>
<glyph name="onequarter" format="1">
  <advance width="698"/>
  <unicode hex="00BC"/>
  <outline>
    <contour>
      <point x="581" y="627" type="line"/>
      <point x="492" y="627" type="line"/>
      <point x="136" y="0" type="line"/>
      <point x="225" y="0" type="line"/>
    </contour>
    <contour>
      <point x="185" y="595" type="line"/>
      <point x="185" y="615"/>
      <point x="177" y="625"/>
      <point x="163" y="625" type="curve" smooth="yes"/>
      <point x="155" y="625"/>
      <point x="134" y="624"/>
      <point x="122" y="618" type="curve" smooth="yes"/>
      <point x="29" y="567" type="line"/>
      <point x="28" y="559"/>
      <point x="44" y="526"/>
      <point x="68" y="533" type="curve" smooth="yes"/>
      <point x="107" y="545" type="line"/>
      <point x="107" y="277" type="line"/>
      <point x="185" y="277" type="line"/>
    </contour>
    <contour>
      <point x="185" y="323" type="line"/>
      <point x="107" y="322" type="line"/>
      <point x="71" y="320" type="line" smooth="yes"/>
      <point x="42" y="318"/>
      <point x="46" y="283"/>
      <point x="45" y="277" type="curve"/>
      <point x="218" y="277" type="line" smooth="yes"/>
      <point x="248" y="277"/>
      <point x="245" y="313"/>
      <point x="245" y="319" type="curve"/>
    </contour>
    <contour>
      <point x="614" y="349" type="line"/>
      <point x="597" y="351"/>
      <point x="568" y="349"/>
      <point x="549" y="345" type="curve"/>
      <point x="375" y="100" type="line"/>
      <point x="377" y="86"/>
      <point x="383" y="75"/>
      <point x="392" y="63" type="curve"/>
      <point x="662" y="63" type="line"/>
      <point x="662" y="109" type="line"/>
      <point x="401" y="109" type="line"/>
      <point x="430" y="96" type="line"/>
      <point x="591" y="326" type="line"/>
      <point x="536" y="300" type="line"/>
      <point x="536" y="-13" type="line"/>
      <point x="615" y="-8" type="line"/>
    </contour>
  </outline>
</glyph>
<glyph name="onehalf" format="1">
  <advance width="698"/>
  <unicode hex="00BD"/>
  <outline>
    <contour>
      <point x="568" y="627" type="line"/>
      <point x="479" y="627" type="line"/>
      <point x="124" y="0" type="line"/>
      <point x="213" y="0" type="line"/>
    </contour>
    <contour>
      <point x="175" y="322" type="line"/>
      <point x="96" y="321" type="line"/>
      <point x="61" y="319" type="line" smooth="yes"/>
      <point x="31" y="317"/>
      <point x="35" y="282"/>
      <point x="34" y="276" type="curve"/>
      <point x="207" y="276" type="line" smooth="yes"/>
      <point x="237" y="276"/>
      <point x="235" y="312"/>
      <point x="234" y="318" type="curve"/>
    </contour>
    <contour>
      <point x="153" y="624" type="curve" smooth="yes"/>
      <point x="144" y="624"/>
      <point x="123" y="623"/>
      <point x="112" y="616" type="curve" smooth="yes"/>
      <point x="19" y="565" type="line"/>
      <point x="18" y="558"/>
      <point x="33" y="524"/>
      <point x="57" y="532" type="curve" smooth="yes"/>
      <point x="96" y="544" type="line"/>
      <point x="96" y="276" type="line"/>
      <point x="175" y="276" type="line"/>
      <point x="175" y="594" type="line" smooth="yes"/>
      <point x="175" y="614"/>
      <point x="167" y="624"/>
    </contour>
    <contour>
      <point x="539" y="350" type="curve" smooth="yes"/>
      <point x="472" y="350"/>
      <point x="418" y="316"/>
      <point x="418" y="269" type="curve" smooth="yes"/>
      <point x="418" y="233"/>
      <point x="449" y="224"/>
      <point x="479" y="225" type="curve"/>
      <point x="479" y="266"/>
      <point x="495" y="305"/>
      <point x="539" y="305" type="curve" smooth="yes"/>
      <point x="568" y="305"/>
      <point x="584" y="282"/>
      <point x="584" y="252" type="curve" smooth="yes"/>
      <point x="584" y="172"/>
      <point x="474" y="93"/>
      <point x="409" y="40" type="curve"/>
      <point x="408" y="33"/>
      <point x="417" y="5"/>
      <point x="419" y="0" type="curve"/>
      <point x="680" y="0" type="line"/>
      <point x="680" y="104" type="line"/>
      <point x="664" y="109"/>
      <point x="642" y="104"/>
      <point x="639" y="84" type="curve" smooth="yes"/>
      <point x="635" y="49" type="line"/>
      <point x="457" y="49" type="line"/>
      <point x="486" y="39" type="line"/>
      <point x="527" y="62"/>
      <point x="665" y="155"/>
      <point x="665" y="254" type="curve" smooth="yes"/>
      <point x="665" y="310"/>
      <point x="621" y="350"/>
    </contour>
  </outline>
</glyph>
<glyph name="threequarters" format="1">
  <advance width="698"/>
  <unicode hex="00BE"/>
  <outline>
    <contour>
      <point x="600" y="627" type="line"/>
      <point x="511" y="627" type="line"/>
      <point x="156" y="0" type="line"/>
      <point x="245" y="0" type="line"/>
    </contour>
    <contour>
      <point x="157" y="628" type="curve" smooth="yes"/>
      <point x="87" y="628"/>
      <point x="51" y="599"/>
      <point x="50" y="566" type="curve" smooth="yes"/>
      <point x="50" y="546"/>
      <point x="62" y="531"/>
      <point x="97" y="530" type="curve"/>
      <point x="99" y="553"/>
      <point x="111" y="583"/>
      <point x="150" y="583" type="curve" smooth="yes"/>
      <point x="176" y="583"/>
      <point x="191" y="569"/>
      <point x="191" y="547" type="curve" smooth="yes"/>
      <point x="191" y="494"/>
      <point x="125" y="480"/>
      <point x="95" y="480" type="curve"/>
      <point x="95" y="431" type="line"/>
      <point x="151" y="435"/>
      <point x="205" y="426"/>
      <point x="206" y="374" type="curve" smooth="yes"/>
      <point x="206" y="340"/>
      <point x="179" y="317"/>
      <point x="140" y="317" type="curve" smooth="yes"/>
      <point x="102" y="317"/>
      <point x="77" y="340"/>
      <point x="76" y="368" type="curve"/>
      <point x="45" y="368"/>
      <point x="31" y="350"/>
      <point x="31" y="332" type="curve" smooth="yes"/>
      <point x="31" y="301"/>
      <point x="71" y="272"/>
      <point x="143" y="272" type="curve" smooth="yes"/>
      <point x="237" y="272"/>
      <point x="289" y="321"/>
      <point x="289" y="378" type="curve" smooth="yes"/>
      <point x="289" y="440"/>
      <point x="228" y="481"/>
      <point x="124" y="466" type="curve"/>
      <point x="130" y="457" type="line"/>
      <point x="253" y="468"/>
      <point x="274" y="518"/>
      <point x="274" y="550" type="curve" smooth="yes"/>
      <point x="274" y="599"/>
      <point x="228" y="628"/>
    </contour>
    <contour>
      <point x="621" y="349" type="line"/>
      <point x="604" y="351"/>
      <point x="575" y="349"/>
      <point x="556" y="345" type="curve"/>
      <point x="382" y="100" type="line"/>
      <point x="384" y="86"/>
      <point x="390" y="75"/>
      <point x="399" y="63" type="curve"/>
      <point x="669" y="63" type="line"/>
      <point x="669" y="109" type="line"/>
      <point x="408" y="109" type="line"/>
      <point x="437" y="96" type="line"/>
      <point x="599" y="326" type="line"/>
      <point x="543" y="300" type="line"/>
      <point x="543" y="-13" type="line"/>
      <point x="622" y="-8" type="line"/>
    </contour>
  </outline>
</glyph>
<glyph name="Acircumflex" format="1">
  <advance width="641"/>
  <unicode hex="00C2"/>
  <outline>
    <contour>
      <point x="163" y="63" type="line"/>
      <point x="91" y="61" type="line"/>
      <point x="51" y="59" type="line" smooth="yes"/>
      <point x="7" y="56"/>
      <point x="13" y="10"/>
      <point x="12" y="0" type="curve"/>
      <point x="203" y="0" type="line" smooth="yes"/>
      <point x="247" y="0"/>
      <point x="243" y="47"/>
      <point x="242" y="57" type="curve"/>
    </contour>
    <contour>
      <point x="558" y="63" type="line"/>
      <point x="445" y="61" type="line"/>
      <point x="410" y="59" type="line" smooth="yes"/>
      <point x="366" y="56"/>
      <point x="372" y="10"/>
      <point x="371" y="0" type="curve"/>
      <point x="589" y="0" type="line" smooth="yes"/>
      <point x="632" y="0"/>
      <point x="628" y="47"/>
      <point x="627" y="57" type="curve"/>
    </contour>
    <contour>
      <point x="171" y="281" type="line"/>
      <point x="171" y="221" type="line"/>
      <point x="437" y="221" type="line"/>
      <point x="437" y="281" type="line"/>
    </contour>
    <contour>
      <point x="460" y="9" type="line"/>
      <point x="568" y="34" type="line"/>
      <point x="369" y="682" type="line"/>
      <point x="336" y="685"/>
      <point x="316" y="686"/>
      <point x="282" y="682" type="curve"/>
      <point x="73" y="7" type="line"/>
      <point x="146" y="6" type="line"/>
      <point x="328" y="628" type="line"/>
      <point x="287" y="629" type="line"/>
    </contour>
    <contour>
      <point x="362" y="880" type="line"/>
      <point x="335" y="887"/>
      <point x="319" y="887"/>
      <point x="291" y="880" type="curve"/>
      <point x="155" y="756" type="line"/>
      <point x="164" y="740"/>
      <point x="172" y="731"/>
      <point x="187" y="722" type="curve"/>
      <point x="365" y="834" type="line"/>
      <point x="284" y="834" type="line"/>
      <point x="461" y="722" type="line"/>
      <point x="476" y="730"/>
      <point x="487" y="743"/>
      <point x="495" y="756" type="curve"/>
    </contour>
  </outline>
</glyph>
<glyph name="Atilde" format="1">
  <advance width="641"/>
  <unicode hex="00C3"/>
  <outline>
    <contour>
      <point x="163" y="63" type="line"/>
      <point x="91" y="61" type="line"/>
      <point x="51" y="59" type="line" smooth="yes"/>
      <point x="7" y="56"/>
      <point x="13" y="10"/>
      <point x="12" y="0" type="curve"/>
      <point x="203" y="0" type="line" smooth="yes"/>
      <point x="247" y="0"/>
      <point x="243" y="47"/>
      <point x="242" y="57" type="curve"/>
    </contour>
    <contour>
      <point x="558" y="63" type="line"/>
      <point x="445" y="61" type="line"/>
      <point x="410" y="59" type="line" smooth="yes"/>
      <point x="366" y="56"/>
      <point x="372" y="10"/>
      <point x="371" y="0" type="curve"/>
      <point x="589" y="0" type="line" smooth="yes"/>
      <point x="632" y="0"/>
      <point x="628" y="47"/>
      <point x="627" y="57" type="curve"/>
    </contour>
    <contour>
      <point x="171" y="281" type="line"/>
      <point x="171" y="221" type="line"/>
      <point x="437" y="221" type="line"/>
      <point x="437" y="281" type="line"/>
    </contour>
    <contour>
      <point x="460" y="9" type="line"/>
      <point x="568" y="34" type="line"/>
      <point x="369" y="682" type="line"/>
      <point x="336" y="685"/>
      <point x="316" y="686"/>
      <point x="282" y="682" type="curve"/>
      <point x="73" y="7" type="line"/>
      <point x="146" y="6" type="line"/>
      <point x="328" y="628" type="line"/>
      <point x="287" y="629" type="line"/>
    </contour>
    <contour>
      <point x="189" y="752" type="line"/>
      <point x="197" y="777"/>
      <point x="218" y="798"/>
      <point x="244" y="798" type="curve" smooth="yes"/>
      <point x="289" y="798"/>
      <point x="318" y="746"/>
      <point x="387" y="746" type="curve" smooth="yes"/>
      <point x="452" y="746"/>
      <point x="486" y="791"/>
      <point x="497" y="866" type="curve"/>
      <point x="465" y="875" type="line"/>
      <point x="458" y="846"/>
      <point x="436" y="824"/>
      <point x="401" y="824" type="curve" smooth="yes"/>
      <point x="347" y="824"/>
      <point x="322" y="881"/>
      <point x="261" y="881" type="curve" smooth="yes"/>
      <point x="208" y="881"/>
      <point x="168" y="835"/>
      <point x="156" y="764" type="curve"/>
    </contour>
  </outline>
</glyph>
<glyph name="Adieresis" format="1">
  <advance width="641"/>
  <unicode hex="00C4"/>
  <outline>
    <contour>
      <point x="163" y="63" type="line"/>
      <point x="91" y="61" type="line"/>
      <point x="51" y="59" type="line" smooth="yes"/>
      <point x="7" y="56"/>
      <point x="13" y="10"/>
      <point x="12" y="0" type="curve"/>
      <point x="203" y="0" type="line" smooth="yes"/>
      <point x="247" y="0"/>
      <point x="243" y="47"/>
      <point x="242" y="57" type="curve"/>
    </contour>
    <contour>
      <point x="558" y="63" type="line"/>
      <point x="445" y="61" type="line"/>
      <point x="410" y="59" type="line" smooth="yes"/>
      <point x="366" y="56"/>
      <point x="372" y="10"/>
      <point x="371" y="0" type="curve"/>
      <point x="589" y="0" type="line" smooth="yes"/>
      <point x="632" y="0"/>
      <point x="628" y="47"/>
      <point x="627" y="57" type="curve"/>
    </contour>
    <contour>
      <point x="171" y="281" type="line"/>
      <point x="171" y="221" type="line"/>
      <point x="437" y="221" type="line"/>
      <point x="437" y="281" type="line"/>
    </contour>
    <contour>
      <point x="460" y="9" type="line"/>
      <point x="568" y="34" type="line"/>
      <point x="369" y="682" type="line"/>
      <point x="336" y="685"/>
      <point x="316" y="686"/>
      <point x="282" y="682" type="curve"/>
      <point x="73" y="7" type="line"/>
      <point x="146" y="6" type="line"/>
      <point x="328" y="628" type="line"/>
      <point x="287" y="629" type="line"/>
    </contour>
    <contour>
      <point x="232" y="753" type="curve" smooth="yes"/>
      <point x="267" y="753"/>
      <point x="294" y="781"/>
      <point x="294" y="816" type="curve" smooth="yes"/>
      <point x="294" y="850"/>
      <point x="267" y="879"/>
      <point x="232" y="879" type="curve" smooth="yes"/>
      <point x="196" y="879"/>
      <point x="167" y="850"/>
      <point x="167" y="816" type="curve" smooth="yes"/>
      <point x="167" y="781"/>
      <point x="196" y="753"/>
    </contour>
    <contour>
      <point x="411" y="753" type="curve" smooth="yes"/>
      <point x="448" y="753"/>
      <point x="475" y="781"/>
      <point x="475" y="816" type="curve" smooth="yes"/>
      <point x="475" y="850"/>
      <point x="448" y="879"/>
      <point x="411" y="879" type="curve" smooth="yes"/>
      <point x="377" y="879"/>
      <point x="349" y="850"/>
      <point x="349" y="816" type="curve" smooth="yes"/>
      <point x="349" y="781"/>
      <point x="377" y="753"/>
    </contour>
  </outline>
</glyph>
<glyph name="Aring" format="1">
  <advance width="641"/>
  <unicode hex="00C5"/>
  <outline>
    <contour>
      <point x="163" y="63" type="line"/>
      <point x="91" y="61" type="line"/>
      <point x="51" y="59" type="line" smooth="yes"/>
      <point x="7" y="56"/>
      <point x="13" y="10"/>
      <point x="12" y="0" type="curve"/>
      <point x="203" y="0" type="line" smooth="yes"/>
      <point x="247" y="0"/>
      <point x="243" y="47"/>
      <point x="242" y="57" type="curve"/>
    </contour>
    <contour>
      <point x="558" y="63" type="line"/>
      <point x="445" y="61" type="line"/>
      <point x="410" y="59" type="line" smooth="yes"/>
      <point x="366" y="56"/>
      <point x="372" y="10"/>
      <point x="371" y="0" type="curve"/>
      <point x="589" y="0" type="line" smooth="yes"/>
      <point x="632" y="0"/>
      <point x="628" y="47"/>
      <point x="627" y="57" type="curve"/>
    </contour>
    <contour>
      <point x="171" y="281" type="line"/>
      <point x="171" y="221" type="line"/>
      <point x="437" y="221" type="line"/>
      <point x="437" y="281" type="line"/>
    </contour>
    <contour>
      <point x="460" y="9" type="line"/>
      <point x="568" y="34" type="line"/>
      <point x="369" y="682" type="line"/>
      <point x="336" y="685"/>
      <point x="316" y="686"/>
      <point x="282" y="682" type="curve"/>
      <point x="73" y="7" type="line"/>
      <point x="146" y="6" type="line"/>
      <point x="328" y="628" type="line"/>
      <point x="287" y="629" type="line"/>
    </contour>
    <contour>
      <point x="330" y="908" type="curve" smooth="yes"/>
      <point x="273" y="908"/>
      <point x="234" y="871"/>
      <point x="234" y="816" type="curve" smooth="yes"/>
      <point x="234" y="764"/>
      <point x="271" y="729"/>
      <point x="326" y="729" type="curve" smooth="yes"/>
      <point x="382" y="729"/>
      <point x="420" y="765"/>
      <point x="421" y="820" type="curve" smooth="yes"/>
      <point x="422" y="872"/>
      <point x="386" y="908"/>
    </contour>
    <contour>
      <point x="328" y="861" type="curve" smooth="yes"/>
      <point x="354" y="861"/>
      <point x="372" y="845"/>
      <point x="372" y="818" type="curve" smooth="yes"/>
      <point x="372" y="791"/>
      <point x="354" y="774"/>
      <point x="328" y="774" type="curve" smooth="yes"/>
      <point x="301" y="774"/>
      <point x="284" y="791"/>
      <point x="284" y="818" type="curve" smooth="yes"/>
      <point x="284" y="845"/>
      <point x="301" y="861"/>
    </contour>
  </outline>
</glyph>
<glyph name="AE" format="1">
  <advance width="889"/>
  <unicode hex="00C6"/>
  <outline>
    <contour>
      <point x="700" y="692" type="move" name="top"/>
    </contour>
    <contour>
      <point x="857" y="-12" type="move" name="ogonek"/>
    </contour>
    <contour>
      <point x="684" y="0" type="move" name="bottom"/>
    </contour>
    <contour>
      <point x="834" y="683" type="line"/>
      <point x="393" y="682" type="line"/>
      <point x="64" y="7" type="line"/>
      <point x="137" y="6" type="line"/>
      <point x="429" y="620" type="line"/>
      <point x="435" y="619" type="line"/>
      <point x="435" y="61" type="line"/>
      <point x="400" y="59" type="line" smooth="yes"/>
      <point x="356" y="56"/>
      <point x="361" y="10"/>
      <point x="361" y="0" type="curve"/>
      <point x="854" y="0" type="line"/>
      <point x="854" y="153" type="line" smooth="yes"/>
      <point x="854" y="193"/>
      <point x="807" y="188"/>
      <point x="797" y="187" type="curve"/>
      <point x="788" y="71" type="line"/>
      <point x="540" y="63" type="line"/>
      <point x="540" y="305" type="line"/>
      <point x="725" y="295" type="line"/>
      <point x="730" y="323"/>
      <point x="730" y="359"/>
      <point x="724" y="384" type="curve"/>
      <point x="540" y="366" type="line"/>
      <point x="540" y="621" type="line"/>
      <point x="768" y="617" type="line"/>
      <point x="777" y="501" type="line"/>
      <point x="787" y="500"/>
      <point x="834" y="496"/>
      <point x="834" y="535" type="curve" smooth="yes"/>
    </contour>
    <contour>
      <point x="163" y="63" type="line"/>
      <point x="91" y="61" type="line"/>
      <point x="51" y="59" type="line" smooth="yes"/>
      <point x="7" y="56"/>
      <point x="13" y="10"/>
      <point x="12" y="0" type="curve"/>
      <point x="203" y="0" type="line" smooth="yes"/>
      <point x="247" y="0"/>
      <point x="243" y="47"/>
      <point x="242" y="57" type="curve"/>
    </contour>
    <contour>
      <point x="500" y="359" type="line"/>
      <point x="250" y="359" type="line"/>
      <point x="250" y="299" type="line"/>
      <point x="500" y="299" type="line"/>
    </contour>
  </outline>
</glyph>
<glyph name="Ccedilla" format="1">
  <advance width="586"/>
  <unicode hex="00C7"/>
  <outline>
    <contour>
      <point x="357" y="697" type="curve" smooth="yes"/>
      <point x="144" y="697"/>
      <point x="35" y="540"/>
      <point x="37" y="328" type="curve" smooth="yes"/>
      <point x="38" y="117"/>
      <point x="136" y="-15"/>
      <point x="330" y="-15" type="curve" smooth="yes"/>
      <point x="461" y="-15"/>
      <point x="557" y="51"/>
      <point x="557" y="96" type="curve" smooth="yes"/>
      <point x="557" y="106"/>
      <point x="551" y="119"/>
      <point x="542" y="125" type="curve"/>
      <point x="507" y="97"/>
      <point x="445" y="64"/>
      <point x="360" y="64" type="curve" smooth="yes"/>
      <point x="204" y="64"/>
      <point x="146" y="169"/>
      <point x="146" y="343" type="curve" smooth="yes"/>
      <point x="146" y="504"/>
      <point x="214" y="623"/>
      <point x="346" y="623" type="curve" smooth="yes"/>
      <point x="424" y="623"/>
      <point x="465" y="576"/>
      <point x="465" y="493" type="curve"/>
      <point x="518" y="493"/>
      <point x="550" y="519"/>
      <point x="550" y="567" type="curve" smooth="yes"/>
      <point x="550" y="638"/>
      <point x="472" y="697"/>
    </contour>
    <contour>
      <point x="363" y="18" type="line"/>
      <point x="315" y="18" type="line"/>
      <point x="288" y="-83" type="line"/>
      <point x="349" y="-83"/>
      <point x="359" y="-98"/>
      <point x="359" y="-118" type="curve" smooth="yes"/>
      <point x="359" y="-142"/>
      <point x="342" y="-150"/>
      <point x="320" y="-150" type="curve" smooth="yes"/>
      <point x="299" y="-150"/>
      <point x="283" y="-144"/>
      <point x="271" y="-134" type="curve"/>
      <point x="265" y="-138"/>
      <point x="257" y="-157"/>
      <point x="259" y="-172" type="curve"/>
      <point x="273" y="-187"/>
      <point x="297" y="-200"/>
      <point x="333" y="-200" type="curve" smooth="yes"/>
      <point x="392" y="-200"/>
      <point x="431" y="-165"/>
      <point x="431" y="-117" type="curve" smooth="yes"/>
      <point x="431" y="-80"/>
      <point x="408" y="-45"/>
      <point x="348" y="-45" type="curve"/>
    </contour>
  </outline>
</glyph>
<glyph name="Eacute" format="1">
  <advance width="565"/>
  <unicode hex="00C9"/>
  <outline>
    <contour>
      <point x="220" y="620" type="line"/>
      <point x="448" y="617" type="line"/>
      <point x="457" y="500" type="line"/>
      <point x="467" y="499"/>
      <point x="514" y="495"/>
      <point x="514" y="535" type="curve" smooth="yes"/>
      <point x="514" y="682" type="line"/>
      <point x="82" y="682" type="line" smooth="yes"/>
      <point x="38" y="682"/>
      <point x="42" y="635"/>
      <point x="43" y="625" type="curve"/>
      <point x="115" y="619" type="line"/>
      <point x="115" y="61" type="line"/>
      <point x="80" y="59" type="line" smooth="yes"/>
      <point x="36" y="56"/>
      <point x="41" y="10"/>
      <point x="41" y="0" type="curve"/>
      <point x="530" y="0" type="line"/>
      <point x="530" y="153" type="line" smooth="yes"/>
      <point x="530" y="193"/>
      <point x="484" y="188"/>
      <point x="474" y="187" type="curve"/>
      <point x="465" y="71" type="line"/>
      <point x="220" y="63" type="line"/>
      <point x="220" y="305" type="line"/>
      <point x="405" y="294" type="line"/>
      <point x="410" y="323"/>
      <point x="410" y="358"/>
      <point x="404" y="383" type="curve"/>
      <point x="220" y="365" type="line"/>
    </contour>
    <contour>
      <point x="475" y="840" type="line"/>
      <point x="465" y="861"/>
      <point x="431" y="896"/>
      <point x="400" y="901" type="curve"/>
      <point x="234" y="768" type="line"/>
      <point x="240" y="755"/>
      <point x="251" y="741"/>
      <point x="271" y="731" type="curve"/>
    </contour>
  </outline>
</glyph>
<glyph name="Ecircumflex" format="1">
  <advance width="565"/>
  <unicode hex="00CA"/>
  <outline>
    <contour>
      <point x="220" y="620" type="line"/>
      <point x="448" y="617" type="line"/>
      <point x="457" y="500" type="line"/>
      <point x="467" y="499"/>
      <point x="514" y="495"/>
      <point x="514" y="535" type="curve" smooth="yes"/>
      <point x="514" y="682" type="line"/>
      <point x="82" y="682" type="line" smooth="yes"/>
      <point x="38" y="682"/>
      <point x="42" y="635"/>
      <point x="43" y="625" type="curve"/>
      <point x="115" y="619" type="line"/>
      <point x="115" y="61" type="line"/>
      <point x="80" y="59" type="line" smooth="yes"/>
      <point x="36" y="56"/>
      <point x="41" y="10"/>
      <point x="41" y="0" type="curve"/>
      <point x="530" y="0" type="line"/>
      <point x="530" y="153" type="line" smooth="yes"/>
      <point x="530" y="193"/>
      <point x="484" y="188"/>
      <point x="474" y="187" type="curve"/>
      <point x="465" y="71" type="line"/>
      <point x="220" y="63" type="line"/>
      <point x="220" y="305" type="line"/>
      <point x="405" y="294" type="line"/>
      <point x="410" y="323"/>
      <point x="410" y="358"/>
      <point x="404" y="383" type="curve"/>
      <point x="220" y="365" type="line"/>
    </contour>
    <contour>
      <point x="352" y="880" type="line"/>
      <point x="325" y="887"/>
      <point x="309" y="887"/>
      <point x="281" y="880" type="curve"/>
      <point x="145" y="756" type="line"/>
      <point x="154" y="740"/>
      <point x="162" y="731"/>
      <point x="177" y="722" type="curve"/>
      <point x="356" y="834" type="line"/>
      <point x="275" y="834" type="line"/>
      <point x="452" y="722" type="line"/>
      <point x="466" y="730"/>
      <point x="477" y="743"/>
      <point x="485" y="756" type="curve"/>
    </contour>
  </outline>
</glyph>
<glyph name="Edieresis" format="1">
  <advance width="565"/>
  <unicode hex="00CB"/>
  <outline>
    <contour>
      <point x="220" y="620" type="line"/>
      <point x="448" y="617" type="line"/>
      <point x="457" y="500" type="line"/>
      <point x="467" y="499"/>
      <point x="514" y="495"/>
      <point x="514" y="535" type="curve" smooth="yes"/>
      <point x="514" y="682" type="line"/>
      <point x="82" y="682" type="line" smooth="yes"/>
      <point x="38" y="682"/>
      <point x="42" y="635"/>
      <point x="43" y="625" type="curve"/>
      <point x="115" y="619" type="line"/>
      <point x="115" y="61" type="line"/>
      <point x="80" y="59" type="line" smooth="yes"/>
      <point x="36" y="56"/>
      <point x="41" y="10"/>
      <point x="41" y="0" type="curve"/>
      <point x="530" y="0" type="line"/>
      <point x="530" y="153" type="line" smooth="yes"/>
      <point x="530" y="193"/>
      <point x="484" y="188"/>
      <point x="474" y="187" type="curve"/>
      <point x="465" y="71" type="line"/>
      <point x="220" y="63" type="line"/>
      <point x="220" y="305" type="line"/>
      <point x="405" y="294" type="line"/>
      <point x="410" y="323"/>
      <point x="410" y="358"/>
      <point x="404" y="383" type="curve"/>
      <point x="220" y="365" type="line"/>
    </contour>
    <contour>
      <point x="222" y="753" type="curve" smooth="yes"/>
      <point x="257" y="753"/>
      <point x="284" y="781"/>
      <point x="284" y="816" type="curve" smooth="yes"/>
      <point x="284" y="850"/>
      <point x="257" y="879"/>
      <point x="222" y="879" type="curve" smooth="yes"/>
      <point x="186" y="879"/>
      <point x="158" y="850"/>
      <point x="158" y="816" type="curve" smooth="yes"/>
      <point x="158" y="781"/>
      <point x="186" y="753"/>
    </contour>
    <contour>
      <point x="401" y="753" type="curve" smooth="yes"/>
      <point x="438" y="753"/>
      <point x="466" y="781"/>
      <point x="466" y="816" type="curve" smooth="yes"/>
      <point x="466" y="850"/>
      <point x="438" y="879"/>
      <point x="401" y="879" type="curve" smooth="yes"/>
      <point x="367" y="879"/>
      <point x="339" y="850"/>
      <point x="339" y="816" type="curve" smooth="yes"/>
      <point x="339" y="781"/>
      <point x="367" y="753"/>
    </contour>
  </outline>
</glyph>
<glyph name="Iacute" format="1">
  <advance width="335"/>
  <unicode hex="00CD"/>
  <outline>
    <contour>
      <point x="220" y="652" type="line"/>
      <point x="115" y="654" type="line"/>
      <point x="115" y="0" type="line"/>
      <point x="220" y="0" type="line"/>
    </contour>
    <contour>
      <point x="221" y="63" type="line"/>
      <point x="115" y="61" type="line"/>
      <point x="80" y="59" type="line" smooth="yes"/>
      <point x="36" y="56"/>
      <point x="42" y="10"/>
      <point x="41" y="0" type="curve"/>
      <point x="254" y="0" type="line" smooth="yes"/>
      <point x="298" y="0"/>
      <point x="294" y="47"/>
      <point x="293" y="57" type="curve"/>
    </contour>
    <contour>
      <point x="115" y="619" type="line"/>
      <point x="220" y="621" type="line"/>
      <point x="256" y="623" type="line" smooth="yes"/>
      <point x="300" y="626"/>
      <point x="294" y="672"/>
      <point x="295" y="682" type="curve"/>
      <point x="81" y="682" type="line" smooth="yes"/>
      <point x="38" y="682"/>
      <point x="42" y="635"/>
      <point x="43" y="625" type="curve"/>
    </contour>
    <contour>
      <point x="329" y="840" type="line"/>
      <point x="318" y="861"/>
      <point x="284" y="896"/>
      <point x="254" y="901" type="curve"/>
      <point x="88" y="768" type="line"/>
      <point x="94" y="755"/>
      <point x="104" y="741"/>
      <point x="125" y="731" type="curve"/>
    </contour>
  </outline>
</glyph>
<glyph name="Icircumflex" format="1">
  <advance width="335"/>
  <unicode hex="00CE"/>
  <outline>
    <contour>
      <point x="220" y="652" type="line"/>
      <point x="115" y="654" type="line"/>
      <point x="115" y="0" type="line"/>
      <point x="220" y="0" type="line"/>
    </contour>
    <contour>
      <point x="221" y="63" type="line"/>
      <point x="115" y="61" type="line"/>
      <point x="80" y="59" type="line" smooth="yes"/>
      <point x="36" y="56"/>
      <point x="42" y="10"/>
      <point x="41" y="0" type="curve"/>
      <point x="254" y="0" type="line" smooth="yes"/>
      <point x="298" y="0"/>
      <point x="294" y="47"/>
      <point x="293" y="57" type="curve"/>
    </contour>
    <contour>
      <point x="115" y="619" type="line"/>
      <point x="220" y="621" type="line"/>
      <point x="256" y="623" type="line" smooth="yes"/>
      <point x="300" y="626"/>
      <point x="294" y="672"/>
      <point x="295" y="682" type="curve"/>
      <point x="81" y="682" type="line" smooth="yes"/>
      <point x="38" y="682"/>
      <point x="42" y="635"/>
      <point x="43" y="625" type="curve"/>
    </contour>
    <contour>
      <point x="205" y="880" type="line"/>
      <point x="179" y="887"/>
      <point x="163" y="887"/>
      <point x="135" y="880" type="curve"/>
      <point x="-2" y="756" type="line"/>
      <point x="7" y="740"/>
      <point x="15" y="731"/>
      <point x="31" y="722" type="curve"/>
      <point x="209" y="834" type="line"/>
      <point x="128" y="834" type="line"/>
      <point x="305" y="722" type="line"/>
      <point x="320" y="730"/>
      <point x="331" y="743"/>
      <point x="339" y="756" type="curve"/>
    </contour>
  </outline>
</glyph>
<glyph name="Idieresis" format="1">
  <advance width="335"/>
  <unicode hex="00CF"/>
  <outline>
    <contour>
      <point x="220" y="652" type="line"/>
      <point x="115" y="654" type="line"/>
      <point x="115" y="0" type="line"/>
      <point x="220" y="0" type="line"/>
    </contour>
    <contour>
      <point x="221" y="63" type="line"/>
      <point x="115" y="61" type="line"/>
      <point x="80" y="59" type="line" smooth="yes"/>
      <point x="36" y="56"/>
      <point x="42" y="10"/>
      <point x="41" y="0" type="curve"/>
      <point x="254" y="0" type="line" smooth="yes"/>
      <point x="298" y="0"/>
      <point x="294" y="47"/>
      <point x="293" y="57" type="curve"/>
    </contour>
    <contour>
      <point x="115" y="619" type="line"/>
      <point x="220" y="621" type="line"/>
      <point x="256" y="623" type="line" smooth="yes"/>
      <point x="300" y="626"/>
      <point x="294" y="672"/>
      <point x="295" y="682" type="curve"/>
      <point x="81" y="682" type="line" smooth="yes"/>
      <point x="38" y="682"/>
      <point x="42" y="635"/>
      <point x="43" y="625" type="curve"/>
    </contour>
    <contour>
      <point x="75" y="753" type="curve" smooth="yes"/>
      <point x="110" y="753"/>
      <point x="138" y="781"/>
      <point x="138" y="816" type="curve" smooth="yes"/>
      <point x="138" y="850"/>
      <point x="110" y="879"/>
      <point x="75" y="879" type="curve" smooth="yes"/>
      <point x="40" y="879"/>
      <point x="11" y="850"/>
      <point x="11" y="816" type="curve" smooth="yes"/>
      <point x="11" y="781"/>
      <point x="40" y="753"/>
    </contour>
    <contour>
      <point x="255" y="753" type="curve" smooth="yes"/>
      <point x="292" y="753"/>
      <point x="319" y="781"/>
      <point x="319" y="816" type="curve" smooth="yes"/>
      <point x="319" y="850"/>
      <point x="292" y="879"/>
      <point x="255" y="879" type="curve" smooth="yes"/>
      <point x="221" y="879"/>
      <point x="192" y="850"/>
      <point x="192" y="816" type="curve" smooth="yes"/>
      <point x="192" y="781"/>
      <point x="221" y="753"/>
    </contour>
  </outline>
</glyph>
<glyph name="Eth" format="1">
  <advance width="710"/>
  <unicode hex="00D0"/>
  <outline>
    <contour>
      <point x="59" y="368" type="line"/>
      <point x="59" y="306" type="line"/>
      <point x="375" y="306" type="line"/>
      <point x="375" y="368" type="line"/>
    </contour>
    <component base="D"/>
  </outline>
</glyph>
<glyph name="Ntilde" format="1">
  <advance width="690"/>
  <unicode hex="00D1"/>
  <outline>
    <contour>
      <point x="496" y="682" type="line"/>
      <point x="452" y="682"/>
      <point x="456" y="635"/>
      <point x="457" y="625" type="curve"/>
      <point x="529" y="619" type="line"/>
      <point x="529" y="149" type="line"/>
      <point x="551" y="156" type="line"/>
      <point x="203" y="682" type="line"/>
      <point x="81" y="682" type="line" smooth="yes"/>
      <point x="38" y="682"/>
      <point x="42" y="635"/>
      <point x="43" y="625" type="curve"/>
      <point x="115" y="619" type="line"/>
      <point x="115" y="61" type="line"/>
      <point x="80" y="59" type="line" smooth="yes"/>
      <point x="36" y="56"/>
      <point x="42" y="10"/>
      <point x="41" y="0" type="curve"/>
      <point x="217" y="0" type="line" smooth="yes"/>
      <point x="260" y="0"/>
      <point x="256" y="47"/>
      <point x="255" y="57" type="curve"/>
      <point x="183" y="63" type="line"/>
      <point x="183" y="568" type="line"/>
      <point x="158" y="560" type="line"/>
      <point x="529" y="-1" type="line"/>
      <point x="555" y="-1"/>
      <point x="578" y="4"/>
      <point x="596" y="12" type="curve"/>
      <point x="596" y="621" type="line"/>
      <point x="632" y="623" type="line" smooth="yes"/>
      <point x="676" y="626"/>
      <point x="670" y="672"/>
      <point x="671" y="682" type="curve"/>
    </contour>
    <contour>
      <point x="212" y="752" type="line"/>
      <point x="220" y="777"/>
      <point x="241" y="798"/>
      <point x="267" y="798" type="curve" smooth="yes"/>
      <point x="312" y="798"/>
      <point x="341" y="746"/>
      <point x="410" y="746" type="curve" smooth="yes"/>
      <point x="475" y="746"/>
      <point x="509" y="791"/>
      <point x="520" y="866" type="curve"/>
      <point x="488" y="875" type="line"/>
      <point x="481" y="846"/>
      <point x="459" y="824"/>
      <point x="424" y="824" type="curve" smooth="yes"/>
      <point x="370" y="824"/>
      <point x="345" y="881"/>
      <point x="284" y="881" type="curve" smooth="yes"/>
      <point x="231" y="881"/>
      <point x="191" y="835"/>
      <point x="179" y="764" type="curve"/>
    </contour>
  </outline>
</glyph>
<glyph name="Oacute" format="1">
  <advance width="671"/>
  <unicode hex="00D3"/>
  <outline>
    <contour>
      <point x="350" y="697" type="curve" smooth="yes"/>
      <point x="151" y="697"/>
      <point x="35" y="554"/>
      <point x="37" y="328" type="curve" smooth="yes"/>
      <point x="38" y="114"/>
      <point x="142" y="-15"/>
      <point x="318" y="-15" type="curve" smooth="yes"/>
      <point x="522" y="-15"/>
      <point x="635" y="128"/>
      <point x="635" y="352" type="curve" smooth="yes"/>
      <point x="633" y="592"/>
      <point x="509" y="697"/>
    </contour>
    <contour>
      <point x="335" y="627" type="curve" smooth="yes"/>
      <point x="465" y="628"/>
      <point x="526" y="518"/>
      <point x="526" y="337" type="curve" smooth="yes"/>
      <point x="526" y="161"/>
      <point x="462" y="57"/>
      <point x="332" y="55" type="curve" smooth="yes"/>
      <point x="205" y="56"/>
      <point x="145" y="165"/>
      <point x="145" y="343" type="curve" smooth="yes"/>
      <point x="145" y="522"/>
      <point x="208" y="627"/>
    </contour>
    <contour>
      <point x="505" y="840" type="line"/>
      <point x="495" y="861"/>
      <point x="461" y="896"/>
      <point x="430" y="901" type="curve"/>
      <point x="264" y="768" type="line"/>
      <point x="270" y="755"/>
      <point x="281" y="741"/>
      <point x="302" y="731" type="curve"/>
    </contour>
  </outline>
</glyph>
<glyph name="Ocircumflex" format="1">
  <advance width="671"/>
  <unicode hex="00D4"/>
  <outline>
    <contour>
      <point x="350" y="697" type="curve" smooth="yes"/>
      <point x="151" y="697"/>
      <point x="35" y="554"/>
      <point x="37" y="328" type="curve" smooth="yes"/>
      <point x="38" y="114"/>
      <point x="142" y="-15"/>
      <point x="318" y="-15" type="curve" smooth="yes"/>
      <point x="522" y="-15"/>
      <point x="635" y="128"/>
      <point x="635" y="352" type="curve" smooth="yes"/>
      <point x="633" y="592"/>
      <point x="509" y="697"/>
    </contour>
    <contour>
      <point x="335" y="627" type="curve" smooth="yes"/>
      <point x="465" y="628"/>
      <point x="526" y="518"/>
      <point x="526" y="337" type="curve" smooth="yes"/>
      <point x="526" y="161"/>
      <point x="462" y="57"/>
      <point x="332" y="55" type="curve" smooth="yes"/>
      <point x="205" y="56"/>
      <point x="145" y="165"/>
      <point x="145" y="343" type="curve" smooth="yes"/>
      <point x="145" y="522"/>
      <point x="208" y="627"/>
    </contour>
    <contour>
      <point x="382" y="880" type="line"/>
      <point x="355" y="887"/>
      <point x="340" y="887"/>
      <point x="312" y="880" type="curve"/>
      <point x="175" y="756" type="line"/>
      <point x="184" y="740"/>
      <point x="192" y="731"/>
      <point x="208" y="722" type="curve"/>
      <point x="386" y="834" type="line"/>
      <point x="305" y="834" type="line"/>
      <point x="482" y="722" type="line"/>
      <point x="497" y="730"/>
      <point x="508" y="743"/>
      <point x="516" y="756" type="curve"/>
    </contour>
  </outline>
</glyph>
<glyph name="Otilde" format="1">
  <advance width="671"/>
  <unicode hex="00D5"/>
  <outline>
    <contour>
      <point x="350" y="697" type="curve" smooth="yes"/>
      <point x="151" y="697"/>
      <point x="35" y="554"/>
      <point x="37" y="328" type="curve" smooth="yes"/>
      <point x="38" y="114"/>
      <point x="142" y="-15"/>
      <point x="318" y="-15" type="curve" smooth="yes"/>
      <point x="522" y="-15"/>
      <point x="635" y="128"/>
      <point x="635" y="352" type="curve" smooth="yes"/>
      <point x="633" y="592"/>
      <point x="509" y="697"/>
    </contour>
    <contour>
      <point x="335" y="627" type="curve" smooth="yes"/>
      <point x="465" y="628"/>
      <point x="526" y="518"/>
      <point x="526" y="337" type="curve" smooth="yes"/>
      <point x="526" y="161"/>
      <point x="462" y="57"/>
      <point x="332" y="55" type="curve" smooth="yes"/>
      <point x="205" y="56"/>
      <point x="145" y="165"/>
      <point x="145" y="343" type="curve" smooth="yes"/>
      <point x="145" y="522"/>
      <point x="208" y="627"/>
    </contour>
    <contour>
      <point x="210" y="752" type="line"/>
      <point x="218" y="777"/>
      <point x="239" y="798"/>
      <point x="264" y="798" type="curve" smooth="yes"/>
      <point x="309" y="798"/>
      <point x="339" y="746"/>
      <point x="408" y="746" type="curve" smooth="yes"/>
      <point x="473" y="746"/>
      <point x="506" y="791"/>
      <point x="517" y="866" type="curve"/>
      <point x="486" y="875" type="line"/>
      <point x="479" y="846"/>
      <point x="456" y="824"/>
      <point x="422" y="824" type="curve" smooth="yes"/>
      <point x="367" y="824"/>
      <point x="343" y="881"/>
      <point x="282" y="881" type="curve" smooth="yes"/>
      <point x="229" y="881"/>
      <point x="188" y="835"/>
      <point x="177" y="764" type="curve"/>
    </contour>
  </outline>
</glyph>
<glyph name="Odieresis" format="1">
  <advance width="671"/>
  <unicode hex="00D6"/>
  <outline>
    <contour>
      <point x="350" y="697" type="curve" smooth="yes"/>
      <point x="151" y="697"/>
      <point x="35" y="554"/>
      <point x="37" y="328" type="curve" smooth="yes"/>
      <point x="38" y="114"/>
      <point x="142" y="-15"/>
      <point x="318" y="-15" type="curve" smooth="yes"/>
      <point x="522" y="-15"/>
      <point x="635" y="128"/>
      <point x="635" y="352" type="curve" smooth="yes"/>
      <point x="633" y="592"/>
      <point x="509" y="697"/>
    </contour>
    <contour>
      <point x="335" y="627" type="curve" smooth="yes"/>
      <point x="465" y="628"/>
      <point x="526" y="518"/>
      <point x="526" y="337" type="curve" smooth="yes"/>
      <point x="526" y="161"/>
      <point x="462" y="57"/>
      <point x="332" y="55" type="curve" smooth="yes"/>
      <point x="205" y="56"/>
      <point x="145" y="165"/>
      <point x="145" y="343" type="curve" smooth="yes"/>
      <point x="145" y="522"/>
      <point x="208" y="627"/>
    </contour>
    <contour>
      <point x="252" y="753" type="curve" smooth="yes"/>
      <point x="287" y="753"/>
      <point x="315" y="781"/>
      <point x="315" y="816" type="curve" smooth="yes"/>
      <point x="315" y="850"/>
      <point x="287" y="879"/>
      <point x="252" y="879" type="curve" smooth="yes"/>
      <point x="217" y="879"/>
      <point x="188" y="850"/>
      <point x="188" y="816" type="curve" smooth="yes"/>
      <point x="188" y="781"/>
      <point x="217" y="753"/>
    </contour>
    <contour>
      <point x="432" y="753" type="curve" smooth="yes"/>
      <point x="468" y="753"/>
      <point x="496" y="781"/>
      <point x="496" y="816" type="curve" smooth="yes"/>
      <point x="496" y="850"/>
      <point x="468" y="879"/>
      <point x="432" y="879" type="curve" smooth="yes"/>
      <point x="398" y="879"/>
      <point x="369" y="850"/>
      <point x="369" y="816" type="curve" smooth="yes"/>
      <point x="369" y="781"/>
      <point x="398" y="753"/>
    </contour>
  </outline>
</glyph>
<glyph name="multiply" format="1">
  <advance width="437"/>
  <unicode hex="00D7"/>
  <outline>
    <contour>
      <point x="101" y="442" type="line"/>
      <point x="50" y="391" type="line"/>
      <point x="335" y="106" type="line"/>
      <point x="386" y="157" type="line"/>
    </contour>
    <contour>
      <point x="387" y="390" type="line"/>
      <point x="335" y="442" type="line"/>
      <point x="50" y="157" type="line"/>
      <point x="102" y="105" type="line"/>
    </contour>
  </outline>
</glyph>
<glyph name="Oslash" format="1">
  <advance width="694"/>
  <unicode hex="00D8"/>
  <outline>
    <contour>
      <point x="113" y="17" type="line"/>
      <point x="177" y="-18" type="line"/>
      <point x="576" y="671" type="line"/>
      <point x="512" y="703" type="line"/>
    </contour>
    <component base="O"/>
  </outline>
</glyph>
<glyph name="Uacute" format="1">
  <advance width="660"/>
  <unicode hex="00DA"/>
  <outline>
    <contour>
      <point x="468" y="682" type="line"/>
      <point x="425" y="682"/>
      <point x="429" y="635"/>
      <point x="430" y="625" type="curve"/>
      <point x="501" y="619" type="line"/>
      <point x="502" y="255" type="line" smooth="yes"/>
      <point x="502" y="113"/>
      <point x="439" y="55"/>
      <point x="338" y="55" type="curve" smooth="yes"/>
      <point x="235" y="55"/>
      <point x="192" y="119"/>
      <point x="192" y="264" type="curve" smooth="yes"/>
      <point x="193" y="621" type="line"/>
      <point x="228" y="623" type="line" smooth="yes"/>
      <point x="272" y="626"/>
      <point x="266" y="672"/>
      <point x="267" y="682" type="curve"/>
      <point x="54" y="682" type="line" smooth="yes"/>
      <point x="11" y="682"/>
      <point x="15" y="635"/>
      <point x="16" y="625" type="curve"/>
      <point x="88" y="619" type="line"/>
      <point x="88" y="272" type="line" smooth="yes"/>
      <point x="88" y="67"/>
      <point x="172" y="-15"/>
      <point x="323" y="-15" type="curve" smooth="yes"/>
      <point x="492" y="-15"/>
      <point x="572" y="82"/>
      <point x="572" y="276" type="curve" smooth="yes"/>
      <point x="572" y="621" type="line"/>
      <point x="607" y="623" type="line" smooth="yes"/>
      <point x="651" y="626"/>
      <point x="645" y="672"/>
      <point x="646" y="682" type="curve"/>
    </contour>
    <contour>
      <point x="494" y="840" type="line"/>
      <point x="484" y="861"/>
      <point x="450" y="896"/>
      <point x="420" y="901" type="curve"/>
      <point x="254" y="768" type="line"/>
      <point x="260" y="755"/>
      <point x="270" y="741"/>
      <point x="291" y="731" type="curve"/>
    </contour>
  </outline>
</glyph>
<glyph name="Ucircumflex" format="1">
  <advance width="660"/>
  <unicode hex="00DB"/>
  <outline>
    <contour>
      <point x="468" y="682" type="line"/>
      <point x="425" y="682"/>
      <point x="429" y="635"/>
      <point x="430" y="625" type="curve"/>
      <point x="501" y="619" type="line"/>
      <point x="502" y="255" type="line" smooth="yes"/>
      <point x="502" y="113"/>
      <point x="439" y="55"/>
      <point x="338" y="55" type="curve" smooth="yes"/>
      <point x="235" y="55"/>
      <point x="192" y="119"/>
      <point x="192" y="264" type="curve" smooth="yes"/>
      <point x="193" y="621" type="line"/>
      <point x="228" y="623" type="line" smooth="yes"/>
      <point x="272" y="626"/>
      <point x="266" y="672"/>
      <point x="267" y="682" type="curve"/>
      <point x="54" y="682" type="line" smooth="yes"/>
      <point x="11" y="682"/>
      <point x="15" y="635"/>
      <point x="16" y="625" type="curve"/>
      <point x="88" y="619" type="line"/>
      <point x="88" y="272" type="line" smooth="yes"/>
      <point x="88" y="67"/>
      <point x="172" y="-15"/>
      <point x="323" y="-15" type="curve" smooth="yes"/>
      <point x="492" y="-15"/>
      <point x="572" y="82"/>
      <point x="572" y="276" type="curve" smooth="yes"/>
      <point x="572" y="621" type="line"/>
      <point x="607" y="623" type="line" smooth="yes"/>
      <point x="651" y="626"/>
      <point x="645" y="672"/>
      <point x="646" y="682" type="curve"/>
    </contour>
    <contour>
      <point x="371" y="880" type="line"/>
      <point x="344" y="887"/>
      <point x="329" y="887"/>
      <point x="301" y="880" type="curve"/>
      <point x="164" y="756" type="line"/>
      <point x="173" y="740"/>
      <point x="181" y="731"/>
      <point x="197" y="722" type="curve"/>
      <point x="375" y="834" type="line"/>
      <point x="294" y="834" type="line"/>
      <point x="471" y="722" type="line"/>
      <point x="486" y="730"/>
      <point x="497" y="743"/>
      <point x="505" y="756" type="curve"/>
    </contour>
  </outline>
</glyph>
<glyph name="Udieresis" format="1">
  <advance width="660"/>
  <unicode hex="00DC"/>
  <outline>
    <contour>
      <point x="468" y="682" type="line"/>
      <point x="425" y="682"/>
      <point x="429" y="635"/>
      <point x="430" y="625" type="curve"/>
      <point x="501" y="619" type="line"/>
      <point x="502" y="255" type="line" smooth="yes"/>
      <point x="502" y="113"/>
      <point x="439" y="55"/>
      <point x="338" y="55" type="curve" smooth="yes"/>
      <point x="235" y="55"/>
      <point x="192" y="119"/>
      <point x="192" y="264" type="curve" smooth="yes"/>
      <point x="193" y="621" type="line"/>
      <point x="228" y="623" type="line" smooth="yes"/>
      <point x="272" y="626"/>
      <point x="266" y="672"/>
      <point x="267" y="682" type="curve"/>
      <point x="54" y="682" type="line" smooth="yes"/>
      <point x="11" y="682"/>
      <point x="15" y="635"/>
      <point x="16" y="625" type="curve"/>
      <point x="88" y="619" type="line"/>
      <point x="88" y="272" type="line" smooth="yes"/>
      <point x="88" y="67"/>
      <point x="172" y="-15"/>
      <point x="323" y="-15" type="curve" smooth="yes"/>
      <point x="492" y="-15"/>
      <point x="572" y="82"/>
      <point x="572" y="276" type="curve" smooth="yes"/>
      <point x="572" y="621" type="line"/>
      <point x="607" y="623" type="line" smooth="yes"/>
      <point x="651" y="626"/>
      <point x="645" y="672"/>
      <point x="646" y="682" type="curve"/>
    </contour>
    <contour>
      <point x="241" y="753" type="curve" smooth="yes"/>
      <point x="276" y="753"/>
      <point x="304" y="781"/>
      <point x="304" y="816" type="curve" smooth="yes"/>
      <point x="304" y="850"/>
      <point x="276" y="879"/>
      <point x="241" y="879" type="curve" smooth="yes"/>
      <point x="206" y="879"/>
      <point x="177" y="850"/>
      <point x="177" y="816" type="curve" smooth="yes"/>
      <point x="177" y="781"/>
      <point x="206" y="753"/>
    </contour>
    <contour>
      <point x="421" y="753" type="curve" smooth="yes"/>
      <point x="457" y="753"/>
      <point x="485" y="781"/>
      <point x="485" y="816" type="curve" smooth="yes"/>
      <point x="485" y="850"/>
      <point x="457" y="879"/>
      <point x="421" y="879" type="curve" smooth="yes"/>
      <point x="387" y="879"/>
      <point x="358" y="850"/>
      <point x="358" y="816" type="curve" smooth="yes"/>
      <point x="358" y="781"/>
      <point x="387" y="753"/>
    </contour>
  </outline>
</glyph>
